SplineFontDB: 3.2
FontName: FanAdinkra
FullName: FanAdinkra
FamilyName: FanAdinkra
Weight: Regular
Copyright: Copyright (c) fANhAN iNSiDE 2021, 
UComments: "2021-6-24: Created with FontForge (http://fontforge.org)"
Version: 001.000
ItalicAngle: 0
UnderlinePosition: -1638.4
UnderlineWidth: 819.2
Ascent: 3277
Descent: 819
InvalidEm: 0
LayerCount: 2
Layer: 0 0 "Back" 1
Layer: 1 0 "Fore" 0
XUID: [1021 991 -1287261736 9154]
StyleMap: 0x0000
FSType: 0
OS2Version: 0
OS2_WeightWidthSlopeOnly: 0
OS2_UseTypoMetrics: 1
CreationTime: 1624483809
ModificationTime: 1625440538
OS2TypoAscent: 0
OS2TypoAOffset: 1
OS2TypoDescent: 0
OS2TypoDOffset: 1
OS2TypoLinegap: 369
OS2WinAscent: 0
OS2WinAOffset: 1
OS2WinDescent: 0
OS2WinDOffset: 1
HheadAscent: 0
HheadAOffset: 1
HheadDescent: 0
HheadDOffset: 1
MarkAttachClasses: 1
DEI: 91125
Encoding: UnicodeFull
UnicodeInterp: none
NameList: AGL For New Fonts
DisplaySize: -48
AntiAlias: 1
FitToEm: 0
WinInfo: 58026 38 14
BeginPrivate: 0
EndPrivate
BeginChars: 1114112 154

StartChar: uniE301
Encoding: 58113 58113 0
Width: 3094
Flags: HW
LayerCount: 2
Fore
SplineSet
935.897460938 2650.58398438 m 1
 871.392578125 2717.5859375 819.108398438 2799.64550781 800.09375 2891.6796875 c 1
 733.458007812 3088.88867188 929.259765625 3264.25292969 1120.71484375 3222.90136719 c 1
 1296.11230469 3202.41015625 1301.72460938 3002.27832031 1323.14746094 2867.6328125 c 1
 1339.25097656 2648.61425781 1599.37890625 2740.58105469 1620.03222656 2908.625 c 1
 1676.69921875 3121.27734375 1948.02539062 3192.29980469 2128.07714844 3092.27734375 c 0
 2305.60742188 2997.31835938 2306.49023438 2756.42578125 2193.98632812 2610.97363281 c 1
 2052.12695312 2402.23242188 1865.99316406 2227.0859375 1735.04589844 2009.81835938 c 1
 1613.58300781 1904.67480469 1652.1640625 1640.70898438 1848.66210938 1750.96484375 c 0
 1983.60742188 1830.94921875 2281.70800781 1901.35253906 2265.203125 1654.45996094 c 1
 2232.04101562 1462.25488281 2023.75976562 1381.50976562 1870.25488281 1300.70996094 c 1
 1715.69335938 1268.046875 1512.76660156 1050.87304688 1725.85253906 947.881835938 c 1
 1891.83105469 855.161132812 2212.70996094 1118.75097656 2268.60742188 849.912109375 c 1
 2256.94042969 647.0078125 2044.35644531 575.493164062 1905.38964844 471.544921875 c 1
 1768.6328125 413.4375 1680.29296875 146.026367188 1878.84375 122.171875 c 1
 2160.29101562 211.138671875 2382.12304688 452.78515625 2491.12792969 723.657226562 c 1
 2665.75390625 1178.97265625 2616.53710938 1678.64648438 2577.1796875 2153.60351562 c 0
 2563.76660156 2310.51660156 2527.40625 2471.765625 2546.62988281 2627.73632812 c 1
 2794.32910156 2176.88183594 2977.02441406 1673.52636719 2974.19140625 1153.44921875 c 1
 2979.9453125 632.729492188 2718.37207031 113.07421875 2275.29882812 -167.353515625 c 1
 2061.02734375 -223.66015625 2201.98632812 -391.387695312 2194.00097656 -531.809570312 c 1
 2194.34570312 -768.765625 1833.29003906 -860.279296875 1713.42480469 -664.372070312 c 1
 1684.97460938 -539.052734375 1656.62402344 -249.887695312 1461.875 -393.349609375 c 1
 1359.32324219 -572.544921875 1158.01171875 -759.25390625 935.3515625 -670.533203125 c 1
 732.966796875 -564.271484375 751.372070312 -288.274414062 837.463867188 -110.319335938 c 1
 930.258789062 144.020507812 1234.87011719 220.249023438 1346.1328125 461.86328125 c 1
 1404.83496094 668.07421875 1120.77734375 586.620117188 1035.81640625 508.24609375 c 0
 867.224609375 354.243164062 645.150390625 539.107421875 771.13671875 730.370117188 c 1
 867.752929688 983.567382812 1194.42773438 975.633789062 1349.26464844 1173.03710938 c 0
 1488.72070312 1348.28613281 1221.05761719 1419.26367188 1098.50683594 1337.44824219 c 1
 962.82421875 1257.86523438 722.848632812 1305.67871094 797.815429688 1505.56542969 c 1
 903.092773438 1748.7578125 1228.50195312 1755.04980469 1371.0546875 1966.63476562 c 1
 1528.3984375 2106.859375 1328.10742188 2299.1328125 1181.68554688 2155.06542969 c 1
 743.220703125 1837.61621094 426.349609375 1353.79296875 305.43359375 826.048828125 c 1
 236.451171875 570.379882812 266.2734375 305.833984375 284.75 45.99609375 c 1
 223.837890625 144.274414062 210.225585938 294.328125 183.271484375 415.915039062 c 1
 119.624023438 884.6015625 72.3486328125 1373.28613281 203.560546875 1834.71484375 c 1
 313.762695312 2189.25976562 555.737304688 2556.03613281 935.897460938 2650.58398438 c 1
EndSplineSet
Validated: 33
EndChar

StartChar: uniE302
Encoding: 58114 58114 1
Width: 4406
Flags: HW
LayerCount: 2
Fore
SplineSet
1936.4296875 -761.043945312 m 1
 1933.06347656 -598.44921875 1994.40820312 -413.00390625 1900.8359375 -266.083007812 c 1
 1663.18554688 -12.54296875 1263.4765625 -66.951171875 992.978515625 134.189453125 c 0
 556.700195312 460.059570312 202.322265625 941.08984375 123.892578125 1489.37597656 c 1
 84.3681640625 2076.57519531 347.436523438 2696.61425781 840.6796875 3031.921875 c 1
 1165.56835938 3268.02929688 1691.64550781 3331.13769531 1977.29199219 3001.19140625 c 1
 2205.25683594 2711.76171875 2152.87695312 2320.43164062 2124.64746094 1978.56835938 c 1
 2047.96582031 2034.33691406 1971.28515625 2090.10449219 1894.60351562 2145.87304688 c 1
 1873.69042969 2055.25 1852.77734375 1964.62597656 1831.86425781 1874.00292969 c 1
 1689.3203125 2005.87109375 1636.71191406 2199.546875 1538.09179688 2361.18457031 c 1
 1417.81835938 2605.70214844 1094.65136719 2714.51367188 855.58984375 2577.55273438 c 1
 625.2734375 2467.02734375 610.487304688 2144.40820312 766.849609375 1965.00683594 c 1
 1139.70898438 1504.453125 1809.9453125 1319.08007812 2372.04199219 1495.49316406 c 1
 2729.47460938 1596.61035156 2927.578125 1941.99511719 3059.08300781 2263.33691406 c 0
 3161.59960938 2514.2578125 3308.14257812 2816.71582031 3609.47558594 2856.91796875 c 1
 3603.85351562 2480.625 3177.33496094 2265.3359375 3187.27148438 1887.17675781 c 1
 3291.33496094 1869.73144531 3462.95410156 2129.75292969 3559.06445312 2249.45214844 c 1
 3610.84570312 2354.37890625 3795.24804688 2634.39355469 3867.38574219 2461.65625 c 1
 3882.76464844 2181.72949219 3549.37695312 2080.26269531 3483.99707031 1832.17675781 c 1
 3696.21972656 1952.80371094 3923.89648438 2064.27929688 4171.24121094 2081.80273438 c 1
 4227.64355469 1876.12792969 3838.23632812 1834.80566406 3701.6171875 1716.7109375 c 1
 3721.92285156 1608.93261719 4050.55566406 1724.36816406 4188.80175781 1658.33007812 c 1
 4456.0703125 1584.51660156 4101.85644531 1478.67382812 3993.50097656 1498.21777344 c 0
 3826.17382812 1533.18359375 3603.99804688 1475.31347656 3734.95410156 1267.52441406 c 1
 3637.36035156 1246.61132812 3539.765625 1225.69824219 3442.171875 1204.78515625 c 1
 3495.37890625 1144.92675781 3548.5859375 1085.06835938 3601.79199219 1025.2109375 c 1
 3465.14648438 988.209960938 3413.35449219 829.329101562 3463.08398438 681.958007812 c 1
 3272.17382812 743.564453125 3238.7109375 550.359375 3274.86621094 410.087890625 c 1
 3184.24316406 431.000976562 3093.62011719 451.9140625 3002.99609375 472.827148438 c 1
 3015.66113281 358.842773438 3028.32617188 244.858398438 3040.99121094 130.874023438 c 1
 2970.86816406 68.783203125 2728.23339844 123.592773438 2605.6484375 33.65234375 c 1
 2693.69726562 -214.16796875 2649.46679688 -480.725585938 2647.60742188 -737.314453125 c 1
 2528.453125 -846.01171875 2312.72167969 -671.462890625 2397.68066406 -500.8828125 c 1
 2479.53320312 -309.20703125 2369.9296875 -97.1220703125 2145.56054688 -175.478515625 c 1
 2145.56054688 -370.666992188 2145.56054688 -565.85546875 2145.56054688 -761.043945312 c 1
 2075.85058594 -761.043945312 2006.140625 -761.043945312 1936.4296875 -761.043945312 c 1
1685.47265625 2971.95605469 m 1
 1449.48535156 2963.73144531 1382.359375 2576.31738281 1643.47753906 2544.90820312 c 1
 1937.55957031 2468.265625 1988.92578125 3006.56738281 1685.47265625 2971.95605469 c 1
2020.06542969 1920.57421875 m 1
 2205.22265625 1936.86328125 2221.06542969 1682.20507812 2098.2578125 1596.45605469 c 0
 1826.4140625 1411.34375 1711.23144531 1930.1171875 2020.06542969 1920.57421875 c 1
493.427734375 1915.82910156 m 1
 391.31640625 1911.34277344 149.94140625 1708.640625 347.036132812 1643.95898438 c 1
 395.833007812 1734.58300781 444.630859375 1825.20605469 493.427734375 1915.82910156 c 1
3107.56152344 1706.69824219 m 1
 3032.90234375 1707.53515625 2959.25488281 1682.890625 2907.74902344 1627.20996094 c 1
 2703.08496094 1505.10546875 2963.64453125 1179.59179688 3117.40039062 1326.34375 c 1
 3020.49902344 1415.49511719 3056.86816406 1575.515625 3107.56152344 1706.69824219 c 1
828.037109375 1623.04589844 m 1
 795.475585938 1640.09765625 760.705078125 1653.31152344 724.530273438 1660.203125 c 0
 481.875 1704.63378906 323.26953125 1438.54882812 326.123046875 1225.69824219 c 1
 374.989257812 1276.55664062 423.856445312 1327.41503906 472.72265625 1378.27441406 c 1
 524.321289062 1443.37402344 586.498046875 1493.0078125 667.884765625 1514.55566406 c 1
 717.7890625 1553.04003906 838.587890625 1544.24316406 828.037109375 1623.04589844 c 1
3400.34570312 1643.95898438 m 1
 3231.46289062 1595.46972656 3311.70703125 1448.35644531 3442.171875 1434.828125 c 1
 3428.22949219 1504.5390625 3414.28710938 1574.24902344 3400.34570312 1643.95898438 c 1
995.341796875 1476.65429688 m 1
 965.4609375 1475.28515625 935.646484375 1471.81445312 906.362304688 1465.65722656 c 0
 643.181640625 1420.74609375 545.711914062 1125.80761719 556.166992188 891.088867188 c 1
 612.450195312 996.673828125 668.732421875 1102.25976562 725.015625 1207.84472656 c 1
 797.342773438 1311.06835938 908.0703125 1384.87792969 995.341796875 1476.65429688 c 1
1288.12402344 1372.08886719 m 1
 1096.15917969 1365.11230469 923.3828125 1239.85351562 835.184570312 1072.78222656 c 1
 758.017578125 917.033203125 700.448242188 672.0703125 869.86328125 556.479492188 c 1
 859.916015625 891.5625 1194.95605469 1075.91699219 1288.12402344 1372.08886719 c 1
1120.8203125 451.9140625 m 1
 1407.84960938 263.70703125 1707.96679688 27.5478515625 2069.81933594 37.470703125 c 1
 2491.45214844 63.12890625 2794.41796875 411.141601562 3020.921875 733.981445312 c 1
 3144.07519531 870.653320312 3169.64550781 1138.57519531 2939.76074219 1172.61035156 c 1
 2599.39453125 1238.02441406 2253.40820312 1283.86230469 1906.95898438 1302.31054688 c 1
 1813.88085938 1283.56054688 1478.421875 1357.50976562 1582.54394531 1220.74316406 c 1
 1744.30859375 1130.02539062 1938.95410156 1115.55761719 2115.58496094 1060.3515625 c 1
 2343.44921875 1001.54296875 2574.40332031 954.8203125 2806.54589844 922.393554688 c 1
 3010.11132812 820.922851562 2762.21191406 708.486328125 2642.59863281 759.751953125 c 1
 2226.18847656 849.469726562 1827.56738281 1046.74804688 1392.68945312 1037.48046875 c 1
 1555.5078125 765.702148438 1901.11425781 706.120117188 2189.50097656 660.809570312 c 1
 2314.82910156 655.032226562 2633.74121094 616.340820312 2547.73046875 441.560546875 c 1
 2346.6015625 423.418945312 2155.015625 524.46875 1968.54296875 588.71875 c 0
 1743.01660156 669.958984375 1533.22363281 810.178710938 1293.41894531 840.989257812 c 1
 1064.0390625 736.953125 1416.6796875 607.92578125 1521.80761719 575.983398438 c 1
 1729.33886719 469.657226562 2038.7890625 465.065429688 2169.32519531 265.955078125 c 1
 2044.5390625 89.427734375 1823.41210938 285.5625 1691.99511719 363.853515625 c 1
 1533.38671875 478.515625 1296.96582031 603.607421875 1120.8203125 451.9140625 c 1
EndSplineSet
Validated: 33
EndChar

StartChar: uniE303
Encoding: 58115 58115 2
Width: 3092
Flags: HW
LayerCount: 2
Fore
SplineSet
1393.02929688 -639.787109375 m 1
 1335.2578125 -510.505859375 1253.72070312 -470.762695312 1130.91992188 -534.40234375 c 1
 1041.75683594 -558.796875 919.34765625 -552.430664062 1031.65332031 -451.135742188 c 1
 1062.95800781 -377.745117188 1206.953125 -255.573242188 1192.61621094 -214.379882812 c 1
 1048.42578125 -282.731445312 851.784179688 -304.518554688 741.2578125 -162.711914062 c 1
 590.108398438 -25.658203125 571.732421875 237.411132812 728.375976562 378.307617188 c 1
 843.412109375 501.626953125 1033.24414062 492.575195312 1186.04785156 467.172851562 c 1
 1414.52539062 377.182617188 1109.99609375 91.4990234375 1002.90625 303.591796875 c 1
 758.037109375 393.341796875 776.392578125 81.53125 919.694335938 -15.125 c 1
 1050.27539062 -164.861328125 1260.71386719 -29.34375 1331.9921875 113.287109375 c 1
 1443.32324219 294.599609375 1302.1796875 491.296875 1211.06933594 647.639648438 c 1
 1081.64355469 782.5078125 1006.46289062 957.935546875 876.05078125 1092.95605469 c 1
 637.143554688 1392.703125 334.874023438 1655.63085938 203.806640625 2026.70703125 c 1
 60.623046875 2360.44042969 87.43359375 2809.54589844 389.698242188 3047.56347656 c 1
 718.936523438 3285.14941406 1225.94824219 3303.77050781 1532.60351562 3017.48730469 c 1
 1676.32617188 3066.28808594 1845.82910156 3212.69433594 2031.42382812 3217.03417969 c 1
 2361.88476562 3275.44824219 2742.89257812 3114.27148438 2881.06347656 2797.49121094 c 1
 2999.40917969 2598.04492188 2982.69433594 2350.45996094 2940.41796875 2131.390625 c 1
 2883.63769531 1926.00976562 2775.96289062 1733.00683594 2634.921875 1573.76464844 c 0
 2538.67773438 1464.75097656 2440.11914062 1336.75488281 2335.66113281 1226.31738281 c 1
 2147.53710938 1015.56933594 1987.56835938 782.03125 1826.87011719 550.936523438 c 1
 1745.50195312 410.98828125 1669.50097656 235.87890625 1752.90820312 78.986328125 c 1
 1833.3046875 -108.663085938 2149.8515625 -34.90234375 2188.2109375 151.328125 c 1
 2230.29199219 270.40234375 2131.21582031 429.270507812 2008.77832031 329.463867188 c 1
 1861.07421875 326.620117188 1791.56347656 538.456054688 1982.79882812 538.212890625 c 1
 2301.5625 602.540039062 2539.15039062 151.40234375 2326.32226562 -82.4716796875 c 0
 2193.34375 -229.166992188 1975.33789062 -223.4453125 1799.54003906 -174.0234375 c 1
 1871.22265625 -299.321289062 1992.56445312 -394.610351562 2037.43359375 -534.788085938 c 1
 1903.47265625 -602.416015625 1734.29589844 -401.15234375 1654.98535156 -574.29296875 c 1
 1590.37695312 -651.255859375 1510.33105469 -890.725585938 1431.92871094 -697.178710938 c 1
 1412.87207031 -669.479492188 l 1
 1393.02929688 -639.787109375 l 1
 1393.02929688 -639.787109375 l 1
1564.31933594 551.9609375 m 1
 1633.40722656 696.055664062 1714.18652344 837.1875 1806.95410156 967.44921875 c 1
 2083.53710938 1298.01464844 2384.57617188 1611.42871094 2621.53222656 1973.19824219 c 0
 2720.2890625 2122.18554688 2753.04199219 2309.41992188 2768.69433594 2485.13085938 c 1
 2774.25488281 2778.27929688 2521.04101562 3091.17480469 2208.37792969 3043.81835938 c 1
 1966.20703125 3045.33203125 1707.03613281 2894.70703125 1664.14550781 2641.66503906 c 1
 1643.02050781 2444.40722656 1758.39746094 2232.65136719 1932.45214844 2138.69042969 c 1
 2117.44628906 2061.74316406 2286.63867188 2300.75585938 2240.30566406 2467.99707031 c 1
 2152.28222656 2584.75097656 2032.56054688 2310.5078125 1918.33398438 2457.63183594 c 1
 1768.95800781 2567.97167969 2045.08496094 2709.23046875 2156.57519531 2695.14257812 c 1
 2437.62304688 2676.234375 2559.25292969 2300.79589844 2388.07714844 2095.96386719 c 1
 2237.90722656 1896.59667969 1925.52148438 1905.73339844 1751.29785156 2067.80957031 c 1
 1640.56738281 2099.71191406 1598.2890625 2294.921875 1529.82226562 2308.78808594 c 1
 1451.921875 2203.49121094 1383.43359375 2088.265625 1258.12597656 2031.02636719 c 1
 1076.85742188 1907.95898438 795.073242188 1939.14355469 686.083007812 2143.53710938 c 1
 626.958984375 2279.73925781 613.622070312 2478.57421875 730.559570312 2590.47070312 c 1
 848.80859375 2766.82226562 1102.33789062 2730.63769531 1218.078125 2573.44042969 c 1
 1229.48730469 2404.62402344 998.56640625 2396.73242188 912.774414062 2510.16210938 c 1
 719.171875 2472.62011719 907.958984375 2176.67480469 1041.47460938 2147.45019531 c 0
 1257.46777344 2103.1484375 1393.76757812 2344.03515625 1430.67382812 2523.25097656 c 0
 1479.41796875 2746.23730469 1307.32421875 2961.04589844 1092.87988281 3007.08300781 c 1
 874.18359375 3062.21875 612.755859375 3058.29003906 437.009765625 2899.40820312 c 1
 296.944335938 2739.64160156 325.200195312 2513.34082031 349.162109375 2319.078125 c 1
 384.203125 2160.05078125 444.46875 2007.33398438 548.032226562 1880.55371094 c 1
 782.0390625 1529.7109375 1094.34667969 1240.02050781 1338.47070312 897.610351562 c 1
 1410.94335938 777.806640625 1474.76757812 626.735351562 1558.83789062 530.413085938 c 1
 1564.31933594 551.9609375 l 1
EndSplineSet
Validated: 37
EndChar

StartChar: uniE304
Encoding: 58116 58116 3
Width: 4240
Flags: HW
LayerCount: 2
Fore
SplineSet
3820 1229 m 0
 3820 290.744140625 3058.25585938 -471 2120 -471 c 0
 1181.74414062 -471 420 290.744140625 420 1229 c 0
 420 2167.25585938 1181.74414062 2929 2120 2929 c 0
 3058.25585938 2929 3820 2167.25585938 3820 1229 c 0
4120 1229 m 0
 4120 2332.83007812 3223.83007812 3229 2120 3229 c 0
 1016.16992188 3229 120 2332.83007812 120 1229 c 0
 120 125.169921875 1016.16992188 -771 2120 -771 c 0
 3223.83007812 -771 4120 125.169921875 4120 1229 c 0
3120 1229 m 0
 3120 677.084960938 2671.91503906 229 2120 229 c 0
 1568.08496094 229 1120 677.084960938 1120 1229 c 0
 1120 1780.91503906 1568.08496094 2229 2120 2229 c 0
 2671.91503906 2229 3120 1780.91503906 3120 1229 c 0
3420 1229 m 0
 3420 1946.48925781 2837.48925781 2529 2120 2529 c 0
 1402.51074219 2529 820 1946.48925781 820 1229 c 0
 820 511.510742188 1402.51074219 -71 2120 -71 c 0
 2837.48925781 -71 3420 511.510742188 3420 1229 c 0
2420 1229 m 0
 2420 1063.42578125 2285.57421875 929 2120 929 c 0
 1954.42578125 929 1820 1063.42578125 1820 1229 c 0
 1820 1394.57421875 1954.42578125 1529 2120 1529 c 0
 2285.57421875 1529 2420 1394.57421875 2420 1229 c 0
2720 1229 m 0
 2720 1560.1484375 2451.1484375 1829 2120 1829 c 0
 1788.8515625 1829 1520 1560.1484375 1520 1229 c 0
 1520 897.8515625 1788.8515625 629 2120 629 c 0
 2451.1484375 629 2720 897.8515625 2720 1229 c 0
EndSplineSet
Validated: 9
EndChar

StartChar: uniE305
Encoding: 58117 58117 4
Width: 3822
Flags: HW
LayerCount: 2
Fore
SplineSet
120 1222.34765625 m 1
 315.03125 1387.94824219 577.501953125 1397.50683594 820.036132812 1409.94140625 c 1
 1137.60742188 1408.8046875 1456.27734375 1570.30371094 1607.59179688 1855.55078125 c 1
 1770.65820312 2123.80859375 1743.50683594 2515.70019531 1479.17285156 2710.71191406 c 1
 1245.70117188 2926.79492188 802.581054688 2864.83886719 674.6328125 2562.58789062 c 1
 574.845703125 2339.57324219 775.783203125 2088.35058594 1004.10644531 2078.95507812 c 0
 1210.98632812 2072.62304688 1251.95019531 2385.53515625 1058.81640625 2447.1328125 c 1
 845.64453125 2539.25585938 984.8828125 2890.62402344 1206.92285156 2786.86132812 c 1
 1525.36914062 2701.29199219 1662.16601562 2296.25585938 1509.15820312 2017.49414062 c 1
 1382.62597656 1734.65625 1020.87988281 1640.31054688 746.608398438 1748.74023438 c 1
 380.899414062 1862.82421875 171.450195312 2301.56933594 308.030273438 2658.57421875 c 0
 507.688476562 3172.40625 1244.42578125 3412.11132812 1688.90625 3066.73144531 c 1
 1807.24902344 3035.6796875 1879.76464844 2660.40234375 1975.37207031 2884.22558594 c 1
 2177.46972656 3237.70703125 2658.55566406 3305.95800781 3007.828125 3150.12792969 c 1
 3353.94238281 3021.04003906 3634.97167969 2649.20898438 3537.28808594 2269.58007812 c 1
 3462.78027344 1832.58496094 2913.43066406 1563.10253906 2526.74316406 1784.38476562 c 1
 2204.95507812 1962.82714844 2150.2578125 2475.26269531 2449.17285156 2701.05664062 c 1
 2586.87890625 2862.78222656 2941.78613281 2813.51269531 2861.57617188 2554.60546875 c 1
 2792.13574219 2426.7421875 2544.10839844 2360.35351562 2660.49121094 2174.0078125 c 1
 2756.53515625 1999.69238281 2996.14257812 2099.36523438 3092.48632812 2222.18066406 c 1
 3261.93164062 2406.09765625 3137.51171875 2714.75097656 2915.86816406 2791.234375 c 1
 2661.82910156 2915.51953125 2349.76171875 2792.29101562 2205.72851562 2560.52246094 c 0
 1990.93261719 2224.0078125 2171.30859375 1763.34472656 2486.95117188 1559.21777344 c 1
 2847.57617188 1298.828125 3356.55175781 1517.30761719 3702.16992188 1222.34765625 c 1
 3510.26660156 1124.50878906 3307.96679688 996.831054688 3083.24707031 1022.58886719 c 1
 2734.359375 1096.65820312 2369.70605469 898.530273438 2201.38183594 592.3828125 c 1
 1979.69140625 246.080078125 2202.11328125 -246.046875 2574.72851562 -374.1171875 c 1
 2886.82519531 -499.900390625 3252.58789062 -149.97265625 3141.92382812 166.322265625 c 1
 3089.59863281 353.615234375 2820.02441406 458.477539062 2684.86425781 293.806640625 c 1
 2547.390625 154.546875 2725.99414062 27.486328125 2832.58398438 -48.5 c 1
 2981.31542969 -247.516601562 2691.68457031 -415.459960938 2517.13183594 -327.830078125 c 1
 2285.40917969 -233.3046875 2254.67089844 61.2724609375 2294.93554688 278.403320312 c 1
 2327.43066406 530.5390625 2532.83789062 747.200195312 2789.75878906 770.153320312 c 0
 3240.20605469 810.098632812 3609.19335938 325.624023438 3531.94921875 -101.813476562 c 1
 3458.71289062 -545.205078125 2979.91113281 -838.551757812 2548.65722656 -757.557617188 c 1
 2354.57226562 -740.120117188 2208.10546875 -607.041015625 2066.125 -487.48046875 c 1
 1878.39257812 -287.568359375 1686.04003906 -561.734375 1531.7578125 -661.977539062 c 1
 1155.34179688 -886.969726562 609.557617188 -738.9609375 384.967773438 -364.383789062 c 1
 165.7421875 -19.0068359375 314.5859375 467.956054688 655.19140625 674.66796875 c 1
 909.029296875 853.310546875 1300.01367188 775.551757812 1453.15429688 501.998046875 c 1
 1573.97753906 264.693359375 1594.34960938 -71.572265625 1395.47851562 -273.19921875 c 0
 1257.890625 -411.553710938 898.94921875 -354.576171875 956.71875 -109.829101562 c 1
 996.34765625 27.3134765625 1246.56640625 58.041015625 1175.42675781 234.250976562 c 0
 1104.50195312 406.29296875 855.557617188 421.224609375 746.477539062 276.611328125 c 1
 556.462890625 71.044921875 704.096679688 -265.1328125 941.51171875 -357.422851562 c 1
 1282.62109375 -481.307617188 1662.85839844 -187.99609375 1717.81152344 151.393554688 c 1
 1769.62597656 624.030273438 1308.01074219 1079.79394531 836.598632812 1031.59179688 c 1
 579.779296875 974.31640625 338.801757812 1105.20019531 120 1222.34765625 c 1
1934.046875 1589.75 m 1
 1888.12109375 1589.75 l 1
 1543.68164062 1199.38476562 l 1
 1774.24707031 968.8203125 l 1
 1827.99707031 932.029296875 1859.57421875 841.708007812 1934.046875 854.9453125 c 1
 2278.48730469 1199.38476562 l 1
 1934.046875 1589.75 l 1
EndSplineSet
Validated: 33
EndChar

StartChar: uniE306
Encoding: 58118 58118 5
Width: 4087
Flags: HW
LayerCount: 2
Fore
SplineSet
1825 2164.08984375 m 1
 1825.00097656 2164.08886719 l 1
 1829.28613281 2403.01464844 1722.10644531 2646.40332031 1808.765625 2881.12304688 c 0
 1861.86816406 3020.92480469 2021.56835938 3388.67285156 2181.18554688 3150.83789062 c 0
 2298.5234375 2973.47070312 2367.96875 2760.81347656 2325.27148438 2547.51269531 c 1
 2324.53808594 2403.59863281 2192.40527344 2055.46484375 2450.42285156 2160.77929688 c 1
 2675.17089844 2180.49902344 2770.74511719 2403.43554688 2687.828125 2596.92675781 c 1
 2721.07421875 2886.01269531 3074.43261719 2575.35742188 3007.12792969 2387.30859375 c 1
 3030.71777344 2106.75097656 2752.26074219 1927.02636719 2513.484375 1862.87792969 c 1
 2632.90917969 1668.81152344 l 1
 2699.65625 1485.26171875 2753.91308594 1702.13085938 2810.07519531 1781.28710938 c 1
 2955.80371094 2034.67675781 3317.53515625 2079.01171875 3550.00878906 1926.609375 c 1
 3733.84863281 1800.80859375 3564.2890625 1559.80175781 3390.05859375 1706.80859375 c 1
 3219.96289062 1798.09472656 3029.79101562 1650.66992188 3008.33105469 1475.60644531 c 1
 3493.00390625 1255.79003906 l 1
 3604.17578125 1254.5703125 3719.4296875 1278.98339844 3832.15820312 1287.53222656 c 1
 3959.33691406 1328.49316406 4017.81835938 1277.44726562 3915.63769531 1160.13574219 c 0
 3744.91210938 959.250976562 3432.37402344 991.853515625 3216.51367188 1095.77832031 c 1
 3066.06738281 1219.83007812 2832.04492188 1048.46484375 2944.09863281 874.307617188 c 1
 3037.42089844 738.025390625 3233.28613281 590.017578125 3401.48144531 678.017578125 c 1
 3610.27832031 862.75 3680.80078125 497.637695312 3481.34082031 431.11328125 c 1
 3154.28710938 249.002929688 2745.82324219 498.579101562 2642.57421875 830.153320312 c 1
 2471.359375 639.913085938 l 1
 2481.38085938 549.681640625 2738.71972656 494.619140625 2792.15722656 360.63671875 c 1
 2890.87011719 213.810546875 2946.94042969 -72.55859375 2775.25 -181.5234375 c 1
 2558.76367188 -164.982421875 2660.73046875 139.826171875 2548.54296875 268.658203125 c 1
 2422.85058594 481.734375 2227.02246094 305.772460938 2271.2265625 115 c 1
 2221.59179688 -140.955078125 2091.53808594 -406.294921875 2198.32421875 -667.127929688 c 1
 2303.91894531 -827.654296875 2125.50683594 -772.556640625 2057.24511719 -698.459960938 c 1
 1837.83300781 -505.016601562 1886.74707031 -182.073242188 1899.10742188 78.97265625 c 1
 1962.69726562 251.86328125 1713.83007812 551.563476562 1596.10742188 311.149414062 c 1
 1516.44628906 159.9765625 1557.44628906 -32.638671875 1459.09570312 -172.518554688 c 1
 1247.48632812 -223.953125 1251.90136719 97.708984375 1292.93359375 235.947265625 c 1
 1283.61816406 458.750976562 1545.56445312 508.212890625 1596.7578125 676.661132812 c 1
 1552.55761719 749.50390625 1427.50390625 1082.6015625 1386.63378906 873.583984375 c 1
 1283.82226562 597.161132812 986.63671875 343.9765625 677.881835938 444.583984375 c 1
 475.147460938 501.624023438 579.634765625 755.51171875 768.176757812 670.491210938 c 1
 979.7734375 631.583984375 1109.68945312 862.719726562 1115.00292969 1045.30371094 c 1
 836.161132812 1068.08398438 523.095703125 952.8359375 275.913085938 1134.484375 c 1
 40.4130859375 1205.24414062 85.40625 1459.67285156 318.943359375 1483.55761719 c 1
 529.422851562 1608.51367188 773.067382812 1538.99902344 993.94140625 1491.04589844 c 1
 1256.296875 1395.55664062 1084.54882812 1772.04296875 971.268554688 1854.7109375 c 1
 872.1171875 1945.04980469 497.70703125 1965.02832031 688.166992188 2159.60058594 c 1
 914.298828125 2228.2421875 1147.81835938 2072.48535156 1278.50878906 1895.11328125 c 1
 1376.87890625 1794.96582031 1386.89746094 1610.99609375 1437.72851562 1518.63574219 c 1
 1568.63867188 1765.91113281 l 1
 1715.1796875 1921.42578125 1468.34667969 1936.51367188 1369.82324219 2030.82910156 c 1
 1156.44335938 2160.57226562 1058.36035156 2468.36132812 1228.11523438 2671.73925781 c 1
 1363.25292969 2847.72558594 1561.72558594 2667.73144531 1441.25292969 2501.734375 c 1
 1380.1796875 2285.19824219 1645.40429688 2161.09082031 1825 2164.08984375 c 1
1889.54589844 1690.75683594 m 1
 1821.47070312 1651.99609375 1754.92871094 1593.97851562 1730.88378906 1516.91699219 c 1
 1765.50195312 1270.9765625 1953.0078125 1569.43359375 1889.54589844 1690.75683594 c 1
2233.78808594 1690.75683594 m 1
 2168.74707031 1573.55078125 2237.50976562 1432.33691406 2384.39355469 1475.60644531 c 1
 2233.78808594 1690.75683594 l 1
1889.54589844 830.153320312 m 1
 1912.19042969 916.174804688 1922.27832031 1032.30273438 1845.01757812 1095.20019531 c 1
 1572.57617188 1228.68554688 1725.20605469 868.556640625 1889.54589844 830.153320312 c 1
2470.45410156 1131.36425781 m 1
 2233.78808594 1131.36425781 l 1
 2233.78808594 929.041992188 l 1
 2250.97460938 796.16796875 2477.05371094 1028.1171875 2470.45410156 1131.36425781 c 1
EndSplineSet
Validated: 33
EndChar

StartChar: uniE307
Encoding: 58119 58119 6
Width: 3672
Flags: HW
LayerCount: 2
Fore
SplineSet
120 3229 m 1
 3535.58789062 3229 l 1
 3535.58789062 2729.15625 l 1
 588.719726562 2729.15625 l 1
 564.037109375 2687.84960938 585.280273438 2600.61523438 578.188476562 2541.71582031 c 1
 3535.58789062 2541.71582031 l 1
 3530.5078125 2157.14941406 3550.12304688 1771.75878906 3515.58105469 1388.17480469 c 1
 3498.45996094 1336.59960938 3397.50585938 1360.09472656 3348.05566406 1337.46972656 c 1
 2900.10644531 1328.83203125 2450.73242188 1336.23925781 2002.23632812 1333.76367188 c 0
 1530.90625 1329.71679688 1059.74414062 1337.25292969 588.715820312 1354.29003906 c 1
 564.04296875 1313.68847656 585.278320312 1225.84570312 578.188476562 1167.15039062 c 1
 3535.58691406 1167.15039062 l 1
 3535.58691406 55.4111328125 l 1
 3524.46875 -168.728515625 3565.10253906 -392.163085938 3547.79101562 -615.55859375 c 1
 3521.42773438 -821.202148438 3177.43359375 -796.793945312 3063.74902344 -691.862304688 c 1
 3000.98730469 -481.135742188 3035.79101562 -252.717773438 3077.39941406 -40.7998046875 c 1
 2535.90429688 -40.7998046875 l 1
 2535.90429688 -748.91015625 l 1
 2077.71582031 -748.91015625 l 1
 2077.71582031 -40.7998046875 l 1
 1557.04589844 -40.7998046875 l 1
 1557.04589844 -748.91015625 l 1
 1098.85839844 -748.91015625 l 1
 1098.85839844 -40.7998046875 l 1
 578.188476562 -40.7998046875 l 1
 578.188476562 -748.91015625 l 1
 120 -748.91015625 l 1
 120 479.868164062 l 1
 3024.97558594 479.868164062 l 2
 3090.88574219 480.538085938 3055.640625 595.795898438 3077.40039062 646.482421875 c 1
 120 646.482421875 l 1
 120 1854.43457031 l 1
 3046.04003906 1854.43457031 l 1
 3070.72363281 1895.7421875 3049.48046875 1982.97558594 3056.57226562 2041.875 c 1
 120 2041.875 l 1
 120 3229 l 1
EndSplineSet
Validated: 33
EndChar

StartChar: uniE308
Encoding: 58120 58120 7
Width: 4307
Flags: HW
LayerCount: 2
Fore
SplineSet
884.22265625 941.779296875 m 1
 847.91015625 1030.3203125 815.150390625 1120.3828125 787.959960938 1212.16015625 c 0
 663.62890625 1592.34179688 679.227539062 2048.05566406 953.515625 2361.46972656 c 1
 1143.16308594 2616.92773438 1453.98242188 2716.34082031 1715.36230469 2875.14648438 c 1
 1872.39355469 3000.25390625 1954.08398438 3278.41699219 2207.15429688 3221.390625 c 1
 2464.15429688 3190.08105469 2492.45019531 2847.34082031 2745.95800781 2789.1953125 c 1
 3025.58203125 2666.39746094 3301.1015625 2497.88867188 3456.48242188 2225.50488281 c 1
 3696.38964844 1832.62597656 3599.65625 1341.515625 3430.27636719 941.779296875 c 1
 3789.53710938 774.069335938 4107.97363281 449.169921875 4180.2265625 49.1416015625 c 1
 4239.11425781 -323.858398438 3914.10253906 -741.078125 3518.07128906 -675.821289062 c 1
 3170.74902344 -648.734375 2903.24902344 -286.857421875 2983.05859375 52.181640625 c 1
 3049.78125 401.069335938 3602.01953125 441.19140625 3733.00097656 120.512695312 c 1
 3844.38378906 -48.185546875 3606.82714844 -432.598632812 3442.61425781 -199.966796875 c 1
 3585.02441406 -113.659179688 3514.46777344 220.053710938 3287.93359375 89.7412109375 c 1
 3097.27539062 -24.662109375 3259.375 -267.733398438 3383.43261719 -368.663085938 c 1
 3536.95507812 -529.931640625 3806.95605469 -444.327148438 3894.31640625 -257.391601562 c 1
 4033.7734375 -27.23046875 3888.58203125 249.6015625 3708.72460938 409.515625 c 1
 3578.88476562 517.606445312 3450.71582031 651.219726562 3320.53222656 744.240234375 c 1
 2282.09570312 -633.684570312 l 1
 2232.16894531 -677.202148438 2212.29003906 -780.987304688 2135.30078125 -770.221679688 c 1
 1885.65429688 -416.2265625 1567.96289062 -117.013671875 1314.73925781 234.203125 c 1
 1173.56933594 370.90234375 1144.8359375 728.783203125 907.2734375 687.790039062 c 1
 692.223632812 527.05078125 480.987304688 329.208007812 387.306640625 70.697265625 c 1
 288.27734375 -154.76953125 470.727539062 -449.130859375 722 -435.259765625 c 1
 927.263671875 -433.471679688 1182.71972656 -240.76953125 1096.18847656 -15.7470703125 c 1
 1016.20898438 283.234375 594.2421875 -51.4697265625 884.221679688 -177.606445312 c 1
 774.7421875 -409.708007812 491.814453125 -155.884765625 550.211914062 26.482421875 c 1
 592.184570312 344.588867188 1055.07617188 448.515625 1251.08398438 207.751953125 c 1
 1477.60839844 -87.998046875 1263.01464844 -558.58203125 917.907226562 -648.170898438 c 1
 536.21875 -795.560546875 108.342773438 -443.54296875 120.243164062 -49.8759765625 c 1
 155.836914062 390.305664062 493.8828125 763.918945312 884.22265625 941.779296875 c 1
2332.83886719 2961.06152344 m 1
 2259.30664062 3098.18164062 2065.90332031 3070.25585938 1981.65917969 2961.06152344 c 1
 2332.83886719 2961.06152344 l 1
2025.55664062 2741.57519531 m 1
 2025.55664062 2741.57421875 l 1
 1947.796875 2723.56445312 1871.54785156 2699.26953125 1797.28125 2670.07421875 c 0
 1441.70214844 2520.73242188 1066.84570312 2277.37011719 956.194335938 1885.19628906 c 1
 849.041015625 1436.57910156 1087.14257812 999.9609375 1319.77441406 632.860351562 c 1
 1543.92382812 318.8046875 1738.59667969 -24.4970703125 2025.55664062 -287.349609375 c 1
 2025.55664062 870.849609375 l 1
 2008.32910156 1117.22460938 2095.45605469 1379.02929688 1983.47851562 1610.40234375 c 1
 1863.76953125 1809.43457031 1632.56347656 2017.22265625 1383.53320312 1953.44628906 c 0
 1144.08398438 1888.75683594 1149.03613281 1548.49804688 1368.03320312 1456.13867188 c 1
 1561.18847656 1276.45117188 1714.13574219 1719.6171875 1448.13769531 1654.73730469 c 1
 1330.20507812 1462.15527344 1289.80761719 1828.93359375 1473.81835938 1805.45996094 c 1
 1715.78417969 1852.94042969 1844.19238281 1512.94726562 1672.26953125 1360.10253906 c 1
 1504.10351562 1174.94726562 1201.25 1297.31542969 1100.92382812 1494.63085938 c 1
 928.038085938 1760.6328125 1172.01269531 2130.65527344 1471.98339844 2138.51269531 c 1
 1707.78710938 2157.52246094 1876.20019531 1951.30078125 2025.55664062 1819.72753906 c 1
 2025.55664062 2741.57519531 l 1
2310.890625 -287.349609375 m 1
 2575.74609375 87.521484375 2888.25878906 428.872070312 3122.70898438 825.18359375 c 1
 3338.734375 1181.82910156 3510.32910156 1643.62988281 3298.59863281 2041.13378906 c 1
 3091.078125 2411.78027344 2688.9609375 2636.60742188 2288.94238281 2741.57421875 c 1
 2288.94238281 1842.52441406 l 1
 2346.47753906 1799.33398438 2459.64160156 2034.79394531 2562.38378906 2056.30371094 c 1
 2763.25976562 2203.52832031 3065.44140625 2143.13183594 3194.31738281 1931.23535156 c 1
 3342.42871094 1736.72363281 3257.42773438 1449.05664062 3056.12011719 1327.88671875 c 1
 2878.23144531 1180.56054688 2582.13867188 1298.96875 2564.89648438 1531.76074219 c 1
 2506.39453125 1766.12597656 2909.10839844 1936.1640625 2975.41113281 1679.39941406 c 1
 2955.92382812 1468.5859375 2865.35351562 1746.28417969 2754.63964844 1640.12402344 c 1
 2602.84277344 1417.9296875 2974.55273438 1346.92675781 3055.9453125 1548.66113281 c 1
 3221.94042969 1720.06054688 3024.8203125 2008.27246094 2806.08300781 1967.36132812 c 0
 2533.04296875 1912.86621094 2279.578125 1662.45703125 2275.63085938 1374.59863281 c 1
 2298.26367188 885.715820312 2285.79101562 395.83984375 2288.94140625 -93.5859375 c 1
 2301.97558594 -152.456054688 2261.86621094 -264.469726562 2310.890625 -287.349609375 c 1
EndSplineSet
Validated: 37
EndChar

StartChar: uniE309
Encoding: 58121 58121 8
Width: 2856
Flags: HW
LayerCount: 2
Fore
SplineSet
570.23046875 2655.08203125 m 1
 539.763671875 2632.35742188 511.52734375 2606.20117188 488.95703125 2575.46484375 c 0
 355.9140625 2400.32226562 541.975585938 2191.77539062 711.836914062 2137.12792969 c 1
 854.901367188 2060.33691406 1167.34667969 2086.92089844 1095.87890625 2315.48535156 c 0
 1029.109375 2520.14746094 993.34375 2743.71679688 1058.31542969 2954.03710938 c 1
 1096.16015625 3095.625 1230.95996094 3273.09375 1395.79101562 3219.06933594 c 1
 1600.61621094 3107.21777344 1736.69042969 2859.71191406 1676.84667969 2625.96582031 c 1
 1664.02539062 2463.74707031 1547.03613281 2257.57519531 1683.92382812 2123.32128906 c 1
 1843.55371094 2047.10742188 2034.53417969 2083.87207031 2193.73046875 2145.38183594 c 1
 2351.57910156 2189.82910156 2500.70605469 2377.97558594 2378.25097656 2530.74023438 c 1
 2264.2734375 2569.265625 2278.48730469 2675.68359375 2402.12695312 2674.81933594 c 1
 2460.98925781 2684.46875 2430.08203125 2791.59277344 2450.39746094 2843.09863281 c 1
 2518.90332031 2859.9453125 2513.18554688 2764.22753906 2543.55078125 2723.23242188 c 1
 2566.47851562 2667.4453125 2645.22070312 2751.18945312 2692.296875 2755.76855469 c 1
 2688.18164062 2593.62597656 2798.79785156 2355.29296875 2683.05761719 2186.52734375 c 1
 2584.48535156 2053.72460938 2330.14453125 1944.06542969 2433.21484375 1742.83007812 c 0
 2515.14257812 1583.78515625 2608.14257812 1422.98535156 2600.50488281 1236.859375 c 1
 2607.28320312 936.450195312 2566.06445312 599.784179688 2347.41796875 374.802734375 c 1
 2127.49609375 257.256835938 2444.21386719 310.676757812 2516.42578125 246.182617188 c 1
 2703.59375 158.594726562 2680.52636719 -82.2412109375 2639.14160156 -248.93359375 c 1
 2645.06054688 -353.681640625 2558.71679688 -499.456054688 2523.72363281 -338.040039062 c 1
 2496.22070312 -270.63671875 2479.8984375 -433.115234375 2427.7421875 -415.857421875 c 1
 2371.85742188 -419.737304688 2425.02246094 -269.985351562 2363.1796875 -300.330078125 c 0
 2185.36230469 -396.115234375 2409.59667969 -120.83984375 2333.07519531 -40.66015625 c 1
 2251.39355469 106.654296875 2055.90917969 125.899414062 1904.31054688 119.48828125 c 1
 1746.54589844 124.58984375 1587.17382812 18.107421875 1601.12597656 -154.635742188 c 1
 1609.17382812 -431.592773438 1413.81933594 -684.466796875 1155.17089844 -771 c 1
 1228.96972656 -571.232421875 1308.93359375 -358.424804688 1275.49511719 -142.090820312 c 0
 1246.20214844 62.318359375 1005.41894531 114.78125 832.961914062 122.424804688 c 1
 701.03515625 132.651367188 469.275390625 82.251953125 508.165039062 -94.9248046875 c 1
 529.83984375 -157.063476562 672.939453125 -412.106445312 524.665039062 -319.95703125 c 1
 492.309570312 -463.491210938 375.466796875 -272.684570312 348.986328125 -398.750976562 c 1
 233.071289062 -397.569335938 174.5234375 -179.934570312 161.357421875 -61.34375 c 1
 119.359375 151.337890625 356.056640625 250.455078125 528.063476562 264.55859375 c 1
 698.1640625 256.493164062 543.874023438 331.038085938 487.26953125 381.142578125 c 1
 254.852539062 620.940429688 195.548828125 978.345703125 210.336914062 1300.45605469 c 1
 205.517578125 1488.70703125 318.140625 1642.18652344 394.408203125 1804.44238281 c 1
 490.018554688 1988.53222656 242.565429688 2044.75097656 171.359375 2168.34082031 c 1
 94.357421875 2349.52734375 99.5146484375 2581.70214844 217.065429688 2744.53808594 c 1
 296.928710938 2892.68847656 315.041992188 2655.45410156 386.55859375 2774.94238281 c 1
 496.307617188 2873.23632812 483.639648438 2747.86621094 472.361328125 2700.15625 c 1
 535.072265625 2750.546875 567.6484375 2735.421875 570.23046875 2655.08203125 c 1
1113.61523438 1885.63769531 m 1
 1042.76171875 1872.09667969 1016.79785156 1795.14746094 1010.07128906 1732.40429688 c 1
 1005.25488281 1496.89941406 1010.16015625 1260.64453125 998.315429688 1024.96191406 c 1
 1000.92382812 824.5 967.369140625 619.762695312 1003.59082031 421.743164062 c 1
 1022.70898438 258.044921875 1300.58007812 276.134765625 1219.60742188 458.950195312 c 1
 1114.04980469 787.614257812 1111.5390625 1140.02832031 1154.69140625 1479.97460938 c 1
 1141.72753906 1599.7109375 1298.48535156 1863.00488281 1113.61523438 1885.63769531 c 1
1636.26464844 1863.796875 m 1
 1636.26367188 1863.796875 l 1
 1564.37988281 1871.92675781 1525.0859375 1799.09960938 1525.671875 1737.11035156 c 1
 1546.75195312 1528.76074219 1593.26464844 1322.1328125 1598.89941406 1111.66699219 c 1
 1618.53222656 888.654296875 1576.77832031 668.443359375 1550.97460938 448.540039062 c 0
 1530.22363281 239.384765625 1814.5859375 332.2890625 1778.40527344 499.735351562 c 1
 1778.34277344 831.1328125 1757.69433594 1163.03320312 1761.1328125 1494.83300781 c 1
 1749.1953125 1616.56738281 1813.1953125 1842.62792969 1636.26464844 1863.796875 c 1
1969.91015625 398.881835938 m 1
 2050.62207031 401.993164062 2116.10546875 461.030273438 2148.46289062 531.693359375 c 1
 2275.25488281 861.508789062 2292.24902344 1235.36914062 2200.94726562 1576.68652344 c 1
 2192.56640625 1685.24316406 1988.91796875 1979.20703125 1945.30664062 1752.77734375 c 1
 1987.06542969 1543.17773438 2037.46191406 1331.80078125 2034.30957031 1116.02441406 c 1
 2050.70703125 873.912109375 1982.4453125 638.833984375 1969.91015625 398.881835938 c 1
757.860351562 1824.64160156 m 1
 757.861328125 1824.640625 l 1
 690.127929688 1806.97558594 653.791992188 1740.94335938 629.538085938 1681.06640625 c 1
 517.220703125 1341.85351562 498.278320312 961.930664062 608.84765625 619.776367188 c 1
 606.712890625 478.133789062 861.0859375 330.932617188 835.331054688 555.573242188 c 1
 775.68359375 832.430664062 752.940429688 1117.84960938 777.557617188 1400.67871094 c 1
 750.309570312 1529.89160156 922.084960938 1780.3515625 757.860351562 1824.64160156 c 1
EndSplineSet
Validated: 33
EndChar

StartChar: uniE30A
Encoding: 58122 58122 9
Width: 4240
Flags: HW
LayerCount: 2
Fore
SplineSet
3720 3229 m 1
 3853.33300781 3095.66699219 3986.66699219 2962.33300781 4120 2829 c 1
 3986.66699219 2695.66699219 3853.33300781 2562.33300781 3720 2429 c 1
 3853.33300781 2295.66699219 3986.66699219 2162.33300781 4120 2029 c 1
 3986.66699219 1895.66699219 3853.33300781 1762.33300781 3720 1629 c 1
 3853.33300781 1495.66699219 3986.66699219 1362.33300781 4120 1229 c 1
 3986.66699219 1095.66699219 3853.33300781 962.333007812 3720 829 c 1
 3853.33300781 695.666992188 3986.66699219 562.333007812 4120 429 c 1
 3986.66699219 295.666992188 3853.33300781 162.333007812 3720 29 c 1
 3853.33300781 -104.333007812 3986.66699219 -237.666992188 4120 -371 c 1
 3986.66699219 -504.333007812 3853.33300781 -637.666992188 3720 -771 c 1
 3586.66699219 -637.666992188 3453.33300781 -504.333007812 3320 -371 c 1
 3186.66699219 -504.333007812 3053.33300781 -637.666992188 2920 -771 c 1
 2786.66699219 -637.666992188 2653.33300781 -504.333007812 2520 -371 c 1
 2386.66699219 -504.333007812 2253.33300781 -637.666992188 2120 -771 c 1
 1986.66699219 -637.666992188 1853.33300781 -504.333007812 1720 -371 c 1
 1586.66699219 -504.333007812 1453.33300781 -637.666992188 1320 -771 c 1
 1186.66699219 -637.666992188 1053.33300781 -504.333007812 920 -371 c 1
 786.666992188 -504.333007812 653.333007812 -637.666992188 520 -771 c 1
 386.666992188 -637.666992188 253.333007812 -504.333007812 120 -371 c 1
 253.333007812 -237.666992188 386.666992188 -104.333007812 520 29 c 1
 386.666992188 162.333007812 253.333007812 295.666992188 120 429 c 1
 253.333007812 562.333007812 386.666992188 695.666992188 520 829 c 1
 386.666992188 962.333007812 253.333007812 1095.66699219 120 1229 c 1
 253.333007812 1362.33300781 386.666992188 1495.66699219 520 1629 c 1
 386.666992188 1762.33300781 253.333007812 1895.66699219 120 2029 c 1
 253.333007812 2162.33300781 386.666992188 2295.66699219 520 2429 c 1
 386.666992188 2562.33300781 253.333007812 2695.66699219 120 2829 c 1
 253.333007812 2962.33300781 386.666992188 3095.66699219 520 3229 c 1
 653.333007812 3095.66699219 786.666992188 2962.33300781 920 2829 c 1
 1053.33300781 2962.33300781 1186.66699219 3095.66699219 1320 3229 c 1
 1453.33300781 3095.66699219 1586.66699219 2962.33300781 1720 2829 c 1
 1853.33300781 2962.33300781 1986.66699219 3095.66699219 2120 3229 c 1
 2253.33300781 3095.66699219 2386.66699219 2962.33300781 2520 2829 c 1
 2653.33300781 2962.33300781 2786.66699219 3095.66699219 2920 3229 c 1
 3053.33300781 3095.66699219 3186.66699219 2962.33300781 3320 2829 c 1
 3453.33300781 2962.33300781 3586.66699219 3095.66699219 3720 3229 c 1
2920 2429 m 1
 2653.33300781 2162.33300781 2386.66699219 1895.66699219 2120 1629 c 1
 1853.33300781 1895.66699219 1586.66699219 2162.33300781 1320 2429 c 1
 1186.66699219 2295.66699219 1053.33300781 2162.33300781 920 2029 c 1
 1186.66699219 1762.33300781 1453.33300781 1495.66699219 1720 1229 c 1
 1453.33300781 962.333007812 1186.66699219 695.666992188 920 429 c 1
 1053.33300781 295.666992188 1186.66699219 162.333007812 1320 29 c 1
 1586.66699219 295.666992188 1853.33300781 562.333007812 2120 829 c 1
 2386.66699219 562.333007812 2653.33300781 295.666992188 2920 29 c 1
 3053.33300781 162.333007812 3186.66699219 295.666992188 3320 429 c 1
 3053.33300781 695.666992188 2786.66699219 962.333007812 2520 1229 c 1
 2786.66699219 1495.66699219 3053.33300781 1762.33300781 3320 2029 c 1
 3186.66699219 2162.33300781 3053.33300781 2295.66699219 2920 2429 c 1
EndSplineSet
Validated: 524289
EndChar

StartChar: uniE30B
Encoding: 58123 58123 10
Width: 3931
Flags: HW
LayerCount: 2
Fore
SplineSet
1528.49804688 3200.50488281 m 1
 1670.44238281 3281.62792969 1823.81835938 3170.99414062 1943.94238281 3099.4453125 c 1
 2036.44726562 3197.70117188 2101.29199219 2990.96484375 2042.87402344 2886.43945312 c 0
 1959.49414062 2743.01660156 2071.98242188 2804.44042969 2151.93164062 2831.06152344 c 1
 2070.578125 2518.33496094 l 1
 2084.55273438 2437.23339844 2127.12109375 2357.48730469 2151.93164062 2276.89941406 c 1
 2058.33789062 2273.93066406 2016.25683594 2227.66992188 2093.72558594 2112.53320312 c 1
 2258.67773438 2058.93164062 2246.17285156 2530.98339844 2389.11621094 2344.12597656 c 1
 2414.04101562 2244.89941406 2456.62304688 2423.03710938 2490.14355469 2456.39941406 c 1
 2535.95019531 2548.93554688 2570.87890625 2655.29003906 2669.93066406 2527.87011719 c 1
 2769.93164062 2466.08984375 2939.36230469 2800.94042969 2951.13964844 2584.57617188 c 1
 2949.38378906 2473.06835938 3019.42382812 2614.24023438 3057.20605469 2641.88378906 c 1
 3094.37304688 2709.72558594 3153.94238281 2728.19726562 3227.60253906 2715.61132812 c 1
 3360.95214844 2556.68847656 3596.2421875 2607.81054688 3791.33203125 2600.16113281 c 1
 3763.56542969 2322.48828125 l 1
 3749.08398438 2265.8359375 3765.98925781 2174.50097656 3732.94824219 2138.35839844 c 1
 3675.83496094 2181.90429688 3638.1953125 2263.69140625 3588.55957031 2321.92382812 c 1
 3553.79980469 2405.31347656 3493.64453125 2407.359375 3497.56542969 2308.91992188 c 1
 3442.55273438 2249.50976562 3224.56347656 2435.75878906 3190.98925781 2230.71875 c 1
 3108.75 2327.64648438 2932.45800781 2409.29589844 2890.81738281 2230.71875 c 1
 2706.09472656 2299.98925781 l 1
 2710.24804688 2072.00683594 2459.48925781 2167.19238281 2348.9765625 2068.30664062 c 1
 2329.96289062 1896.77636719 2638.03808594 2018.34277344 2744.60742188 2038.2734375 c 1
 2894.01660156 2155.31933594 3047.25097656 1940.6328125 3224.38867188 1997.74316406 c 1
 3287.30957031 1933.04199219 3369.20800781 1779.87011719 3521.21191406 1814.40820312 c 1
 3670.95800781 1835.93652344 3628.06933594 1744.16015625 3666.68261719 1647.24707031 c 1
 3818.17480469 1529.80761719 3833.1171875 1318.46875 3791.33203125 1145.48242188 c 1
 3660.98925781 1286.36816406 3482.93847656 1405.09667969 3444.98046875 1607.28417969 c 1
 3203.25292969 1620.71386719 l 1
 3150.53027344 1638.13085938 3045.96972656 1600.01269531 3026.51953125 1653.078125 c 1
 3018.80078125 1752.09472656 3018.86328125 1876.87109375 2893.98828125 1764.68847656 c 1
 2782.76171875 1653.72851562 2662.80761719 1764.67285156 2615.265625 1828.94628906 c 1
 2519.44628906 1747.92089844 2422.69628906 1818.45898438 2334.28613281 1772.42089844 c 1
 2265.3203125 1508.05078125 2620.43457031 1830.25976562 2605.19628906 1649.98144531 c 1
 2679.81152344 1541.34472656 2939.90136719 1635.26074219 3038.44824219 1489.25097656 c 1
 3167.95019531 1500.70605469 3263.13964844 1391.640625 3356.20410156 1298.32421875 c 1
 3562.33398438 1260.0078125 3515.78417969 1022.49707031 3514.25097656 868.401367188 c 1
 3465.56738281 913.491210938 3424.65234375 991.491210938 3352.61914062 937.670898438 c 1
 3180.77148438 1135.95703125 l 1
 3131.78417969 1181.58105469 3095.74902344 1255.56738281 3038.92285156 1284.0234375 c 1
 2951.01074219 1230.63769531 3016.16113281 988.671875 3145.11132812 964.509765625 c 1
 3353.96386719 995.415039062 3358.42871094 694.129882812 3560.43066406 706.768554688 c 1
 3603.78320312 208.228515625 l 1
 3588.74707031 103.116210938 3540.55859375 256.94921875 3522.71875 263.182617188 c 1
 3367.59570312 150.524414062 3370.51367188 372.828125 3234.95898438 404.065429688 c 1
 3153.51953125 396.658203125 3161.56835938 516.309570312 3121.71777344 568.227539062 c 1
 2924.72558594 546.33984375 l 1
 2902.83007812 582.950195312 2935.78125 674.533203125 2934.1796875 731.484375 c 1
 2895.56542969 762.755859375 2803.98242188 752.624023438 2745.30175781 768.211914062 c 1
 2105.75195312 1214.75195312 l 1
 2074.97363281 984.791992188 2050.26074219 750.557617188 2082.95800781 519.359375 c 1
 2113.46679688 174.658203125 2373.30859375 -75.6474609375 2610.69628906 -299.186523438 c 1
 2727.30273438 -434.583007812 2947.69335938 -598.958007812 2936.99804688 -771 c 1
 2699.85546875 -576.973632812 l 1
 2662.3984375 -566.76171875 2692.88085938 -699.919921875 2683.00488281 -747.91015625 c 1
 2559.85058594 -549.435546875 l 1
 2455.94140625 -395.3671875 2316.52246094 -267.74609375 2198.11328125 -124.475585938 c 1
 2485.25 -657.731445312 l 1
 2580.23144531 -807.325195312 2310.71191406 -645.55859375 2287.53515625 -570.318359375 c 1
 2211.11328125 -446.348632812 2219.63867188 -530.708007812 2232.46679688 -617.82421875 c 1
 2234.03808594 -680.5078125 2275.47363281 -779.598632812 2173.70214844 -747.91015625 c 0
 2120.87109375 -729.88671875 2140.39355469 -623.608398438 2116.42578125 -570.377929688 c 1
 2115.625 -459.708984375 2045.58691406 -599.008789062 2006.65039062 -626.021484375 c 0
 1967.06738281 -655.202148438 1875.3671875 -803.068359375 1877.98730469 -736.137695312 c 1
 1896.56152344 -563.766601562 2063.99414062 -352.446289062 1959.78222656 -196.276367188 c 1
 1722.08886719 -312.809570312 1751.58691406 -685.370117188 1482.31933594 -771 c 1
 1643.95019531 -378.466796875 l 1
 1446.95019531 -589.538085938 l 1
 1403.52441406 -616.6171875 1317.66210938 -776.399414062 1313.98730469 -677.55859375 c 0
 1304.33789062 -397.756835938 1642.38769531 -318.9921875 1742.41308594 -93.796875 c 1
 1849.66210938 185.913085938 1846.62402344 494.970703125 1840.03515625 790.490234375 c 1
 1819.21386719 976.4140625 1823.31933594 1185.66113281 1714.07226562 1344.984375 c 1
 1503.53710938 1541.16601562 1462.58496094 1164.77246094 1589.18359375 1044.25878906 c 1
 1563.92382812 978.39453125 1342.39453125 983.286132812 1331.14453125 827.864257812 c 1
 1206.68945312 664.2734375 996.274414062 583.217773438 942.298828125 355.64453125 c 1
 905.927734375 103.696289062 693.309570312 345.165039062 586.391601562 427.809570312 c 1
 426.3984375 543.629882812 622.403320312 557.030273438 647.946289062 672.349609375 c 1
 654.737304688 745.430664062 779.685546875 689.133789062 837.114257812 706.76953125 c 0
 885.7265625 722.393554688 831.043945312 830.470703125 839.401367188 882.125976562 c 1
 829.536132812 950.61328125 954.83984375 908.73046875 1003.06152344 929.788085938 c 1
 1095.77539062 910.762695312 1100.06347656 972.489257812 1089.78710938 1047.515625 c 1
 1034.13476562 1221.45996094 1333.01757812 1083.51269531 1299.31738281 1287.41601562 c 1
 1234.08496094 1453.24902344 1417.08007812 1287.03222656 1396.21875 1409.64355469 c 0
 1390.70996094 1451.7578125 1445.5234375 1609.36914062 1375.78222656 1528.49804688 c 1
 1317.51855469 1490.87792969 1272.04492188 1409.19042969 1204.61621094 1403.15429688 c 1
 1057.17089844 1478.4453125 1040.09082031 1262.45996094 956.69140625 1269.08007812 c 1
 824.005859375 1312.53515625 791.241210938 1080.74121094 644.943359375 1063.51855469 c 1
 523.01171875 1039.93652344 236.678710938 773.303710938 273.538085938 1016.25390625 c 1
 330.915039062 1183.20214844 382.64453125 1445.77832031 585.28515625 1441.3671875 c 1
 642.888671875 1605.42578125 845.998046875 1574.49511719 951.245117188 1722.73632812 c 1
 1011.15917969 1594.1953125 1159.01855469 1722.92773438 1209.84667969 1704.29785156 c 1
 1201.14257812 1614.40234375 1292.71972656 1606.63574219 1306.08300781 1693.52832031 c 1
 1335.30859375 1755.24511719 1431.27832031 1698.19824219 1489.29296875 1708.68554688 c 1
 1656.70800781 1638.81640625 1592.19042969 1870.51757812 1466.23046875 1877.4453125 c 1
 1275.2421875 1810.82128906 1087.4140625 1844.22460938 904.853515625 1929.63476562 c 1
 798.077148438 2014.62890625 718.438476562 1813.21972656 658.772460938 1899.75976562 c 0
 615.504882812 1962.2890625 534.646484375 1895.72363281 473.301757812 1896.17382812 c 1
 358.884765625 1910.35839844 236.1796875 1964.15332031 120 1861.27832031 c 1
 171.375976562 2169.52734375 l 1
 155.575195312 2380.4140625 389.239257812 2226.91796875 503.733398438 2266.40722656 c 1
 649.827148438 2462.34375 862.728515625 2204.33691406 991.044921875 2206.74707031 c 1
 1118.75390625 2331.04785156 1143.75488281 2086.37207031 1248.40136719 2160.44335938 c 1
 1372.49804688 2223.80175781 1424.30957031 1995.90917969 1568.27636719 2000.96679688 c 1
 1784.01855469 1928.23046875 1518.82519531 2190.015625 1433.51855469 2224.66113281 c 1
 1294.82617188 2265.6953125 1231.34179688 2464.12304688 1144.3515625 2499.40136719 c 1
 1061.54785156 2490.2734375 952.486328125 2415.33398438 929.532226562 2541.18066406 c 1
 773.224609375 2603.37597656 614.96875 2681.39453125 467.114257812 2777.16113281 c 1
 418.278320312 2960.15917969 709.982421875 3011.21289062 858.883789062 2951.53710938 c 1
 1036.12402344 3052.27636719 1095.37207031 2845.91210938 1224.39648438 2788.21582031 c 1
 1294.87890625 2783.62304688 1255.55273438 2631.86230469 1316.03613281 2627.86132812 c 1
 1453.00292969 2683.19628906 1462.8046875 2423.89746094 1601.6171875 2391.52734375 c 1
 1744.6328125 2333.08691406 1707.76660156 2100.7421875 1895.81347656 2058.91308594 c 1
 1978.95703125 2154.65527344 1773.05859375 2357.87207031 1713.21972656 2484.70996094 c 1
 1921.03027344 2484.70996094 l 1
 1751.70507812 2654.03613281 l 1
 1671.24511719 2704.08398438 1730.59863281 2765.83789062 1805.58007812 2761.79199219 c 1
 1681.24023438 2948.30273438 l 1
 1623.77636719 3014.95214844 1606.81640625 3059.92382812 1713.21972656 3038.87402344 c 1
 1528.49804688 3200.50488281 l 1
1833.9453125 1824.23535156 m 1
 1709.04492188 1770.96582031 1761.6015625 1578.4765625 1875.95214844 1548.2578125 c 1
 2124.05078125 1494.38378906 2050.59863281 1929.01269531 1833.9453125 1824.23535156 c 1
2359.74414062 1514.92480469 m 1
 2359.74414062 1514.92382812 l 1
 2318.85644531 1510.8984375 2278.92871094 1498.11132812 2242.75390625 1478.74902344 c 1
 2025.03222656 1328.67382812 2398.20410156 1217 2527.48046875 1238.25195312 c 1
 2645.39941406 1237.20703125 2787.67578125 1277.08105469 2791.57226562 1119.95507812 c 1
 2807.51074219 1088.00292969 2941.03027344 1131.39160156 2913.90722656 1191.66210938 c 1
 2739.03417969 1313.50488281 2431.70117188 1270.50292969 2359.74414062 1514.92480469 c 1
EndSplineSet
Validated: 33
EndChar

StartChar: uniE30C
Encoding: 58124 58124 11
Width: 3742
Flags: HW
LayerCount: 2
Fore
SplineSet
870.780273438 -741.403320312 m 1
 422.625976562 -620.075195312 125.146484375 -154.298828125 136.53125 299.510742188 c 1
 116.021484375 985.245117188 108.459960938 1672.85449219 150.526367188 2357.83691406 c 1
 203.166992188 2706.02832031 435.475585938 3021.94140625 764.104492188 3156.77734375 c 1
 956.6171875 3255.75 1179.56152344 3204.52050781 1387.55566406 3216.71777344 c 1
 1560.37695312 3142.328125 1723.53710938 3010.09863281 1919.55566406 3021.34179688 c 1
 2149.45605469 3079.46289062 2354.67675781 3237.10449219 2601.89355469 3227.42285156 c 1
 2992.10742188 3251.57714844 3355.1484375 2995.56835938 3514.60449219 2647.48339844 c 1
 3656.796875 2372.49804688 3607.94140625 2049.76171875 3622.60644531 1751.64355469 c 1
 3621.60644531 1179.10351562 3616.66796875 606.577148438 3613.73339844 34.044921875 c 1
 3506.87109375 -250.39453125 3340.21484375 -532.578125 3053.96679688 -665.752929688 c 1
 2775.69238281 -804.515625 2433.95117188 -807.350585938 2160.51855469 -654.26953125 c 1
 1965.5859375 -506.876953125 1739.07324219 -548.919921875 1550.02636719 -680.186523438 c 1
 1341.36816406 -784.177734375 1094.98828125 -790.372070312 870.780273438 -741.403320312 c 1
1341.27734375 -275.618164062 m 1
 1512.86914062 -173.309570312 1700.8671875 13.5341796875 1648.11425781 232.74609375 c 1
 1609.53125 444.31640625 1444.55761719 590.024414062 1313.56738281 746.107421875 c 1
 1355.80664062 912.819335938 1586.56640625 1003.77246094 1615.27636719 1192.93359375 c 1
 1625.19042969 1408.80078125 1408.19140625 1528.70703125 1306.29785156 1693.58105469 c 1
 1446.86035156 1883.68359375 1670.75488281 2057.30664062 1654.33886719 2319.87109375 c 1
 1619.44824219 2684.23144531 1148.96484375 2903.64941406 848.743164062 2691.06445312 c 1
 655.041015625 2568.9765625 582.1484375 2335.7578125 587.711914062 2117.234375 c 1
 572.244140625 1464.75585938 572.470703125 811.379882812 593.958984375 159.04296875 c 1
 639.891601562 -113.337890625 902.834960938 -368.443359375 1193.12207031 -311.265625 c 1
 1243.61914062 -305.513671875 1294.51757812 -296.251953125 1341.27734375 -275.618164062 c 1
2840.80078125 -275.131835938 m 0
 3085.078125 -162.461914062 3185.23632812 123.084960938 3172.6015625 376.8125 c 1
 3176.35644531 982.58984375 3187.59179688 1589.11132812 3162.48242188 2194.50585938 c 1
 3170.60546875 2456.40722656 2986.56054688 2712.84570312 2729.10742188 2772.33984375 c 0
 2386.80175781 2851.29199219 1995.06738281 2488.67675781 2128.30078125 2140.63378906 c 0
 2198.7578125 1961.41015625 2341.35351562 1827.04199219 2466.5390625 1685.50390625 c 1
 2326.42382812 1548.72070312 2139.74902344 1409.87304688 2133.796875 1198.9375 c 1
 2181.38769531 1023.52832031 2348.03222656 920.60546875 2442.96679688 780.55859375 c 1
 2332.40527344 578.25 2101.51855469 425.74609375 2098.3125 173.426757812 c 1
 2106.74902344 -126.283203125 2418.90332031 -370.235351562 2713.0390625 -310.138671875 c 0
 2756.84667969 -304.03125 2800.4765625 -293.666992188 2840.80078125 -275.131835938 c 0
1995.58105469 566.71875 m 1
 2158.46289062 727.153320312 2030.78808594 926.755859375 1908.25488281 1064.90820312 c 1
 1782.84179688 1094.74707031 1652.72753906 820.739257812 1685.02246094 692.897460938 c 1
 1745.60449219 568.146484375 1878.32226562 274.728515625 1977.58496094 537.83984375 c 1
 1995.58105469 566.71875 l 1
1924.78613281 1403.73144531 m 1
 2040.35644531 1541.40625 2141.56738281 1735.53808594 1990.12207031 1889.2421875 c 1
 1939.14941406 2045.79394531 1807.53710938 2071.98828125 1754.8359375 1900.87695312 c 1
 1599.28320312 1729.32714844 1717.2578125 1514.37011719 1853.31933594 1375.32324219 c 1
 1878.59960938 1340.92675781 1908.5 1393.42578125 1924.78613281 1403.73144531 c 1
EndSplineSet
Validated: 33
EndChar

StartChar: uniE30D
Encoding: 58125 58125 12
Width: 4451
Flags: HW
LayerCount: 2
Fore
SplineSet
849.237304688 1261.35546875 m 1
 849.236328125 1261.35351562 l 1
 804.545898438 1268.04589844 760.430664062 1278.67382812 717.645507812 1293.22070312 c 0
 208.453125 1475.27441406 -6.57421875 2133.7421875 194.958007812 2613.06445312 c 1
 394.709960938 3107.55273438 1004.47949219 3336.40332031 1498.27246094 3180.66210938 c 1
 1797.97167969 3102.66503906 2033.82128906 2871.68261719 2153.66796875 2590.27246094 c 1
 2236.46484375 2320.81347656 2264.4140625 2696.20605469 2363.28027344 2773.90136719 c 1
 2708.97753906 3291.74023438 3514.64746094 3354.57617188 3967.69726562 2945.33691406 c 1
 4405.84765625 2579.65820312 4385.60839844 1854.29003906 3992.99804688 1464.78515625 c 1
 3881.70507812 1338.95019531 3702.92871094 1275.37207031 3562.70507812 1226.58398438 c 1
 3700.25878906 1163.88671875 3876.91113281 1101.20410156 3997.17480469 984.32421875 c 1
 4315.42675781 731.712890625 4424.32421875 264.232421875 4247.33984375 -102.428710938 c 1
 4041.12988281 -597.606445312 3441.90527344 -898.213867188 2927.3828125 -718.54296875 c 1
 2585.97558594 -623.1953125 2444.71777344 -272.119140625 2217.56640625 -37.3984375 c 1
 2178.20507812 -258.748046875 2018.83105469 -440.309570312 1832.25488281 -556.049804688 c 1
 1482.32324219 -787.202148438 1004.73144531 -788.469726562 656.419921875 -554.599609375 c 1
 273.640625 -324.23046875 77.451171875 174.370117188 227.5703125 599.940429688 c 1
 314.846679688 914.456054688 636.126953125 1048.046875 849.237304688 1261.35546875 c 1
2171.1796875 2119.45800781 m 1
 2136.44726562 2083.54785156 2105.37109375 2044.25585938 2071.65917969 2007.38964844 c 1
 1996.88476562 1832.94335938 1674.75878906 1779.81152344 1753.82910156 2041.13964844 c 1
 1864.85449219 2304.74316406 1720.04296875 2618.14941406 1472.99316406 2744.24804688 c 1
 1181.36621094 2912.10742188 779.456054688 2782.80078125 631.540039062 2483.08691406 c 1
 478.059570312 2226.57324219 563.088867188 1864.0078125 826.389648438 1714.98046875 c 1
 1062.54589844 1545.63867188 1396.3359375 1746.63476562 1614.57519531 1539.66308594 c 1
 1452.68457031 1377.77734375 l 1
 1410.26464844 1321.8046875 1328.66699219 1282.06152344 1313.07714844 1214.97460938 c 1
 1601.52539062 945.755859375 l 1
 1701.73730469 898.26171875 1619.20898438 847.620117188 1568.18945312 797.51953125 c 1
 1394.50390625 862.10546875 1200.22460938 895.739257812 1019.15136719 840.950195312 c 1
 676.213867188 748.590820312 512.526367188 312.046875 688.635742188 8.9677734375 c 1
 882.03125 -378.26953125 1483.6640625 -404.100585938 1735.78613281 -65.240234375 c 1
 1908.31835938 117.537109375 1800.61425781 361.900390625 1816.19824219 577.73828125 c 1
 1924.23339844 787.638671875 2118.80273438 467.705078125 2229.15039062 403.256835938 c 1
 2337.57910156 474.1015625 2412.25585938 617.70703125 2552.71972656 646.584960938 c 1
 2815.09082031 628.807617188 2654.0390625 294.428710938 2666.81542969 131.24609375 c 1
 2730.48535156 -288.475585938 3293.05273438 -475.473632812 3629.0625 -246.646484375 c 1
 3954.45800781 -50.482421875 3970.19628906 460.717773438 3676.83496094 692.243164062 c 1
 3502.36230469 866.708984375 3255.07324219 800.50390625 3040.81054688 778.03125 c 1
 2788.20898438 742.526367188 2802.85742188 1029.38867188 2967.46875 1129.95898438 c 1
 3000.61035156 1188.73144531 3153.60449219 1248.46582031 3066.48242188 1313.43359375 c 1
 2912.19921875 1375.06347656 2742.49121094 1689.67285156 3038.68164062 1637.61816406 c 1
 3344.30566406 1541.49023438 3728.83007812 1686.95703125 3828.96191406 2007.15136719 c 1
 3955.00585938 2309.01367188 3739.84277344 2649.13671875 3446.1328125 2746.140625 c 1
 3159.60742188 2869.48828125 2791.03320312 2740.56835938 2670.95703125 2445.3984375 c 1
 2571.01367188 2244.21386719 2689.47949219 1962.71972656 2530.67675781 1794.76953125 c 1
 2458.18457031 1839.73925781 2400.76855469 1921.109375 2333.984375 1979.85058594 c 1
 2278.01171875 2022.26953125 2238.26757812 2103.87207031 2171.1796875 2119.45800781 c 1
EndSplineSet
Validated: 37
EndChar

StartChar: uniE30E
Encoding: 58126 58126 13
Width: 2182
Flags: HW
LayerCount: 2
Fore
SplineSet
461.181640625 3229 m 1
 461.180664062 3229 l 1
 530.495117188 3228.98632812 599.155273438 3215.36035156 665.194335938 3195.00390625 c 0
 1057.70410156 3049.14648438 1436.12402344 2830.89355469 1705.75390625 2504.36230469 c 1
 2023.24609375 2131.75 2163.71582031 1585.41113281 1982.54394531 1120.17480469 c 0
 1884.00585938 872.426757812 1625.25585938 765.41796875 1401.81445312 659.231445312 c 1
 1556.42675781 621.368164062 1774.31542969 660.436523438 1861.90234375 493.750976562 c 1
 1922.76855469 302.825195312 1692.88867188 213.508789062 1544.2578125 193.829101562 c 1
 1327.96972656 180.109375 1607.48046875 158.185546875 1675.35546875 126.72265625 c 1
 1843.14746094 106.951171875 1970.24316406 -131.001953125 1775.72070312 -217.907226562 c 1
 1667.40722656 -283.842773438 1516.42773438 -281.737304688 1411.51074219 -310.493164062 c 1
 1582.22851562 -327.907226562 1792.96972656 -353.572265625 1896.51269531 -507.069335938 c 1
 1977.36132812 -661.248046875 1811.57421875 -786.293945312 1665.59179688 -767.829101562 c 1
 1340.25 -767.659179688 1014.56933594 -765.733398438 689.05859375 -766.935546875 c 1
 519.172851562 -785.236328125 253.24609375 -747.659179688 248.34765625 -531.482421875 c 1
 290.428710938 -358.073242188 498.322265625 -320.803710938 650.5234375 -311.725585938 c 1
 660.5703125 -285.263671875 406.668945312 -260.060546875 346.8671875 -173.935546875 c 1
 192.588867188 -16.9306640625 437.296875 137.678710938 577.791015625 173.46875 c 1
 793.896484375 238.174804688 466.044921875 220.548828125 406.67578125 301.903320312 c 1
 220.845703125 454.833984375 472.35546875 669.130859375 645.428710938 659.231445312 c 1
 533.133789062 712.43359375 374.275390625 731.487304688 260.012695312 808.909179688 c 1
 117.259765625 867.682617188 62.6796875 1072.49707031 196.8203125 1170.74316406 c 1
 413.166015625 1308.109375 682.668945312 1231.9453125 922.42578125 1271.99707031 c 1
 1178.484375 1295.68457031 1366.93847656 1542.671875 1359.02148438 1792.82910156 c 0
 1350.79785156 2161.47265625 1147.90332031 2499.90917969 899.594726562 2760.73242188 c 1
 763.83203125 2925.55566406 534.635742188 3017.29980469 461.181640625 3229 c 1
EndSplineSet
Validated: 37
EndChar

StartChar: uniE30F
Encoding: 58127 58127 14
Width: 4717
Flags: HW
LayerCount: 2
Fore
SplineSet
3682.74804688 -708.940429688 m 1
 3597.42871094 -593.61328125 3541.75585938 -460.595703125 3478.93066406 -332.513671875 c 1
 3287.68066406 -331.024414062 3080.83984375 -221.974609375 3052.76953125 -15.8671875 c 1
 2987.69628906 120.869140625 3159.6953125 249.749023438 3094.91503906 363.33984375 c 1
 3023.97949219 472.249023438 2982.05273438 606.946289062 2880.02441406 689.995117188 c 1
 2636.55761719 720.028320312 2347.53613281 918.821289062 2413.12304688 1197.6171875 c 1
 2398.49609375 1303.375 2551.52441406 1401.24511719 2464.90039062 1494.58496094 c 1
 2405.01660156 1566.86328125 2346.05566406 1825.88671875 2253.22167969 1685.04589844 c 1
 2231.6640625 1602.28808594 2108.87109375 1520.25488281 2185.29003906 1435.72949219 c 1
 2288.15722656 1278.32617188 2315.61914062 1060.60351562 2185.04101562 908.6328125 c 1
 2046.44921875 710.978515625 1725.63085938 778.833984375 1688.90136719 495.25 c 1
 1566.51171875 292.416015625 1927.25683594 149.3125 1798.54589844 -72.283203125 c 1
 1767.03613281 -275.088867188 1587.10546875 -371.858398438 1396.53515625 -379.015625 c 1
 1202.31835938 -401.159179688 1266.32421875 -841.774414062 1011.11328125 -740.323242188 c 1
 964.7421875 -550.723632812 1186.80078125 -344.41015625 1073.46191406 -164.287109375 c 1
 952.5703125 59.34375 1095.921875 322.286132812 1323.09179688 401.830078125 c 1
 1447.04882812 495.41796875 1485.30566406 653.829101562 1547.88671875 788.9609375 c 1
 1468.00488281 940.614257812 1349.74804688 1100.78710938 1417.14453125 1280.66796875 c 1
 1445.29199219 1516.34472656 1698.26269531 1610.02929688 1907.13378906 1610.40625 c 1
 1952.79589844 1733.50292969 2035.13867188 1849.46289062 2039.16699219 1982.8984375 c 1
 1925.18554688 2165.60058594 1670.08007812 2173.69238281 1478.84179688 2220.55175781 c 1
 1233.78222656 2261.5390625 958.2421875 2276.30664062 751.0390625 2113.45605469 c 1
 498.76171875 1946.26953125 317.805664062 1697.04101562 158.595703125 1445.03613281 c 1
 71.0380859375 1558.41308594 156.97265625 1837.6328125 177.461914062 2006.95703125 c 1
 260.676757812 2239.25976562 340.666992188 2481.71679688 503.499023438 2672.72070312 c 1
 696.025390625 2911.27636719 939.646484375 3155.04199219 1264.71875 3174.06640625 c 0
 1596.54101562 3192.46972656 1839.74511719 2920.78320312 2059.87792969 2710.37304688 c 0
 2151.16796875 2620.44628906 2234.86425781 2523.34765625 2314.80859375 2423.3125 c 1
 2460.46679688 2742.375 2668.14160156 3071.18457031 3005.81347656 3207.859375 c 1
 3336.44238281 3294.69824219 3665.14746094 3099.35742188 3907.28515625 2888.83984375 c 1
 4275.60546875 2547.61328125 4545.546875 2077.71972656 4591.43652344 1572.57226562 c 1
 4626.01953125 1391.07324219 4512.12890625 1503.53417969 4452.80078125 1591.1953125 c 1
 4328.64355469 1818.80273438 4157.64257812 2038.14257812 3902.38671875 2124.4375 c 0
 3618.15429688 2217.54492188 3309.82519531 2214.98339844 3014.87597656 2190.39648438 c 1
 2869.45410156 2143.46582031 2527.74023438 2114.60253906 2613.00878906 1894.28515625 c 1
 2673.85449219 1706.02246094 2773.59472656 1536.20410156 2994.34179688 1552.88183594 c 1
 3245.48730469 1468.69238281 3357.22070312 1149.79003906 3220.19042969 924.958007812 c 1
 3087.46289062 761.366210938 3275.78222656 562.958984375 3387.796875 451.995117188 c 1
 3619.34179688 511.961914062 3826.10449219 290.822265625 3838.01171875 71.986328125 c 1
 3820.25390625 -123.818359375 3601.4609375 -281.133789062 3789.08007812 -468.142578125 c 0
 3893.359375 -573.8984375 3889.00585938 -907.958007812 3682.74902344 -708.940429688 c 1
 3682.74804688 -708.940429688 l 1
1525.40722656 -137.590820312 m 1
 1771.70996094 30.466796875 1394.4375 383.817382812 1257.52832031 103.939453125 c 1
 1161.14746094 -53.5576171875 1368.60546875 -264.859375 1525.40722656 -137.590820312 c 1
3551.00878906 -84.7880859375 m 1
 3770.01464844 85.3056640625 3433.74902344 414.453125 3282.47753906 164.086914062 c 1
 3147.90332031 9.5703125 3401.87597656 -211.799804688 3551.00878906 -84.7880859375 c 1
1065.98632812 2484.34082031 m 1
 1251.37597656 2644.359375 904.940429688 2895.27246094 809.600585938 2660.35644531 c 1
 729.153320312 2522.43066406 955.961914062 2338.09375 1065.98632812 2484.34082031 c 1
2988.86425781 2472.484375 m 1
 3173.76757812 2600.44335938 2882.82617188 2887.36425781 2769.1484375 2687.95605469 c 1
 2616.09082031 2560.21875 2870.74902344 2340.48925781 2988.86425781 2472.484375 c 1
1804.98535156 2513.171875 m 1
 2040.18359375 2753.87597656 1480.01367188 2934.82519531 1559.52148438 2587.25195312 c 1
 1588.34765625 2479.78515625 1723.3046875 2416.58203125 1804.98535156 2513.171875 c 1
3745.046875 2526.91308594 m 0
 3952.140625 2758.93554688 3440.05957031 2918.26660156 3487.5625 2603.55078125 c 0
 3504.61328125 2486.29296875 3666.31933594 2441.87011719 3745.046875 2526.91308594 c 0
1403.53808594 2644.18847656 m 1
 1618.72949219 2738.70117188 1365.71289062 3078.70996094 1220.22070312 2889.35058594 c 1
 1058.16894531 2795.00488281 1271.984375 2522.23144531 1403.53808594 2644.18847656 c 1
3340.08007812 2652.40332031 m 1
 3568.12792969 2789.02050781 3216.80273438 3106.68261719 3108.42675781 2839.68847656 c 1
 3031.13574219 2705.02929688 3223.89746094 2575.70019531 3340.08007812 2652.40332031 c 1
EndSplineSet
Validated: 33
EndChar

StartChar: uniE310
Encoding: 58128 58128 15
Width: 2850
Flags: HW
LayerCount: 2
Fore
SplineSet
1551.06542969 3229 m 1
 2233.29589844 3219.30957031 2760.140625 2519.90039062 2713.51074219 1866.00292969 c 1
 2711.70507812 1627.99511719 2563.609375 1432.92871094 2417.14160156 1259.91503906 c 1
 2241.14355469 1126.96679688 2513.89355469 1096.66992188 2571.19433594 972.697265625 c 1
 2808.09960938 653.96484375 2753.49804688 205.216796875 2582.37402344 -130.703125 c 0
 2404.72558594 -488.162109375 2014.69921875 -665.10546875 1644.15234375 -750.419921875 c 1
 1496.05371094 -819.688476562 1592.13574219 -696.541992188 1651.73828125 -639.81640625 c 1
 1908.03417969 -419.998046875 2140.19921875 -145.015625 2213.49609375 192.982421875 c 1
 2290.60546875 479.73046875 2147.19921875 811.032226562 1868.29394531 926.326171875 c 1
 1592.51953125 1058.59082031 1201.92480469 945.3359375 1085.28515625 651.858398438 c 1
 994.158203125 377.456054688 1317.82910156 92.5029296875 1579.8515625 207.969726562 c 1
 1682.72167969 270.817382812 1688.12890625 208.021484375 1630.38378906 122.19140625 c 0
 1449.87109375 -154.64453125 1008.42285156 -191.54296875 763.796875 19.1953125 c 1
 507.056640625 259.095703125 561.87109375 676.850585938 739.817382812 946.823242188 c 1
 861.99609375 1061.640625 732.336914062 1012.74414062 640.6015625 1019.31933594 c 0
 460.200195312 1033.22167969 242.809570312 1045.76367188 120 1196.47363281 c 1
 755.67578125 1335.52734375 l 1
 770.91796875 1424.88574219 606.122070312 1613.84179688 607.0390625 1759.20117188 c 1
 538.46484375 2025.77246094 651.880859375 2355.95800781 929.55859375 2448.01367188 c 1
 1209.02929688 2549.34667969 1611.53710938 2429.89355469 1675.50585938 2109.03710938 c 1
 1466.73925781 2224.49707031 1166.64941406 2127.14257812 1083.48925781 1898.75292969 c 0
 1004.6328125 1685.82910156 1194.07714844 1495.57421875 1375.14257812 1418.9609375 c 1
 1640.10546875 1287.63085938 1972.52832031 1424.89257812 2108.23535156 1677.31054688 c 1
 2306.74511719 2019.82910156 2181.33691406 2453.81640625 1963.48730469 2755.75 c 1
 1853.11230469 2937.13085938 1665.71679688 3052.3515625 1551.06542969 3229 c 1
804.421875 1341.65429688 m 1
 783.829101562 1321.05957031 769.986328125 1307.21777344 804.421875 1341.65429688 c 1
EndSplineSet
Validated: 33
EndChar

StartChar: uniE311
Encoding: 58129 58129 16
Width: 4248
Flags: HW
LayerCount: 2
Fore
SplineSet
404.728515625 1764.96289062 m 1
 118.537109375 1912.41503906 78.921875 2289.71386719 151.846679688 2570.42675781 c 1
 238.16015625 2975.20507812 679.475585938 3229.02832031 1076.05957031 3152.55664062 c 1
 1260.28125 3147.88183594 1579.40917969 2976.27539062 1359.53125 2782.8515625 c 1
 1264.05664062 2656.18457031 1008.88085938 2542.35058594 1094.703125 2355.99511719 c 1
 1254.63183594 2193.74121094 1397.17382812 2003.65234375 1599.15722656 1890.83789062 c 1
 1875.44824219 1796.88476562 2180.16796875 1821.04492188 2464.16503906 1866.15527344 c 1
 2645.85058594 1883.99023438 2758.859375 2034.1484375 2864.765625 2164.56640625 c 1
 2971.38769531 2278.53613281 3227.84570312 2425.75585938 3065.60351562 2598.31640625 c 1
 2960.74511719 2737.76757812 2645.52246094 2825.27539062 2749.86035156 3038.66894531 c 1
 2977.58300781 3244.34179688 3345.47851562 3288.31738281 3617.76660156 3146.14746094 c 0
 3968.95800781 2962.63378906 4153.02929688 2523.29492188 4034.83007812 2144.58789062 c 1
 4020.13574219 1906.26367188 3750.58886719 1810.1171875 3610.91308594 2022.75976562 c 1
 3499.12792969 2093.7265625 3375.54589844 2339.25390625 3275.328125 2288.91699219 c 1
 3144.47265625 2053.29882812 2799.96875 1936.29882812 2806.11523438 1632.16503906 c 1
 2837.71289062 1444.953125 2826.35351562 1256.06542969 2810.60546875 1067.97363281 c 1
 2785.4296875 862.698242188 2843.83496094 647.356445312 3013.21972656 515.946289062 c 1
 3144.04589844 408.8203125 3267.90429688 266.181640625 3394.09082031 172.272460938 c 1
 3513.59570312 333.650390625 3629.59375 508.192382812 3801.01269531 619.114257812 c 1
 4010.57324219 704.6796875 4079.29101562 410.387695312 4107.07714844 259.793945312 c 1
 4177.95117188 -7.529296875 4070.64257812 -290.40625 3874.24121094 -476.356445312 c 1
 3638.921875 -719.537109375 3224.92578125 -867.749023438 2925.33496094 -651.529296875 c 1
 2679.03125 -535.71484375 2853.1796875 -305.356445312 3015.02832031 -208.7890625 c 1
 3190.57128906 -116.110351562 3235.41796875 114.140625 3038.15136719 211.352539062 c 1
 2867.15527344 309.763671875 2780.79492188 533.662109375 2576.63476562 572.516601562 c 1
 2347.51171875 550.400390625 2119.08300781 590.163085938 1889.72265625 586.752929688 c 1
 1662.03417969 599.627929688 1484.046875 437.360351562 1352.86230469 270.543945312 c 1
 1274.78125 151.953125 1138.57226562 58.66015625 1066.31152344 -48.25390625 c 1
 1446.484375 -392.21875 l 1
 1485.90429688 -443.302734375 1571.56835938 -473.864257812 1580.87402344 -538.313476562 c 1
 1251.12695312 -852.821289062 654.71875 -858.4609375 358.948242188 -494.205078125 c 1
 135.827148438 -232.071289062 131.161132812 160.452148438 301.798828125 450.869140625 c 1
 359.9765625 699.25390625 527.126953125 474.052734375 625.091796875 369.045898438 c 1
 740.065429688 210.739257812 972.057617188 84.3525390625 1115.25 289.140625 c 1
 1266.58398438 444.918945312 1457.36035156 632.73828125 1406.31347656 871.502929688 c 0
 1337.96679688 1197.78027344 1472.90234375 1565.83398438 1273.27636719 1860.11035156 c 1
 1148.29199219 1985.02539062 1038.74316406 2200.27148438 841.551757812 2200.71679688 c 1
 647.901367188 2116.59765625 529.337890625 1926.26464844 404.728515625 1764.96289062 c 1
EndSplineSet
Validated: 33
EndChar

StartChar: uniE312
Encoding: 58130 58130 17
Width: 3961
Flags: HW
LayerCount: 2
Fore
SplineSet
1944.64746094 -771 m 1
 1873.84667969 -611.888671875 1789.85839844 -458.807617188 1696.11230469 -312.094726562 c 0
 1335.68261719 266.708984375 809.995117188 716.801757812 428.28515625 1279.17675781 c 0
 190.775390625 1622.3671875 66.103515625 2050.75390625 142.338867188 2466.75683594 c 1
 184.3125 2797.49511719 429.1484375 3087.86914062 752.499023438 3174.49121094 c 1
 1139.75585938 3293.46777344 1640.83398438 3228.53808594 1882.77636719 2871.56054688 c 1
 1927.87304688 2724.70996094 1982.70996094 2766.12402344 2064.08789062 2873.20117188 c 1
 2336.55273438 3181.57519531 2803.5859375 3297.80078125 3185.7890625 3142.44140625 c 0
 3722.60742188 2924.98339844 3951.84667969 2257.00097656 3791.55664062 1724.72363281 c 0
 3611.73242188 1138.5390625 3116.25097656 738.549804688 2712.42675781 306.27734375 c 1
 2388.69433594 -2.203125 2220.91992188 -426.278320312 1944.64746094 -771 c 1
1944.64746094 1957.37402344 m 1
 1944.64746094 1957.375 l 1
 1890.0390625 2149.41894531 1852.92480469 2348.95800781 1762.76660156 2528.82519531 c 1
 1614.40625 2870.07226562 1191.25390625 3014.51953125 847.744140625 2910.61816406 c 1
 505.67578125 2825.09179688 351.162109375 2434.83300781 392.984375 2111.671875 c 1
 467.78125 1589.49511719 840.319335938 1180.86425781 1173.89941406 798.088867188 c 1
 1434.23828125 519.577148438 1669.13867188 217.399414062 1919.09277344 -68.9453125 c 1
 2075.2734375 -112.813476562 2164.95898438 99.4658203125 2261.953125 195.002929688 c 1
 2597.66113281 701.95703125 3139.76757812 1041.00585938 3425.33398438 1584.83789062 c 1
 3637.20605469 1954.9140625 3586.55371094 2465.37304688 3265.87402344 2757.7109375 c 1
 3047.76953125 2976.13769531 2683.13085938 2994.1015625 2434.35449219 2817.08007812 c 1
 2129.54785156 2633.30078125 2074.98144531 2258.06054688 1944.64746094 1957.37402344 c 1
EndSplineSet
Validated: 33
EndChar

StartChar: uniE313
Encoding: 58131 58131 18
Width: 4522
Flags: HW
LayerCount: 2
Fore
SplineSet
2748.74316406 -719.126953125 m 1
 2586.04882812 -521.247070312 2622.92578125 -248.827148438 2559.24316406 -14.359375 c 0
 2510.94335938 172.342773438 2516.38085938 371.6640625 2451.20800781 552.969726562 c 1
 2291.13378906 808.538085938 2010.50097656 508.232421875 1955.1015625 316.465820312 c 1
 1877.47753906 93.2822265625 1778.95410156 -125.282226562 1705.97851562 -352.17578125 c 1
 1651.76367188 -549.44921875 1530.35058594 -838.341796875 1283.95800781 -664.719726562 c 1
 1126.87792969 -567.89453125 945.571289062 -476.828125 857.70703125 -303.822265625 c 1
 817.212890625 -97.9951171875 1023.45996094 5.4580078125 1125.2109375 141.392578125 c 1
 1268.45605469 262.73828125 1409.6484375 387.747070312 1547.09082031 516.14453125 c 1
 1663.65625 612.041992188 1911.48144531 801.163085938 1714.68652344 942.224609375 c 1
 1514.32421875 1007.68457031 1324.59179688 886.01953125 1141.04101562 824.485351562 c 1
 974.916992188 737.87890625 792.499023438 696.838867188 624.524414062 614.323242188 c 1
 443.330078125 566.326171875 171.462890625 471.727539062 161.923828125 760.544921875 c 1
 115.397460938 979.455078125 92.7109375 1215.71679688 174.361328125 1429.24707031 c 1
 549.620117188 1434.71289062 926.374023438 1425.16113281 1294.35058594 1342.76660156 c 1
 1422.38085938 1283.95898438 1800.18457031 1302.57128906 1633.60644531 1509.19628906 c 1
 1359.70117188 1689.90527344 1055.37792969 1818.38964844 771.903320312 1983.125 c 1
 616.036132812 2087.64160156 432.032226562 2167.15039062 326.868164062 2329.45507812 c 1
 418.482421875 2541.53125 595.525390625 2712.84375 779.049804688 2849.70507812 c 1
 976.754882812 2987.89453125 1107.25585938 2678.02148438 1216.65722656 2555.44433594 c 1
 1350.96191406 2429.30371094 1427.80664062 2253.40429688 1551.02441406 2117.41796875 c 1
 1689.29394531 1975.90722656 1750.04785156 1713.72753906 1954.984375 1663.40332031 c 1
 2159.59472656 1690.12597656 2057.26757812 1968.13671875 2027.31933594 2109.08886719 c 1
 1960.859375 2309.76367188 1905.66601562 2512.87597656 1868.06445312 2721.02441406 c 1
 1781.07910156 2919.17285156 1756.37695312 3236.81640625 2061.27441406 3213.91503906 c 1
 2252.50976562 3246.76464844 2447.42871094 3222.77246094 2633.296875 3172.72070312 c 1
 2629.27148438 2860.93457031 2615.95019531 2547.55957031 2536.63085938 2244.33203125 c 1
 2530.86035156 2076.23632812 2386.35253906 1760.91894531 2620.44140625 1700.47167969 c 1
 2817.73730469 1758.45019531 2958.546875 1953.17675781 3089.89941406 2104.35839844 c 1
 3241.12402344 2211.90332031 3340.29199219 2382.44628906 3483.76855469 2506.12792969 c 1
 3588.671875 2653.30761719 3836.09667969 2823.64160156 3942.33007812 2600.0234375 c 1
 4063.71289062 2466.2265625 4242.71386719 2245.40039062 4157.390625 2056.79492188 c 1
 3995.30371094 1940.31445312 3818.78808594 1824.88476562 3637.95410156 1722.88769531 c 1
 3451.80175781 1632.1328125 3273.21875 1520.17480469 3090.33398438 1429.24804688 c 1
 2882.02148438 1384.60351562 2800.52832031 1069.36621094 3087.99121094 1095.83105469 c 1
 3488.50488281 1058.91113281 3895.65136719 1090.66113281 4292.51074219 1020.35058594 c 1
 4482.06738281 932.782226562 4376.18359375 670.942382812 4340.51074219 514.19140625 c 1
 4293.17480469 329.377929688 4151.63476562 100.305664062 3945.72851562 258.470703125 c 1
 3809.43261719 339.275390625 3650.15234375 405.741210938 3513.88378906 492.625976562 c 1
 3354.33691406 601.701171875 3178.94042969 698.702148438 3011.48828125 797.178710938 c 0
 2803.78222656 920.127929688 2707.97070312 628.952148438 2867.97070312 509.353515625 c 1
 2959.38964844 345.317382812 3074.36816406 200.95703125 3199.66210938 55.8369140625 c 1
 3314.203125 -87.7060546875 3424.83007812 -235.8984375 3507.99511719 -400.220703125 c 1
 3449.83789062 -541.254882812 3311.73535156 -605.005859375 3184.02734375 -669.845703125 c 1
 3047.05078125 -698.140625 2876.640625 -848.708007812 2748.74316406 -719.126953125 c 1
2394.45019531 905.483398438 m 1
 2590.82128906 982.802734375 2682.37304688 1277.57519531 2494.37988281 1409.81347656 c 1
 2340.49804688 1575.26660156 2085.27539062 1510.16308594 1957.88964844 1349.56933594 c 1
 1835.81542969 1153.46484375 2002.66210938 895.775390625 2213.36328125 869.791992188 c 1
 2275.32714844 866.446289062 2338.734375 877.671875 2394.45019531 905.483398438 c 1
EndSplineSet
Validated: 33
EndChar

StartChar: uniE314
Encoding: 58132 58132 19
Width: 4240
Flags: HW
LayerCount: 2
Fore
SplineSet
292.21875 3229 m 1
 622.694335938 3229 l 1
 1116.80078125 2734.89355469 l 1
 1610.90917969 3229 l 1
 1941.38476562 3229 l 1
 1116.80078125 2404.41796875 l 1
 292.21875 3229 l 1
854.028320312 3229 m 1
 1379.57519531 3229 l 1
 1116.80078125 2966.22753906 l 1
 854.028320312 3229 l 1
2275.07519531 3229 m 1
 2605.55175781 3229 l 1
 3099.65820312 2734.89355469 l 1
 3593.76367188 3229 l 1
 3924.24023438 3229 l 1
 3099.65820312 2404.41796875 l 1
 2275.07519531 3229 l 1
2836.8828125 3229 m 1
 3362.43066406 3229 l 1
 3099.65820312 2966.22753906 l 1
 2836.8828125 3229 l 1
125.372070312 3065.37011719 m 1
 951.563476562 2239.18066406 l 1
 125.372070312 1412.98925781 l 1
 120 1418.36132812 l 1
 120 1748.83691406 l 1
 125.372070312 1743.46484375 l 1
 621.087890625 2239.18066406 l 1
 125.372070312 2734.89355469 l 1
 120 2729.52148438 l 1
 120 3059.99804688 l 1
 125.372070312 3065.37011719 l 1
2108.22949219 3065.37011719 m 1
 2934.41894531 2239.18066406 l 1
 2108.22949219 1412.98925781 l 1
 1282.04003906 2239.18066406 l 1
 2108.22949219 3065.37011719 l 1
4091.0859375 3065.37011719 m 1
 4120 3036.45605469 l 1
 4120 2705.98046875 l 1
 4091.0859375 2734.89355469 l 1
 3595.37109375 2239.18066406 l 1
 4091.0859375 1743.46484375 l 1
 4120 1772.37890625 l 1
 4120 1441.90234375 l 1
 4091.0859375 1412.98925781 l 1
 3264.89453125 2239.18066406 l 1
 4091.0859375 3065.37011719 l 1
2108.22949219 2734.89355469 m 1
 1612.515625 2239.18066406 l 1
 2108.22949219 1743.46484375 l 1
 2603.94433594 2239.18066406 l 1
 2108.22949219 2734.89355469 l 1
125.372070312 2503.56054688 m 1
 389.75390625 2239.18066406 l 1
 125.372070312 1974.79882812 l 1
 120 1980.17089844 l 1
 120 2498.1875 l 1
 125.372070312 2503.56054688 l 1
2108.22949219 2503.56054688 m 1
 2372.61132812 2239.18066406 l 1
 2108.22949219 1974.79882812 l 1
 1843.84765625 2239.18066406 l 1
 2108.22949219 2503.56054688 l 1
4091.0859375 2503.56054688 m 1
 4120 2474.64648438 l 1
 4120 2003.71191406 l 1
 4091.0859375 1974.79882812 l 1
 3826.70507812 2239.18066406 l 1
 4091.0859375 2503.56054688 l 1
1116.80078125 2073.94140625 m 1
 1942.9921875 1247.75195312 l 1
 1116.80078125 421.560546875 l 1
 290.611328125 1247.75195312 l 1
 1116.80078125 2073.94140625 l 1
3099.65820312 2073.94140625 m 1
 3925.84765625 1247.75195312 l 1
 3099.65820312 421.560546875 l 1
 2273.46875 1247.75195312 l 1
 3099.65820312 2073.94140625 l 1
1116.80078125 1743.46484375 m 1
 621.087890625 1247.75195312 l 1
 1116.80078125 752.037109375 l 1
 1612.515625 1247.75195312 l 1
 1116.80078125 1743.46484375 l 1
3099.65820312 1743.46484375 m 1
 2603.94433594 1247.75195312 l 1
 3099.65820312 752.037109375 l 1
 3595.37109375 1247.75195312 l 1
 3099.65820312 1743.46484375 l 1
1116.80078125 1512.13183594 m 1
 1381.18261719 1247.75195312 l 1
 1116.80078125 983.370117188 l 1
 852.420898438 1247.75195312 l 1
 1116.80078125 1512.13183594 l 1
3099.65820312 1512.13183594 m 1
 3364.03808594 1247.75195312 l 1
 3099.65820312 983.370117188 l 1
 2835.27636719 1247.75195312 l 1
 3099.65820312 1512.13183594 l 1
125.372070312 1082.51269531 m 1
 951.563476562 256.323242188 l 1
 125.372070312 -569.868164062 l 1
 120 -564.49609375 l 1
 120 -234.01953125 l 1
 125.372070312 -239.391601562 l 1
 621.087890625 256.323242188 l 1
 125.372070312 752.037109375 l 1
 120 746.6640625 l 1
 120 1077.140625 l 1
 125.372070312 1082.51269531 l 1
2108.22949219 1082.51269531 m 1
 2934.41894531 256.323242188 l 1
 2108.22949219 -569.868164062 l 1
 1282.04003906 256.323242188 l 1
 2108.22949219 1082.51269531 l 1
4091.0859375 1082.51269531 m 1
 4120 1053.59863281 l 1
 4120 723.123046875 l 1
 4091.0859375 752.037109375 l 1
 3595.37109375 256.323242188 l 1
 4091.0859375 -239.391601562 l 1
 4120 -210.478515625 l 1
 4120 -540.954101562 l 1
 4091.0859375 -569.868164062 l 1
 3264.89453125 256.323242188 l 1
 4091.0859375 1082.51269531 l 1
2108.22949219 752.037109375 m 1
 1612.515625 256.323242188 l 1
 2108.22949219 -239.391601562 l 1
 2603.94433594 256.323242188 l 1
 2108.22949219 752.037109375 l 1
125.372070312 520.703125 m 1
 389.75390625 256.323242188 l 1
 125.372070312 -8.05859375 l 1
 120 -2.6865234375 l 1
 120 515.331054688 l 1
 125.372070312 520.703125 l 1
2108.22949219 520.703125 m 1
 2372.61132812 256.323242188 l 1
 2108.22949219 -8.05859375 l 1
 1843.84765625 256.323242188 l 1
 2108.22949219 520.703125 l 1
4091.0859375 520.703125 m 1
 4120 491.7890625 l 1
 4120 20.85546875 l 1
 4091.0859375 -8.05859375 l 1
 3826.70507812 256.323242188 l 1
 4091.0859375 520.703125 l 1
1116.80078125 91.083984375 m 1
 1942.9921875 -735.10546875 l 1
 1907.09765625 -771 l 1
 1576.62109375 -771 l 1
 1612.515625 -735.10546875 l 1
 1116.80078125 -239.391601562 l 1
 621.087890625 -735.10546875 l 1
 656.982421875 -771 l 1
 326.505859375 -771 l 1
 290.611328125 -735.10546875 l 1
 1116.80078125 91.083984375 l 1
3099.65820312 91.083984375 m 1
 3925.84765625 -735.10546875 l 1
 3889.95214844 -771 l 1
 3559.4765625 -771 l 1
 3595.37109375 -735.10546875 l 1
 3099.65820312 -239.391601562 l 1
 2603.94433594 -735.10546875 l 1
 2639.83886719 -771 l 1
 2309.36328125 -771 l 1
 2273.46875 -735.10546875 l 1
 3099.65820312 91.083984375 l 1
1116.80078125 -470.725585938 m 1
 1381.18261719 -735.10546875 l 1
 1345.28808594 -771 l 1
 888.315429688 -771 l 1
 852.420898438 -735.10546875 l 1
 1116.80078125 -470.725585938 l 1
3099.65820312 -470.725585938 m 1
 3364.03808594 -735.10546875 l 1
 3328.14257812 -771 l 1
 2871.17089844 -771 l 1
 2835.27636719 -735.10546875 l 1
 3099.65820312 -470.725585938 l 1
EndSplineSet
Validated: 524289
EndChar

StartChar: uniE315
Encoding: 58133 58133 20
Width: 2842
Flags: HW
LayerCount: 2
Fore
SplineSet
1346.5234375 -752.216796875 m 0
 953.098632812 -473.874023438 548.250976562 -169.08203125 276.741210938 241.932617188 c 0
 144.993164062 441.502929688 59.39453125 705.203125 177.31640625 932.25390625 c 1
 197.547851562 1053.58984375 406.659179688 1131.00878906 377.720703125 1223.90917969 c 1
 147.28125 1356.31933594 55.4765625 1663.33789062 167.850585938 1903.09472656 c 1
 330.288085938 2308.71289062 656.911132812 2621.06054688 975.62109375 2911.57519531 c 1
 1110.58105469 3022.27734375 1237.60644531 3150.67578125 1394.70117188 3229 c 1
 1553.98632812 3215.5859375 1670.61328125 3070.92871094 1802.75488281 2988.9296875 c 1
 2128.54785156 2730.09570312 2460.81152344 2449.02636719 2647.97167969 2069.11230469 c 1
 2771.26171875 1833.64160156 2734.65332031 1521.69433594 2532.09667969 1341.87988281 c 0
 2474.29003906 1286.29199219 2389.95703125 1237.39257812 2514.93359375 1198.96777344 c 1
 2676.87988281 1077.58496094 2757.50390625 866.065429688 2707.43945312 668.0703125 c 0
 2607.15820312 279.876953125 2319.31933594 -22.8662109375 2039.01855469 -294.666015625 c 0
 1866.23925781 -457.837890625 1690.17578125 -620.685546875 1492.92578125 -752.33203125 c 1
 1448.00585938 -773.834960938 1390.16992188 -780.440429688 1346.5234375 -752.216796875 c 0
1550.7578125 -460.296875 m 1
 1803.13769531 -253.805664062 2039.87109375 -24.7099609375 2245.13769531 228.825195312 c 1
 2377.03808594 409.297851562 2531.43457031 640.799804688 2442.9921875 872.758789062 c 1
 2362.38574219 1035.07617188 2172.14453125 1134.07714844 1992.97167969 1094.29199219 c 1
 1844.61816406 1089.49023438 1576.73242188 982.69921875 1665.46191406 794.74609375 c 0
 1731.26171875 654.716796875 1934.43554688 532.717773438 2046.58886719 699.385742188 c 1
 2051.25976562 883.124023438 2389.55078125 918.999023438 2288.99902344 698.21875 c 1
 2200.09179688 521.434570312 2007.90136719 371.549804688 1801.7421875 400.063476562 c 1
 1639.56933594 397.14453125 1524.72558594 532.047851562 1428.69433594 645.32421875 c 1
 1302.54980469 501.9765625 1106.62207031 412.877929688 915.116210938 413.19921875 c 0
 737.21875 413.064453125 552.290039062 637.983398438 652.646484375 802.0234375 c 1
 763.951171875 935.94921875 892.484375 820.53125 910.265625 688.706054688 c 1
 1036.265625 542.131835938 1369.97753906 740.546875 1211.04589844 919.396484375 c 1
 1118.98632812 1061.96582031 951.548828125 1150.8828125 781.19921875 1131.73925781 c 1
 533.974609375 1142.08886719 307.83984375 882.712890625 388.463867188 638.702148438 c 1
 481.349609375 325.547851562 728.046875 92.2216796875 960.877929688 -123.901367188 c 1
 1118.74609375 -258.942382812 1280.71484375 -393.265625 1454.38574219 -505.134765625 c 0
 1490.07128906 -524.0234375 1522.54101562 -473.752929688 1550.7578125 -460.296875 c 1
1517.22265625 1083.37890625 m 0
 1606.79296875 1150.859375 1663.63574219 1194.48144531 1538.12109375 1250.3984375 c 1
 1446.27832031 1313.57128906 1385.17089844 1509.37988281 1291.99609375 1340.40332031 c 1
 1121.19628906 1240.58789062 1443.66894531 1158.90136719 1459.4609375 1028.76367188 c 1
 1480.34863281 1045.17871094 1498.3671875 1064.78027344 1517.22265625 1083.37890625 c 0
2147.54589844 1329.70898438 m 1
 2331.27734375 1382.27929688 2507.63671875 1557.59082031 2464.37792969 1763.12695312 c 1
 2426.91796875 2020.67675781 2237.86230469 2221.4609375 2067.12597656 2405.1953125 c 1
 1860.50683594 2614.31738281 1631.25292969 2803.171875 1388.02539062 2966.39453125 c 1
 1250.03027344 2925.60351562 1141.74511719 2775.52148438 1022.79492188 2683.23242188 c 1
 780.172851562 2453.1484375 530.556640625 2206.79492188 404.974609375 1890.72363281 c 0
 344.884765625 1745.40429688 366.482421875 1565.08398438 495.499023438 1463.6171875 c 1
 617.208984375 1341.4609375 804.991210938 1343.97558594 961.206054688 1381.046875 c 1
 1094.54003906 1408.44042969 1292.23046875 1550.81152344 1158.31445312 1694.38574219 c 1
 1081.93554688 1854.91308594 842.590820312 1905.12792969 774.133789062 1711.38574219 c 1
 742.685546875 1533.41210938 430.018554688 1599.10644531 563.387695312 1779.41308594 c 1
 679.513671875 1984.8046875 944.603515625 2139.96582031 1174.87597656 2026.92773438 c 1
 1281.90039062 2013.73632812 1354.47753906 1812.37207031 1427.9453125 1833.61523438 c 1
 1587.43847656 1981.27148438 1816.08203125 2083.11132812 2034.1171875 2020.75878906 c 1
 2199.46679688 1966.140625 2322.77734375 1641.12207031 2087.30664062 1602.02441406 c 1
 1923.703125 1581.66699219 1959.40527344 1930.43261719 1745.671875 1802.70410156 c 1
 1528.07714844 1772.07421875 1583.60742188 1526.37011719 1725.7265625 1434.76660156 c 1
 1837.84960938 1336.546875 2002.27148438 1286.83886719 2147.546875 1329.70800781 c 1
 2147.54589844 1329.70898438 l 1
EndSplineSet
Validated: 33
EndChar

StartChar: uniE316
Encoding: 58134 58134 21
Width: 3257
Flags: HW
LayerCount: 2
Fore
SplineSet
642.198242188 -748.25390625 m 1
 436.068359375 -707.673828125 338.038085938 -484.489257812 398.595703125 -294.45703125 c 0
 491.0078125 -11.7421875 758.62109375 188.184570312 1048.08105469 234.171875 c 1
 1202.50683594 269.825195312 1361.40917969 273.325195312 1519.13085938 271.370117188 c 1
 1309.73828125 493.956054688 1012.79003906 654.297851562 703.0859375 657.963867188 c 1
 514.055664062 679.831054688 447.521484375 448.265625 277.751953125 429.969726562 c 1
 76.0556640625 386.893554688 73.2744140625 628.502929688 237.971679688 682.669921875 c 1
 522.875 902.41796875 930.8984375 861.203125 1218.5390625 670.124023438 c 1
 1331.01171875 617.805664062 1443.28125 485.845703125 1533.19433594 455.345703125 c 1
 1542.58398438 546.010742188 1546.07128906 637.140625 1551.96386719 728.071289062 c 1
 1339.28125 944.748046875 1047.67675781 1139.34375 730.044921875 1086.31054688 c 1
 597.416992188 1025.70019531 382.670898438 763.7578125 276.545898438 994.741210938 c 1
 341.287109375 1161.05664062 548.174804688 1227.07128906 711.97265625 1253.73632812 c 1
 1036.63867188 1294.57714844 1325.17578125 1095.30078125 1555.71289062 891.3359375 c 1
 1593.44335938 1063.93847656 1561.63769531 1245.79785156 1377.28320312 1317.17578125 c 1
 1204.59960938 1425.90527344 988.827148438 1532.06152344 782.323242188 1461.56933594 c 1
 698.32421875 1357.50878906 401.497070312 1179.68554688 416.227539062 1421.90429688 c 1
 602.84765625 1642.01953125 943.215820312 1685.44726562 1194.01269531 1552.4140625 c 1
 1332.25195312 1508.70703125 1468.16210938 1361.01953125 1570.21289062 1316.23046875 c 1
 1615.8515625 1500.26367188 1546.21582031 1672.81738281 1361.61914062 1741.90917969 c 1
 1203.13183594 1826.48828125 983.66796875 1924.98242188 819.715820312 1802.30761719 c 1
 773.911132812 1649.40234375 419.455078125 1664.22460938 569.259765625 1839.52441406 c 1
 758.35546875 2013.62890625 1048.00195312 2029.87011719 1270.13964844 1911.62304688 c 1
 1382.30664062 1891.98339844 1530.87207031 1684.31542969 1584.796875 1743.20605469 c 1
 1641.88378906 1938.03613281 1492.48730469 2073.32617188 1329.10839844 2145.90625 c 1
 1182.69824219 2220.30957031 966.217773438 2283.34179688 839.765625 2139.9765625 c 1
 755.916015625 1984.94726562 496.295898438 2133.13183594 690.959960938 2239.0703125 c 1
 917.11328125 2416.46972656 1238.74316406 2347.29882812 1449.68554688 2180.43847656 c 0
 1520.70898438 2126.41601562 1623.86132812 2006.31347656 1598.8671875 2168.0546875 c 0
 1587.53710938 2230.04492188 1629.42773438 2316.80957031 1560.84570312 2352.52832031 c 1
 1414.49414062 2467.69433594 1219.76464844 2585.45800781 1027.85644531 2527.07617188 c 1
 971.836914062 2452.63574219 759.200195312 2326.44921875 763.548828125 2496.58398438 c 1
 923.211914062 2696.40234375 1235.29199219 2679.52148438 1431.17871094 2542.40136719 c 1
 1505.56152344 2500.78710938 1631.8671875 2346.49902344 1606.42480469 2530.2109375 c 1
 1561.23242188 2717.27636719 1316.50488281 2848.71582031 1126.06542969 2854.14453125 c 1
 1045.95117188 2826.04101562 906.05859375 2653.26660156 858.592773438 2812.35839844 c 1
 957.950195312 3008.05957031 1250.17675781 2979.77441406 1400.96777344 2858.96777344 c 1
 1474.29785156 2821.62207031 1560.35253906 2714.80175781 1611.140625 2693.20117188 c 1
 1611.140625 2950.79980469 l 1
 1501.15332031 3048.51953125 1355.34960938 3163.57324219 1200.57714844 3115.19042969 c 1
 1160.99414062 3018.41015625 933.754882812 2962.15722656 1025.55859375 3121.92675781 c 1
 1146.2578125 3267.30664062 1359.38476562 3226.34472656 1491.93164062 3122.12109375 c 1
 1562.01855469 3112.90136719 1622.20898438 2934.06445312 1684.91308594 3020.01074219 c 1
 1814.203125 3149.74707031 2018.47460938 3305.17285156 2203.47265625 3186.98535156 c 1
 2358.02734375 3146.18945312 2256.56347656 2929.04492188 2148.88867188 3074.06347656 c 1
 2036.52734375 3212.72265625 1836.14941406 3081.36035156 1733.60742188 2990.33496094 c 1
 1669.203125 2953.50097656 1675.04003906 2888.87011719 1681.26855469 2824.08300781 c 1
 1692.93066406 2787.92675781 1660.27832031 2642.76269531 1714.49609375 2711.29492188 c 1
 1847.37011719 2842.02734375 2008.40039062 2991.4921875 2210.47167969 2955.78027344 c 1
 2339.23925781 2993.31445312 2559.625 2737.78710938 2326.72460938 2760.93359375 c 1
 2210.32128906 2896.51171875 2023.92773438 2875.90820312 1892.76269531 2772.21679688 c 0
 1787.90332031 2691.47363281 1637.69921875 2587.83300781 1695.58300781 2434.33007812 c 1
 1736.79589844 2397.53027344 1855.08691406 2573.27148438 1935.09863281 2581.69628906 c 1
 2100.00878906 2681.0390625 2319.24023438 2708.2890625 2480.04492188 2585.51757812 c 1
 2675.15332031 2486.68261719 2404.43847656 2350.41210938 2334.75488281 2509.51464844 c 1
 2181.39453125 2635.44921875 1974.4453125 2513.32421875 1834.625 2424.68847656 c 1
 1779.46679688 2370.11621094 1670.92773438 2331.40917969 1696.06933594 2236.9296875 c 1
 1690.109375 2147.56445312 1692.8828125 2021.32519531 1788.73339844 2142.43554688 c 1
 1993.49707031 2313.18652344 2292.51757812 2449.04199219 2548.82910156 2305.62207031 c 1
 2692.90234375 2276.05078125 2720.87011719 2064.05273438 2537.33203125 2110.85839844 c 1
 2402.55175781 2242.46386719 2212.73730469 2296.78808594 2036.81835938 2189.26660156 c 1
 1912.17480469 2141.18066406 1809.95800781 2053.73144531 1708.20214844 1969.83398438 c 1
 1709.98828125 1875.67382812 1703.06542969 1780.69042969 1715.88964844 1687.24609375 c 1
 1857.43554688 1782.77636719 1982.64257812 1910.63085938 2150.74511719 1963.36230469 c 1
 2361.37304688 2054.08496094 2641.16503906 2016.96972656 2790 1833.84960938 c 1
 2820.98046875 1644.2734375 2530.90039062 1739.89746094 2477.17285156 1850.55273438 c 1
 2270.08398438 1934.35253906 2047.88378906 1810.71582031 1879.63476562 1692.82714844 c 1
 1825.43457031 1631.67480469 1702.12695312 1591.52734375 1720.33496094 1493.66113281 c 1
 1715.75488281 1401.80566406 1709.04980469 1236.99902344 1822.70507812 1380.41699219 c 1
 2052.10644531 1571.796875 2375.90722656 1734.84082031 2674.05273438 1606.69726562 c 1
 2803.59472656 1584.24707031 3019.58984375 1372.66503906 2784.14257812 1331.75878906 c 1
 2602.03320312 1369.36914062 2472.40234375 1599.33203125 2255.48632812 1487.76269531 c 1
 2055.64941406 1431.43457031 1879.00585938 1312.87207031 1728.59765625 1172.14257812 c 1
 1735.37109375 1082.93554688 1735.88769531 992.892578125 1750.41015625 904.543945312 c 1
 1979.87304688 1064.16015625 2222.13476562 1254.43847656 2517.75 1253.67773438 c 1
 2701.13476562 1257.90820312 2898.22460938 1182.828125 3015.35839844 1040.11523438 c 1
 3064.04101562 800.4609375 2724.35058594 906.21484375 2652.68847656 1045.18164062 c 1
 2475.78710938 1161.45605469 2251.28125 1060.27246094 2080.60546875 980.171875 c 0
 1962.49511719 920.66796875 1852.25 845.498046875 1756.73339844 753.8515625 c 1
 1763.81054688 661.221679688 1742.49316406 555.051757812 1780.04101562 472.756835938 c 1
 2046.97851562 687.052734375 2384.92089844 886.165039062 2741.16503906 815.391601562 c 1
 2890.92480469 768.471679688 3092.828125 708.16796875 3137.58789062 540.0703125 c 1
 3029.91015625 315.845703125 2799.7578125 533.3203125 2681.58007812 634.17578125 c 1
 2379.09179688 712.37109375 2078.90527344 543.409179688 1844.50390625 367.008789062 c 1
 1673.06152344 228.739257812 2022.23242188 290.708984375 2107.41699219 275.43359375 c 1
 2466.625 288.463867188 2858.96191406 55.375 2927.58496094 -314.708984375 c 1
 2953.07714844 -476.490234375 2851.54101562 -644.504882812 2688.90234375 -682.359375 c 1
 2410.33203125 -784.356445312 2094.00390625 -676.592773438 1873.35058594 -495.53515625 c 0
 1757.796875 -399.458007812 1708.98144531 -239.827148438 1650.71289062 -118.23046875 c 1
 1619.87011719 -365.375 1448.27636719 -576.383789062 1222.09082031 -675.0234375 c 1
 1043.76660156 -760.856445312 836.28125 -798.888671875 642.198242188 -748.25390625 c 1
1109.45214844 -524.595703125 m 0
 1350.80566406 -470.029296875 1490.18847656 -237.926757812 1529.74023438 -8.8671875 c 1
 1516.26953125 45.19140625 1612.62695312 225.23046875 1494.09960938 184.2734375 c 1
 1227.63378906 155.116210938 915.540039062 124.783203125 735.909179688 -99.595703125 c 1
 625.611328125 -226.2109375 634.712890625 -486.549804688 827.564453125 -525.685546875 c 1
 919.537109375 -548.698242188 1017.27539062 -543.591796875 1109.45214844 -524.595703125 c 0
2475.93554688 -468.689453125 m 1
 2652.70996094 -420.991210938 2671.35644531 -186.90234375 2563.47851562 -64.1259765625 c 1
 2374.30664062 177.043945312 2044.15917969 175.443359375 1765.30566406 174.256835938 c 1
 1680.32617188 158.009765625 1791.45410156 -20.470703125 1800.43847656 -90.466796875 c 1
 1874.65820312 -302.106445312 2056.39257812 -487.359375 2291.74023438 -492.411132812 c 0
 2353.81835938 -496.580078125 2417.3515625 -490.477539062 2475.93554688 -468.689453125 c 1
EndSplineSet
Validated: 33
EndChar

StartChar: uniE317
Encoding: 58135 58135 22
Width: 4348
Flags: HW
LayerCount: 2
Fore
SplineSet
726.516601562 -752.283203125 m 1
 535.544921875 -700.768554688 337.51953125 -592.03125 238.62109375 -416.749023438 c 1
 84.833984375 -185.810546875 98.0966796875 127.102539062 185.739257812 383.608398438 c 1
 286.475585938 639.26171875 456.881835938 863.596679688 674.317382812 1029.97363281 c 1
 749.399414062 1108.35546875 999.693359375 1170.61425781 790.213867188 1260.96386719 c 1
 641.537109375 1353.74023438 528.754882812 1467.29980469 424.029296875 1596.67578125 c 1
 312.905273438 1742.765625 224.170898438 1899.17382812 164.02734375 2073.05761719 c 1
 107.290039062 2320.09960938 90.75 2593.89746094 204.3828125 2826.51074219 c 1
 318.047851562 3041.89160156 553.04296875 3202.0703125 803.190429688 3222.11328125 c 1
 1303.13867188 3274.47753906 1765.79199219 2944.5234375 2022.78320312 2538.0703125 c 1
 2093.03320312 2457.78027344 2166.70898438 2089.16601562 2234.60253906 2369.12304688 c 1
 2438.35644531 2812.08691406 2864.28710938 3179.17675781 3360.94335938 3225.45117188 c 0
 3649.28027344 3251.93066406 3968.75097656 3129.99804688 4111.45019531 2867.08105469 c 1
 4207.34277344 2737.59765625 4224.83496094 2550.796875 4228.65820312 2386.31152344 c 0
 4232.33789062 2183.87597656 4160.52246094 1973.72460938 4056.19238281 1807.3359375 c 1
 3930.515625 1550.45800781 3711.4296875 1352.41308594 3473.4921875 1201.3828125 c 1
 3538.96289062 1071.06347656 3790.76660156 987.926757812 3885.00097656 829.924804688 c 1
 4091.08007812 603.829101562 4230.81835938 305.59765625 4224.72167969 -4.9296875 c 1
 4228.75683594 -187.190429688 4158.41210938 -370.264648438 4045.90917969 -507.150390625 c 1
 3857.34863281 -705.657226562 3577.95019531 -802.512695312 3307.00683594 -761.870117188 c 1
 3129.39648438 -758.932617188 2957.7421875 -684.391601562 2809.38574219 -611.576171875 c 1
 2557.42871094 -461.650390625 2327.81445312 -258.51171875 2190.66699219 4.232421875 c 1
 2071.70410156 -80.248046875 1978.50683594 -302.73828125 1826.55957031 -403.873046875 c 1
 1687.08984375 -522.810546875 1535.00585938 -623.49609375 1370.51757812 -687.612304688 c 1
 1194.41699219 -761.08984375 998.065429688 -768.547851562 807.288085938 -763.20703125 c 0
 780.25 -761.287109375 752.653320312 -760.291992188 726.517578125 -752.283203125 c 1
 726.516601562 -752.283203125 l 1
1007.76660156 -409.80078125 m 1
 1297.58496094 -324.989257812 1540.25097656 -125.000976562 1733.40625 101.489257812 c 1
 1831.57226562 257.796875 1901.3671875 435.298828125 1880.8515625 626.09765625 c 1
 1836.62792969 779.2109375 1650.625 504.922851562 1576.78417969 464.5859375 c 1
 1462.67871094 337.022460938 1317.53417969 214.918945312 1314.79785156 32.162109375 c 1
 1278.73535156 -171.883789062 990.688476562 -175.95703125 901.887695312 -4.4892578125 c 1
 769.365234375 150.953125 934.161132812 423.828125 1135.9453125 346.78515625 c 1
 1271.58105469 451.216796875 1437.25292969 539.606445312 1548.23046875 681.079101562 c 1
 1688.74023438 786.185546875 1727.87792969 959.17578125 1498.484375 920.931640625 c 1
 1326.02929688 911.807617188 1154.88378906 864.001953125 1016.51367188 765.0390625 c 0
 789.450195312 608.69921875 594.815429688 378.814453125 510.911132812 109.217773438 c 1
 441.177734375 -84.8076171875 488.30078125 -347.528320312 709.3984375 -412.431640625 c 1
 802.119140625 -443.862304688 912.825195312 -428.107421875 1007.76757812 -409.80078125 c 1
 1007.76660156 -409.80078125 l 1
3636.7734375 -412.431640625 m 1
 3857.87011719 -347.528320312 3904.99316406 -84.8076171875 3835.25878906 109.217773438 c 1
 3746.78125 386.672851562 3546.078125 628.275390625 3303.14746094 778.874023438 c 1
 3168.51464844 878.552734375 2992.45800781 917.338867188 2823.29296875 919.874023438 c 1
 2556.08886719 901.237304688 2942.40722656 628.849609375 3002.55175781 537.965820312 c 0
 3126.29589844 353.318359375 3379.34375 383.184570312 3513.36035156 238.56640625 c 1
 3616.02832031 70.779296875 3464.78613281 -94.0966796875 3303.06640625 -133.338867188 c 1
 3034.26464844 -166.21484375 3102.03417969 129.252929688 2987.69921875 266.771484375 c 1
 2859.55957031 435.422851562 2728.72851562 605.16796875 2530.36425781 699.45703125 c 1
 2412.40820312 680.59375 2478.1953125 386.17578125 2521.37402344 277.8828125 c 0
 2597.71289062 81.8232421875 2753.29199219 -63.27734375 2918.18847656 -190.546875 c 0
 3119.56445312 -344.30859375 3378.3046875 -475.411132812 3636.7734375 -412.431640625 c 1
2317.78320312 904.424804688 m 1
 2506.09960938 952.026367188 2677.0390625 1188.81054688 2548.29492188 1374.47265625 c 1
 2385.26464844 1658.20800781 1875.25878906 1633.25683594 1781.41796875 1307.07714844 c 0
 1713.25390625 1081.74316406 1946.74023438 881.963867188 2157.703125 889.11328125 c 0
 2210.58203125 891.159179688 2268.05859375 883.848632812 2317.78320312 904.424804688 c 1
1564.66992188 1480.40234375 m 1
 1751.40820312 1576.63574219 1416.62988281 1763.49511719 1346.46191406 1863.41015625 c 0
 1231.78515625 2030.60058594 985.421875 1965.27148438 882.33203125 2125.39355469 c 1
 774.958984375 2315.22363281 1006.65820312 2537.89355469 1200.39746094 2469.53613281 c 0
 1401.30664062 2401.125 1312.93164062 2136.68847656 1462.83496094 2014.16308594 c 1
 1555.69238281 1924.84179688 1677.2734375 1715.10253906 1789.44238281 1730.89257812 c 1
 1867.82910156 2047.55273438 1673.63183594 2361.81640625 1448.93457031 2570.56347656 c 0
 1323.27539062 2690.60253906 1182.00097656 2781.75488281 1012.95898438 2831.85742188 c 1
 825.948242188 2879.83203125 570.5390625 2896.05761719 488.474609375 2675.27636719 c 0
 421.344726562 2486.23339844 478.256835938 2288.38378906 569.081054688 2118.97070312 c 0
 662.951171875 1948.43945312 782.072265625 1797.80566406 929.541992188 1668.73046875 c 1
 1110.57226562 1540.00585938 1333.86035156 1413.34179688 1564.66992188 1480.40234375 c 1
3041.046875 1479.38574219 m 0
 3285.65722656 1544.91601562 3503.00683594 1709.26660156 3641.64160156 1915.77246094 c 1
 3760.28808594 2054.76171875 3844.25390625 2231.49707031 3882.06738281 2407.96386719 c 1
 3918.28125 2599.63964844 3820.84375 2869.96777344 3592.98339844 2859.09765625 c 1
 3406.21386719 2871.9453125 3226.08496094 2808.0078125 3070.46679688 2715.34375 c 1
 2915.49902344 2601.35546875 2763.44335938 2450.57421875 2658.26660156 2280.62304688 c 0
 2552.11425781 2108.77539062 2522.1640625 1897.92089844 2553.70117188 1700.64257812 c 1
 2722.73925781 1737.47265625 2834.82519531 1927.65039062 2960.04589844 2045.58105469 c 1
 3117.17285156 2177.39746094 3045.27148438 2545.15527344 3340.49023438 2475.27441406 c 1
 3535.70214844 2441.32421875 3625.88671875 2141.21289062 3444.21679688 2031.25390625 c 1
 3232.66210938 2010.83984375 3055.95703125 1880.53808594 2905.18652344 1731.71386719 c 1
 2804.55078125 1665.07617188 2640.42773438 1450.90039062 2878.4765625 1458.12304688 c 1
 2933.5 1453.46679688 2988.1171875 1465.8671875 3041.046875 1479.38574219 c 0
EndSplineSet
Validated: 33
EndChar

StartChar: uniE318
Encoding: 58136 58136 23
Width: 5507
Flags: HW
LayerCount: 2
Fore
SplineSet
2302.98632812 -749.450195312 m 1
 2099.97753906 -700.098632812 1958.53417969 -511.426757812 1913.38574219 -310.860351562 c 1
 1806.82617188 -9.033203125 1802.9609375 322.495117188 1756.15332031 639.213867188 c 1
 1593.54785156 873.43359375 1453.703125 438.037109375 1482.92480469 290.515625 c 1
 1460.109375 38.0302734375 1406.68066406 -279.524414062 1157.40527344 -405.67578125 c 1
 877.577148438 -437.904296875 828.643554688 -72.58984375 850.775390625 135.387695312 c 1
 845.455078125 349.065429688 1058.38476562 468.84765625 1140.77636719 652.254882812 c 0
 1182.32519531 753.485351562 1374.12988281 1019.65332031 1230.43945312 1052.00097656 c 1
 1117.24902344 873.575195312 1055.06152344 653.176757812 898.543945312 495.237304688 c 1
 791.051757812 309.51953125 437.28515625 102.715820312 379.8515625 439.071289062 c 1
 355.158203125 659.815429688 441.158203125 893.575195312 639.295898438 1009.03515625 c 1
 791.045898438 1041.30371094 880.795898438 1349.61425781 684.15625 1219.37207031 c 1
 529.84765625 1151.74414062 292.358398438 968.022460938 155.280273438 1151.52441406 c 1
 40.8642578125 1396.86035156 221.934570312 1640.32910156 451.588867188 1728.91601562 c 1
 908.4609375 1937.65625 1428.51171875 2011.03515625 1923.55175781 1922.3671875 c 1
 2153.765625 1825.81933594 2319.54589844 2064.51464844 2081.06445312 2201.40332031 c 1
 1908.90722656 2262.66308594 1634.12402344 2466.17285156 1864.13671875 2630.80175781 c 1
 2159.56542969 2695.66601562 2369.85546875 2421.53808594 2568.75 2252.80761719 c 1
 2827.05664062 2137.08496094 2591.61914062 2548.24902344 2489.87695312 2600.5703125 c 1
 2275.22753906 2757.70703125 2382.64648438 3201.91210938 2681.18652344 3056.85742188 c 1
 2872.08007812 2861.40625 2949.2109375 2584.6171875 3090.25390625 2354.12597656 c 1
 3103.86132812 2229.4765625 3323.12402344 2079.20800781 3273 2299.13378906 c 1
 3211.53125 2481.54882812 3065.3203125 2615.17382812 3043.80761719 2810.11328125 c 1
 2984.08105469 3010.81640625 3150.36425781 3285.93847656 3379.6484375 3218.64648438 c 1
 3601.78417969 3117.49121094 3693.15820312 2860.90429688 3721.26660156 2634.12109375 c 1
 3753.29199219 2300.21582031 3728.08398438 1962.36328125 3772.91308594 1629.80664062 c 1
 3936.48242188 1373.86035156 4054.52734375 1804.08105469 4030.62597656 1951.27734375 c 1
 4068.40527344 2188.22851562 4089.95605469 2483.234375 4308.92089844 2625.93164062 c 1
 4554.9453125 2705.09765625 4681.6328125 2411.67480469 4692.9765625 2218.07617188 c 1
 4737.66992188 1983.671875 4579.38476562 1811.24511719 4446.08496094 1643.82910156 c 1
 4368.89453125 1555.66503906 4186.68652344 1285.66699219 4320.96875 1242.67675781 c 1
 4440.77636719 1408.12988281 4502.97265625 1597.34179688 4671.55957031 1731.359375 c 1
 4780.19335938 1884.74609375 5077.40332031 2031.96582031 5141.67675781 1765.62207031 c 1
 5265.79882812 1568.02246094 5086.2421875 1332.73242188 4917.70117188 1214.33398438 c 0
 4838.38476562 1156.95996094 4520.07324219 971.138671875 4711.29101562 917.219726562 c 1
 4920.95898438 954.10546875 5141.1484375 1161.72753906 5351.93359375 1040.36230469 c 1
 5453.55664062 815.392578125 5330.359375 506.498046875 5108.3671875 399.946289062 c 1
 4884.47265625 305.462890625 4643.93164062 338.771484375 4412.27246094 378.532226562 c 1
 4131.87988281 396.05078125 3860.22558594 562.219726562 3577.65625 482.952148438 c 1
 3312.68164062 294.588867188 3669.40820312 92.9990234375 3806.99414062 -27.2255859375 c 1
 3966.234375 -214.795898438 3706.56445312 -504.548828125 3508.38964844 -342.369140625 c 1
 3297.87304688 -226.998046875 3201.17871094 -1.888671875 3042.31738281 162.47265625 c 1
 2928.94335938 341.907226562 2626.2890625 163.736328125 2876.26269531 43.4990234375 c 0
 3090.22460938 -62.72265625 3358.07128906 -377.569335938 3166.609375 -605.688476562 c 1
 2951.99023438 -740.212890625 2780.07226562 -470.708007812 2676.73730469 -317.42578125 c 1
 2559.82128906 -171.451171875 2517.31054688 145.129882812 2328.99316406 153.931640625 c 1
 2291.41015625 -25.087890625 2481.83789062 -187.688476562 2528.47558594 -354.284179688 c 1
 2616.12988281 -518.799804688 2546.70996094 -859.768554688 2302.99316406 -749.451171875 c 1
 2302.98632812 -749.450195312 l 1
3282.25097656 631.19140625 m 1
 3448.80371094 678.923828125 3817.27148438 849.537109375 3630.34863281 1051.54003906 c 1
 3426.83691406 1180.35058594 3174.10644531 1164.68652344 2941.79296875 1198.1015625 c 1
 2766.66894531 1199.35351562 2386.46191406 1329.94726562 2647.14648438 1522.73730469 c 1
 2869.68847656 1775.46972656 2347.00878906 1712.65429688 2203.17578125 1675.76660156 c 0
 2015.11914062 1628.67382812 1747.20019531 1470.74121094 1821.93164062 1236.70214844 c 1
 1973.04003906 1053.51367188 2244.578125 1148.69433594 2451.30371094 1116.41699219 c 1
 2669.9765625 1099.60742188 2907.25195312 1128.52929688 3108.00683594 1028.08105469 c 1
 3201.07519531 851.44140625 2935.21386719 742.2265625 2829.47265625 661.533203125 c 1
 2768.84472656 548.491210938 3113.93554688 611.250976562 3205.89648438 615.1015625 c 1
 3235.87207031 619.9765625 l 1
 3282.25097656 631.19140625 l 1
EndSplineSet
Validated: 33
EndChar

StartChar: uniE319
Encoding: 58137 58137 24
Width: 4240
Flags: HW
LayerCount: 2
Fore
SplineSet
1790.48046875 -743.338867188 m 1
 1038.84472656 -624.982421875 402.215820312 -35.4482421875 195.661132812 691.221679688 c 1
 -13.9736328125 1405.84375 221.270507812 2226.82519531 786.64453125 2714.93164062 c 1
 1419.70703125 3316.62207031 2461.66992188 3397.17285156 3188.66992188 2919.34765625 c 1
 3768.15917969 2558.80859375 4130.30273438 1889.09863281 4119.77636719 1208.2109375 c 1
 4124.63183594 743.633789062 3932.68066406 289.911132812 3640.17480469 -65.0859375 c 1
 3192.29980469 -588.231445312 2472.78320312 -862.705078125 1790.48046875 -743.338867188 c 1
1981.18652344 -109.284179688 m 1
 1973.66210938 -47.65234375 2014.97070312 61.1572265625 1913.29785156 31.830078125 c 1
 1834.02148438 34.4443359375 1754.74511719 37.0576171875 1675.46777344 39.671875 c 1
 1672.14941406 158.875 1668.83007812 278.078125 1665.51074219 397.28125 c 1
 1537.80859375 397.28125 1410.10546875 397.28125 1282.40234375 397.28125 c 1
 1282.40234375 525.206054688 1282.40234375 653.131835938 1282.40234375 781.056640625 c 1
 1166.39160156 781.056640625 1050.38183594 781.056640625 934.37109375 781.056640625 c 1
 931.006835938 882.815429688 927.640625 984.57421875 924.276367188 1086.33300781 c 1
 834.016601562 1089.72949219 743.7578125 1093.12597656 653.498046875 1096.52246094 c 1
 668.181640625 709.690429688 878.874023438 344.373046875 1174.21484375 99.6767578125 c 1
 1394.22070312 -91.4052734375 1670.55175781 -210.798828125 1959.34863281 -246.520507812 c 1
 1994.59472656 -215.836914062 1974.36132812 -151.485351562 1981.18652344 -109.284179688 c 1
2519.23535156 -194.170898438 m 0
 3090.25878906 -35.7080078125 3556.93847656 497.517578125 3588.38769531 1095.05566406 c 1
 3495.21679688 1095.05566406 3402.04589844 1095.05566406 3308.87402344 1095.05566406 c 1
 3308.87402344 990.388671875 3308.87402344 885.72265625 3308.87402344 781.056640625 c 1
 3192.41113281 781.056640625 3075.94628906 781.056640625 2959.48242188 781.056640625 c 1
 2959.48242188 653.131835938 2959.48242188 525.206054688 2959.48242188 397.28125 c 1
 2831.77929688 397.28125 2704.07714844 397.28125 2576.37402344 397.28125 c 1
 2573.0546875 278.078125 2569.73632812 158.875 2566.41699219 39.671875 c 1
 2464.51074219 36.3115234375 2362.60546875 32.951171875 2260.69921875 29.5908203125 c 1
 2260.69921875 -63.51953125 2260.69921875 -156.629882812 2260.69921875 -249.741210938 c 1
 2347.94238281 -236.508789062 2433.95996094 -216.693359375 2519.23535156 -194.170898438 c 0
2400.45605469 301.336914062 m 1
 2426.75683594 397.262695312 2370.57617188 410.826171875 2287.24804688 397.28125 c 1
 2138.64160156 397.28125 1990.03515625 397.28125 1841.4296875 397.28125 c 1
 1849.52734375 337.63671875 1825.74316406 246.15625 1852.75 205.393554688 c 1
 2035.31835938 205.393554688 2217.88671875 205.393554688 2400.45605469 205.393554688 c 1
 2400.45605469 237.374023438 2400.45605469 269.35546875 2400.45605469 301.336914062 c 1
1278.46777344 1230.24902344 m 0
 1280.06835938 1324.73925781 1281.66796875 1419.22949219 1283.26855469 1513.71972656 c 1
 1223.1953125 1505.6875 1131.40625 1529.32421875 1090.23730469 1502.41503906 c 1
 1090.23730469 1313.6875 1090.23730469 1124.95996094 1090.23730469 936.232421875 c 1
 1146.69726562 948.067382812 1235.98242188 928.428710938 1273.859375 958.081054688 c 1
 1275.39550781 1048.80371094 1276.93164062 1139.52636719 1278.46777344 1230.24902344 c 0
3147.71289062 1230.24902344 m 0
 3149.31347656 1324.73925781 3150.91308594 1419.22949219 3152.51367188 1513.71972656 c 1
 3092.44042969 1505.6875 3000.65234375 1529.32421875 2959.48242188 1502.41503906 c 1
 2962.28710938 1317.9453125 2951.34765625 1132.38671875 2971.93457031 948.881835938 c 1
 3053.06347656 935.415039062 3184.046875 915.08984375 3144.44433594 1037.20117188 c 1
 3145.53417969 1101.55078125 3146.62402344 1165.89941406 3147.71289062 1230.24902344 c 0
2253.71191406 1102.03320312 m 1
 2436.28515625 1251.52929688 2159.75683594 1543.12695312 1995.37304688 1376.41601562 c 1
 1814.7734375 1235.125 2034.203125 936.903320312 2221.38378906 1072.70703125 c 1
 2253.71191406 1102.03320312 l 1
933.010742188 1531.1640625 m 1
 946.984375 1588.38476562 892.454101562 1714.00976562 989.615234375 1688.16308594 c 1
 1087.2109375 1688.16308594 1184.80664062 1688.16308594 1282.40234375 1688.16308594 c 1
 1282.40234375 1816.08886719 1282.40234375 1944.01367188 1282.40234375 2071.93945312 c 1
 1410.51269531 2071.93945312 1538.62304688 2071.93945312 1666.73339844 2071.93945312 c 1
 1666.73339844 2188.234375 1666.73339844 2304.53027344 1666.73339844 2420.82617188 c 1
 1771.55078125 2420.82617188 1876.36816406 2420.82617188 1981.18652344 2420.82617188 c 1
 1981.18652344 2513.86328125 1981.18652344 2606.89941406 1981.18652344 2699.93554688 c 1
 1549.52832031 2678.78222656 1151.28320312 2414.57617188 903.022460938 2069.85351562 c 1
 762.471679688 1865.79492188 660.678710938 1623.9453125 653.498046875 1374.16503906 c 1
 746.668945312 1374.16503906 839.83984375 1374.16503906 933.010742188 1374.16503906 c 1
 933.010742188 1426.49804688 933.010742188 1478.83105469 933.010742188 1531.1640625 c 1
3588.11914062 1422.13671875 m 1
 3513.62207031 2072.71777344 2951.21875 2631.69433594 2298.99316406 2699.93554688 c 0
 2222.06933594 2709.94726562 2276.95996094 2588.3359375 2260.69921875 2537.77246094 c 1
 2250.8828125 2458.84179688 2253.17285156 2392.00195312 2351.265625 2420.82617188 c 1
 2425.89453125 2420.82617188 2500.5234375 2420.82617188 2575.15234375 2420.82617188 c 1
 2575.15234375 2304.53027344 2575.15234375 2188.234375 2575.15234375 2071.93945312 c 1
 2703.26171875 2071.93945312 2831.37207031 2071.93945312 2959.48242188 2071.93945312 c 1
 2959.48242188 1944.01367188 2959.48242188 1816.08886719 2959.48242188 1688.16308594 c 1
 3075.94628906 1688.16308594 3192.41113281 1688.16308594 3308.87402344 1688.16308594 c 1
 3308.87402344 1583.49707031 3308.87402344 1478.83105469 3308.87402344 1374.16503906 c 1
 3402.04589844 1374.16503906 3495.21679688 1374.16503906 3588.38769531 1374.16503906 c 1
 3588.29980469 1390.15527344 3588.20703125 1406.14746094 3588.11914062 1422.13671875 c 1
 3588.11914062 1422.13671875 l 1
2400.45605469 2167.8828125 m 1
 2426.75683594 2263.80859375 2370.57617188 2277.37207031 2287.24804688 2263.82714844 c 1
 2138.64160156 2263.82714844 1990.03515625 2263.82714844 1841.4296875 2263.82714844 c 1
 1849.52734375 2204.18261719 1825.74316406 2112.70214844 1852.75 2071.93945312 c 1
 2035.31835938 2071.93945312 2217.88671875 2071.93945312 2400.45605469 2071.93945312 c 1
 2400.45605469 2103.92089844 2400.45605469 2135.90234375 2400.45605469 2167.8828125 c 1
EndSplineSet
Validated: 33
EndChar

StartChar: uniE31A
Encoding: 58138 58138 25
Width: 2114
Flags: HW
LayerCount: 2
Fore
SplineSet
331.717773438 -760.455078125 m 1
 199.954101562 -774.090820312 16.0390625 -671.73828125 192.994140625 -557.29296875 c 1
 304.734375 -443.977539062 432.228515625 -333.533203125 491.521484375 -182.348632812 c 1
 600.8671875 -26.1904296875 639.088867188 178.407226562 620.340820312 366.642578125 c 1
 589.627929688 514.71875 583.434570312 671.65625 483.344726562 791.30859375 c 1
 420.122070312 913.920898438 323.53515625 1000.171875 233.641601562 1103.73828125 c 1
 97.40234375 1185.19628906 84.9521484375 1293.36816406 216.209960938 1383.95800781 c 1
 314.78125 1501.59960938 438.743164062 1608.5859375 494.98828125 1753.83300781 c 1
 597.129882812 1848.77246094 592.952148438 2017.64941406 622.379882812 2148.71289062 c 1
 637.119140625 2282.00195312 601.602539062 2402.65722656 571.265625 2533.08789062 c 1
 521.236328125 2669.01464844 448.16796875 2790.46582031 353.916015625 2901.0078125 c 1
 307.471679688 2995.54394531 58.3359375 3112.8828125 161.423828125 3205.72265625 c 1
 470.4296875 3243.13964844 783.697265625 3222.60351562 1094.52734375 3228.87011719 c 1
 1382.63867188 3222.86328125 1673.13867188 3241.24316406 1959.55273438 3205.11035156 c 1
 2053.10253906 3116.59082031 1821.54589844 2988.45214844 1767.34960938 2894.12011719 c 1
 1691.47265625 2811.68359375 1606.95605469 2717.18359375 1609.22460938 2649.58496094 c 1
 1476.95898438 2464.98339844 1503.06738281 2220.50976562 1522.26660156 2007.41113281 c 0
 1539.32910156 1854.51074219 1623.95703125 1734.69433594 1707.75 1609.24121094 c 1
 1796.53417969 1554.56542969 1825.79589844 1412.85351562 1930.83886719 1385.24316406 c 1
 1985.08203125 1302.41894531 2040.70898438 1227.21484375 1924.64941406 1156.24511719 c 1
 1822.00878906 1041.30859375 1698.65039062 928.504882812 1630.29882812 793.764648438 c 1
 1632.95605469 749.125 1518.94726562 604.413085938 1520.86230469 501.357421875 c 1
 1484.1171875 328.845703125 1493.96386719 140.697265625 1549.71386719 -24.8486328125 c 0
 1596.15917969 -169.44921875 1689.38964844 -295.579101562 1781.9609375 -418.137695312 c 1
 1860.73535156 -484.125 2004.69042969 -600.67578125 1993.52148438 -707.31640625 c 1
 1838.11132812 -788.061523438 1652.8359375 -754.26953125 1483.48144531 -766.827148438 c 1
 1099.74804688 -768.254882812 714.938476562 -778.470703125 331.717773438 -760.455078125 c 1
EndSplineSet
Validated: 33
EndChar

StartChar: uniE31B
Encoding: 58139 58139 26
Width: 2576
Flags: HW
LayerCount: 2
Fore
SplineSet
800.3828125 -730.690429688 m 1
 611.190429688 -689.971679688 411.911132812 -659.7734375 257.944335938 -531.315429688 c 1
 100.103515625 -450.024414062 110.374023438 -256.640625 132.513671875 -106.474609375 c 0
 156.885742188 60.4990234375 243.44140625 209.016601562 299.546875 365.856445312 c 1
 409.981445312 569.640625 511.262695312 780.151367188 643.499023438 970.622070312 c 1
 716.962890625 1105.64355469 744.46484375 1264.12988281 674.43359375 1414.08398438 c 1
 615.983398438 1567.21777344 504.311523438 1692.23925781 440.122070312 1843.21582031 c 1
 378.0390625 1975.1640625 285.954101562 2094.28417969 246.051757812 2235.22851562 c 1
 176.471679688 2390.47558594 107.205078125 2552.53222656 124 2727.19824219 c 1
 92.853515625 2915.91796875 274.825195312 3029.93554688 422.184570312 3098.14648438 c 1
 756.794921875 3232.84570312 1128.01269531 3235.18847656 1483.44140625 3225.68066406 c 1
 1770.46484375 3202.95996094 2079.16796875 3173.10839844 2320.74121094 3001.70703125 c 1
 2504.57128906 2849.40039062 2454.62402344 2579.69726562 2388.22558594 2381.609375 c 1
 2321.02734375 2228.18847656 2273.02148438 2062.609375 2179.83105469 1923.54394531 c 1
 2087.69824219 1794.42089844 2034.58886719 1641.72558594 1948.79492188 1507.75585938 c 1
 1868.79980469 1375.00195312 1803.85546875 1204.96289062 1887.20898438 1057.60644531 c 0
 1985.11621094 881.440429688 2084.77734375 705.510742188 2189.39160156 533.225585938 c 1
 2275.29394531 414.209960938 2312.00683594 263.338867188 2371.15429688 127.915039062 c 1
 2428.41015625 -52.9619140625 2518.85253906 -266.965820312 2392.31347656 -440.250976562 c 1
 2232.36816406 -670.52734375 1930.32324219 -699.30078125 1676.05566406 -740.560546875 c 1
 1386.13769531 -776.598632812 1088.24609375 -788.970703125 800.3828125 -730.69140625 c 1
 800.3828125 -730.690429688 l 1
EndSplineSet
Validated: 33
EndChar

StartChar: uniE31C
Encoding: 58140 58140 27
Width: 3888
Flags: HW
LayerCount: 2
Fore
SplineSet
925.901367188 -761.6796875 m 1
 738.7734375 -662.745117188 832.391601562 -421.497070312 806.004882812 -249.625 c 1
 803.330078125 176.364257812 804.913085938 602.364257812 804.486328125 1028.35839844 c 1
 677.431640625 1195.10839844 531.209960938 971.977539062 579.765625 829.17578125 c 1
 567.336914062 342.001953125 590.786132812 -148.643554688 523.993164062 -632.612304688 c 1
 436.248046875 -880.583984375 131.897460938 -668.594726562 197.8515625 -462.484375 c 1
 186.095703125 50.580078125 157.919921875 563.208007812 120.3046875 1074.79980469 c 1
 116.099609375 1270.59960938 153.21484375 1537.03027344 374.250976562 1596.38964844 c 1
 676.095703125 1637.71386719 982.616210938 1621.41113281 1286.35058594 1638.93457031 c 1
 1266.44042969 1713.82519531 1330.89453125 1847.59375 1261.05957031 1895.12207031 c 1
 1081.44433594 1979.296875 899.069335938 2077.33496094 792.229492188 2247.79882812 c 1
 694.120117188 2380.13574219 697.186523438 2582.06054688 769.756835938 2725.52636719 c 1
 913.59375 2987.20800781 1215.3828125 3107.64257812 1489.46679688 3184.02734375 c 1
 1812.78710938 3243.66894531 2153.35449219 3248.58691406 2473.94238281 3170.82714844 c 1
 2771.79589844 3087.41894531 3101.9375 2924.65527344 3198.17773438 2606.31933594 c 1
 3224.34375 2427.15917969 3163.40820312 2241.53222656 3021.32910156 2125.421875 c 1
 2909.125 2014.64160156 2764.95507812 1948.62695312 2625.7109375 1879.421875 c 1
 2625.7109375 1671.078125 l 1
 2891.07519531 1663.46484375 3161.80078125 1694.19433594 3422.19042969 1635.3671875 c 0
 3568.45410156 1601.28417969 3718.734375 1511.04492188 3768.10351562 1364.30664062 c 1
 3750.36230469 706.8203125 3743.29101562 48.9951171875 3732.39746094 -608.489257812 c 1
 3702.87792969 -839.02734375 3391.66699219 -715.630859375 3426.39746094 -519.346679688 c 1
 3363.24414062 -2.8447265625 3385.83496094 520.837890625 3322.47167969 1037.26269531 c 1
 3248.20117188 1198.17285156 2926.0703125 1114.08398438 2985.72949219 923.0234375 c 1
 3009.54589844 450.352539062 3054.11328125 -22.287109375 3047.578125 -495.874023438 c 1
 3121.08398438 -709.571289062 2790.1875 -894.088867188 2735.79785156 -627.99609375 c 1
 2681.796875 -337.715820312 2710.6953125 -38.861328125 2701.87304688 255.198242188 c 1
 2701.72070312 517.9765625 2701.69140625 780.755859375 2701.59960938 1043.53515625 c 1
 2615.72558594 1177.95019531 2374.66992188 1144.90820312 2400.15820312 958.899414062 c 1
 2386.2734375 425.013671875 2400.46191406 -109.315429688 2399.79394531 -643.39453125 c 1
 2337.75195312 -779.254882812 2086.26953125 -769.349609375 2088.12402344 -597.3984375 c 1
 2038.11230469 -69.466796875 2055.38769531 463.247070312 2005.47949219 991.391601562 c 1
 1985.88378906 1261.09375 1667.13476562 1067.54101562 1740.11035156 872.775390625 c 1
 1726.58398438 379.009765625 1755.40429688 -115.115234375 1739.66992188 -608.799804688 c 1
 1704.66015625 -866.686523438 1363.46386719 -737.63671875 1419.00976562 -515.982421875 c 1
 1397.52539062 -3.458984375 1427.51464844 510.61328125 1397.98828125 1022.60644531 c 1
 1286.69921875 1248.18261719 1042.16210938 1005.078125 1125.43261719 821.963867188 c 1
 1108.69042969 339.45703125 1125.66113281 -144.528320312 1093.55566406 -626.203125 c 1
 1080.05371094 -702.216796875 1017.12207031 -802.161132812 925.895507812 -761.6796875 c 1
 925.901367188 -761.6796875 l 1
2227.10058594 2113.06152344 m 0
 2429.61621094 2154.84960938 2656.93066406 2249.578125 2740.61328125 2453.08203125 c 1
 2782.53613281 2643.84570312 2601.56445312 2774.24414062 2447.140625 2841.33105469 c 0
 2257.56738281 2922.30078125 2487.6875 2751.95019531 2437.42285156 2659.0703125 c 1
 2361.34765625 2457.34375 2099.62988281 2424.86035156 1911.390625 2430.80371094 c 1
 1735.96386719 2440.70996094 1463.70703125 2510.52832031 1476.86621094 2732.99804688 c 1
 1488.1484375 2793.29394531 1586.63964844 2895.21484375 1456 2822.13378906 c 1
 1290.05273438 2750.93261719 1094.62109375 2543.73925781 1245.296875 2367.72070312 c 1
 1434.75390625 2136.10742188 1760.00195312 2079.84082031 2043.62695312 2098.796875 c 0
 2104.83300781 2101.36816406 2166.70898438 2101.71679688 2227.10058594 2113.06152344 c 0
EndSplineSet
Validated: 33
EndChar

StartChar: uniE31D
Encoding: 58141 58141 28
Width: 4255
Flags: HW
LayerCount: 2
Fore
SplineSet
2135.68847656 -732.657226562 m 0
 2028.10839844 -547.787109375 1833.12207031 -458.885742188 1666.72558594 -350.135742188 c 1
 1504.11035156 -222.99609375 1415.21191406 -21.7177734375 1234.15625 82.28125 c 1
 1064.78808594 220.911132812 1007.94042969 458.62109375 784.926757812 534.950195312 c 1
 626.509765625 643.036132812 499.166015625 790.41796875 439.953125 968.834960938 c 1
 366.345703125 1102.00976562 239.213867188 1196.93945312 120 1292.10742188 c 1
 249.1640625 1431.47460938 406.981445312 1552.56054688 495.620117188 1721.45898438 c 1
 619.677734375 1940.93164062 887.04296875 2018.37109375 1021.5078125 2230.69238281 c 1
 1130.453125 2384.07226562 1258.28222656 2538.85253906 1421.07910156 2627.48535156 c 1
 1527.08203125 2735.86328125 1611.31347656 2876.84667969 1749.09863281 2950.16308594 c 1
 1864.68945312 3038.25488281 1985.36328125 3121.37597656 2084.51367188 3229 c 1
 2177.12792969 3109.50878906 2284.80566406 3005.93652344 2418.34667969 2931.8984375 c 1
 2607.91992188 2854.11621094 2712.859375 2669.55761719 2845.78125 2524.8359375 c 1
 2911.81542969 2371.41601562 3112.35546875 2350.7734375 3181.50097656 2184.91601562 c 0
 3268.29394531 1984.24707031 3504.07128906 1937.09277344 3635.57910156 1775.01464844 c 1
 3815.78515625 1609.25488281 3907.86621094 1372.5390625 4094.6953125 1211.93164062 c 1
 4236.29394531 1113.99511719 3969.10644531 1082.375 3946.36328125 983.3984375 c 1
 3825.65332031 866.442382812 3832.9296875 687.790039062 3713.1328125 572.33984375 c 1
 3604.01464844 451.313476562 3414.31640625 400.779296875 3352.22558594 254.659179688 c 1
 3266.41601562 90.216796875 3070.05957031 41.8310546875 2969.84179688 -111.861328125 c 1
 2832.42382812 -266.16015625 2690.94335938 -416.336914062 2510.79394531 -519.487304688 c 1
 2390.05371094 -550.755859375 2226.65625 -881.596679688 2135.68847656 -732.657226562 c 0
2209.83789062 -315.373046875 m 1
 2330.08789062 -78.79296875 2518.03613281 123.677734375 2755.10839844 247.953125 c 1
 2882.21386719 285.981445312 2908.77246094 396.525390625 2759.62109375 420.442382812 c 1
 2585.30566406 465.037109375 2457.74804688 613.912109375 2362.77539062 747.096679688 c 1
 2338.12011719 883.241210938 2195.99804688 1125.80664062 2128.90820312 872.599609375 c 1
 2038.45410156 700.029296875 1915.35742188 541.147460938 1742.62011719 452.108398438 c 1
 1630.34570312 411.71484375 1425.32226562 297.762695312 1636.25390625 222.7734375 c 1
 1804.29492188 123.852539062 1983.48144531 23.9560546875 2072.06152344 -159.181640625 c 1
 2109.91894531 -196.688476562 2129.45605469 -392.041992188 2209.83789062 -315.372070312 c 1
 2209.83789062 -315.373046875 l 1
3141.359375 678.461914062 m 1
 3229.25195312 904.655273438 3428.46484375 1066.15722656 3646.45898438 1161.81542969 c 1
 3785.10058594 1288.28808594 3436.45214844 1330.38964844 3387.89257812 1434.15332031 c 1
 3245.12207031 1536.19140625 3161.70117188 1688.49316406 3078.84863281 1835.00292969 c 1
 2925.04589844 1731.88964844 2927.86914062 1512.53125 2789.74121094 1393.81542969 c 1
 2708.14941406 1331.56738281 2307.76757812 1249.86523438 2532.41113281 1137.52148438 c 1
 2661.578125 1064.60253906 2792.12109375 969.189453125 2886.91796875 841.427734375 c 1
 2971.52929688 794.400390625 3040.66796875 444.9609375 3141.359375 678.461914062 c 1
1320.86914062 695.51171875 m 1
 1396.65820312 842.118164062 1482.609375 993.499023438 1627.64746094 1086.94238281 c 1
 1766.98730469 1156.70507812 2081.47851562 1285.8203125 1764.06347656 1371.33007812 c 1
 1538.76269531 1459.44726562 1415.30566406 1678.33496094 1306.72753906 1879.43554688 c 1
 1145.5078125 1860.44238281 1146.27832031 1544.43457031 986.19921875 1461.93066406 c 1
 924.299804688 1384.37109375 554.708984375 1336.84375 702.159179688 1218.62402344 c 1
 874.619140625 1099.9140625 1110.07421875 999.543945312 1184.37890625 778.044921875 c 1
 1224.15722656 734.256835938 1255.23730469 538.921875 1320.86914062 695.51171875 c 1
2239.22167969 1632.69042969 m 1
 2299.09667969 1801.80761719 2435.90820312 1939.67089844 2582.74804688 2041.81445312 c 1
 2676.68554688 2099.20996094 2854.45605469 2167.30566406 2662.70703125 2231.23339844 c 1
 2434.91308594 2319.18652344 2306.8671875 2532.609375 2178.92871094 2726.35546875 c 1
 2068.2578125 2772.359375 1995.43261719 2499.36523438 1879.3359375 2442.375 c 1
 1826.57617188 2310.73925781 1545.72167969 2260.82324219 1586.99414062 2138.80664062 c 1
 1795.5703125 2001.43066406 1976.09277344 1824.15722656 2101.3984375 1609.07324219 c 1
 2145.01953125 1509.46289062 2215.2578125 1544.31835938 2239.22167969 1632.69042969 c 1
EndSplineSet
Validated: 33
EndChar

StartChar: uniE31E
Encoding: 58142 58142 29
Width: 4240
Flags: HW
LayerCount: 2
Fore
SplineSet
1620 3229 m 1
 2120 2562.33398438 l 1
 2620 3229 l 1
 4120 1229 l 1
 2620 -771 l 1
 2120 -104.333984375 l 1
 1620 -771 l 1
 120 1229 l 1
 1620 3229 l 1
1620 2477 m 1
 672 1229 l 1
 1620 -75 l 1
 1862.13476562 239.486328125 l 1
 1120 1229 l 1
 1845.640625 2196.52148438 l 1
 1620 2477 l 1
2620 2477 m 1
 2400.61132812 2188.18554688 l 1
 3120 1229 l 1
 2384.72265625 248.630859375 l 1
 2620 -75 l 1
 3624 1229 l 1
 2620 2477 l 1
2134.34375 1837.65625 m 1
 1672 1229 l 1
 2134.34375 593.033203125 l 1
 2624 1229 l 1
 2134.34375 1837.65625 l 1
EndSplineSet
Validated: 1
EndChar

StartChar: uniE31F
Encoding: 58143 58143 30
Width: 3283
Flags: HW
LayerCount: 2
Fore
SplineSet
864.643554688 -743.431640625 m 1
 492.213867188 -565.931640625 310.421875 -159.171875 215.537109375 220.521484375 c 1
 85.1181640625 623.91796875 126.293945312 1052.13378906 125.751953125 1468.94335938 c 1
 133.35546875 1793.49121094 192.501953125 2117.57324219 292.514648438 2425.72851562 c 1
 408.646484375 2731.04785156 577.64453125 3055.14941406 891.372070312 3193.82714844 c 1
 1078.29199219 3244.04199219 1268.69921875 3175.13671875 1423.21972656 3069.70410156 c 1
 1526.45800781 3055.59570312 1639.27832031 2831.98730469 1724.24707031 2925.84375 c 1
 1850.9453125 3078.09375 2014.52832031 3220.27929688 2222.70898438 3227.97167969 c 1
 2399.66894531 3241.39257812 2562.97460938 3121.49902344 2659.69921875 2978.21386719 c 1
 3004.18554688 2529.13476562 3169.27929688 1956.61425781 3162.38769531 1393.62988281 c 1
 3162.02148438 938.887695312 3185.76074219 470.893554688 3030.45996094 35.4443359375 c 1
 2931.30957031 -281.850585938 2714.01953125 -576.408203125 2394.69042969 -696.578125 c 1
 2223.51757812 -772.083007812 2014.43359375 -797.231445312 1886.54003906 -630.77734375 c 1
 1775.5078125 -526.439453125 1615.81835938 -337.58203125 1491.48046875 -536.796875 c 1
 1384.62304688 -664.739257812 1251.27441406 -801.94921875 1066.93554688 -764.830078125 c 1
 999.435546875 -762.561523438 929.373046875 -766.124023438 864.643554688 -743.431640625 c 1
1282.19433594 -318.561523438 m 0
 1412.52441406 -161.5 1467.27246094 58.935546875 1439.39453125 259.610351562 c 1
 1359.29589844 483.680664062 1155.87890625 107.296875 1041.24023438 320.432617188 c 1
 896.461914062 438.8359375 970.423828125 707.79296875 1159.66113281 725.620117188 c 1
 1269.01855469 687.530273438 1418.65625 462.333984375 1478.95996094 687.068359375 c 1
 1486.25488281 807.963867188 1547.1640625 1148.09472656 1339.33984375 1071.13867188 c 1
 1303.16601562 831.393554688 958.46484375 810.688476562 957.6953125 1074.09472656 c 1
 930.53125 1203.35253906 933.758789062 1463.31152344 1114.46972656 1452.078125 c 1
 1234.04394531 1398.56445312 1414.78320312 1123.02832031 1513.07519531 1344.12402344 c 1
 1554.04003906 1495.84277344 1581.01660156 1689.11132812 1484.20703125 1822.55761719 c 1
 1323.69726562 1885.13574219 1227.6171875 1532.50390625 1066.26269531 1738.4921875 c 1
 991.203125 1867.08789062 997.299804688 2193.2890625 1211.84863281 2133.01074219 c 1
 1348.46582031 1939.02441406 1475.0703125 2161.8671875 1425.0390625 2316.38476562 c 1
 1411.62597656 2511.28027344 1352.97851562 2767.34082031 1136.08496094 2823.18457031 c 1
 965.903320312 2782.58886719 934.171875 2571.51660156 879.1484375 2430.07324219 c 1
 825.486328125 2277.87304688 800.879882812 2118.93066406 771.342773438 1962.93847656 c 0
 677.481445312 1396.78417969 650.755859375 811.387695312 768.288085938 246.581054688 c 1
 823.236328125 52.5361328125 897.373046875 -151.977539062 1047.84472656 -294.666992188 c 0
 1114.42285156 -355.173828125 1212.17089844 -405.483398438 1282.19433594 -318.561523438 c 0
2247.92089844 -338.047851562 m 1
 2454.81640625 -204.311523438 2487.01074219 66.75 2524.70703125 290.811523438 c 1
 2618.65136719 926.314453125 2590.99414062 1576.38964844 2478.86132812 2207.56933594 c 1
 2437.0546875 2377.31933594 2400.08007812 2560.7890625 2301.25488281 2706.42480469 c 1
 2230.15039062 2881.50878906 2001.05371094 2808.7265625 1952.83886719 2649.32519531 c 1
 1865.01855469 2480.04003906 1810.49511719 2269.64746094 1873.10253906 2084.47070312 c 1
 1992.33789062 1965.74414062 2145.47167969 2285.01855469 2253.35253906 2052.38085938 c 1
 2369.98339844 1935.28125 2362.8203125 1630.56835938 2136.8046875 1680.72558594 c 1
 1982.67871094 1698.60058594 1870.1953125 1987.75195312 1717.92089844 1769.43847656 c 1
 1649.22558594 1616.4765625 1636.77734375 1374.91210938 1791.36523438 1267.79589844 c 1
 1987.66503906 1154.07617188 2105.20019531 1556.89160156 2257.13476562 1402.79785156 c 1
 2363.57324219 1264.68847656 2379.79785156 1013.88964844 2202.60742188 927.108398438 c 1
 2040.73632812 863.861328125 2070.37597656 1216.24804688 1869.39941406 1093.15039062 c 1
 1668.24316406 1035.86914062 1683.77441406 767.750976562 1802.99414062 638.9453125 c 1
 1950.04980469 448.497070312 2185.92382812 905.063476562 2267.88476562 596.09375 c 1
 2343.59472656 421.66796875 2156.17871094 138.975585938 1974.90234375 294.57421875 c 1
 1777.06152344 284.930664062 1771.9765625 -15.6923828125 1874.77929688 -139.453125 c 1
 1949.91503906 -255.349609375 2105.18261719 -369.37890625 2247.92089844 -338.047851562 c 1
EndSplineSet
Validated: 33
EndChar

StartChar: uniE320
Encoding: 58144 58144 31
Width: 4426
Flags: HW
LayerCount: 2
Fore
SplineSet
2076.20019531 -705.255859375 m 1
 1877.84765625 -490.700195312 1785.28613281 -209.584960938 1692.73144531 60.767578125 c 1
 1567.54492188 242.34765625 1507.33789062 -152.030273438 1427.87402344 -220.43359375 c 1
 1284.26367188 -489.553710938 1010.21484375 -730.170898438 685.836914062 -691.51171875 c 1
 496.313476562 -649.713867188 279.098632812 -535.9609375 233.530273438 -331.33203125 c 1
 64.212890625 24.4384765625 94.3798828125 457.494140625 257.201171875 810.868164062 c 1
 316.27734375 994.438476562 200.49609375 1162.95410156 184.03125 1340.46777344 c 1
 168.814453125 1567.49414062 156.5078125 1809.11816406 267.975585938 2015.671875 c 1
 343.965820312 2173.96875 304.380859375 2367.984375 401.240234375 2515.45996094 c 1
 569 2553.01367188 735.522460938 2483.13769531 889 2477.31152344 c 1
 1123.79199219 2499.95117188 1358.23046875 2560.95507812 1597.70703125 2537.19921875 c 1
 1807.9765625 2456.30273438 1958.0546875 2632.40527344 2020.57617188 2814.57910156 c 1
 2098.32128906 3015.94140625 1852.56445312 3144.640625 1681.77636719 3116.44335938 c 1
 1462.21679688 3187.31152344 1888.91992188 3277.71484375 1967.75 3185.66992188 c 1
 2124.41015625 3077.18554688 2327.78515625 3072.40722656 2477.609375 3196.23535156 c 1
 2557.25097656 3247.73925781 2862.01171875 3248.60351562 2787.16894531 3124.76757812 c 1
 2586.06542969 3177.10546875 2308.37890625 3014.58203125 2418.47851562 2784.06835938 c 1
 2477.11621094 2530.16308594 2720.39941406 2488.62792969 2939.19140625 2550.40722656 c 1
 3109.16894531 2524.33007812 3294.69042969 2524.05273438 3453.32421875 2477.27734375 c 1
 3576.48632812 2502.74414062 3709.85742188 2491.41308594 3866.96875 2525.90820312 c 1
 4159.78222656 2575.10058594 4065.84570312 2185.03808594 4161.50683594 2017.33105469 c 1
 4281.2734375 1787.73828125 4243.42089844 1519.046875 4233.2890625 1270.50292969 c 1
 4185.4921875 1105.53515625 4098.56152344 926.806640625 4182.59863281 755.615234375 c 0
 4370.96289062 377.244140625 4336.66796875 -97.3779296875 4132.6328125 -462.235351562 c 1
 3931.96875 -751.965820312 3475.15429688 -766.833984375 3232.20019531 -520.921875 c 1
 3046.67871094 -355.234375 2955.88964844 -117.46484375 2831.40234375 91.2080078125 c 1
 2675.61328125 172.637695312 2693.39257812 -190.9296875 2613.92578125 -281.150390625 c 1
 2507.88378906 -458.866210938 2403.39648438 -819.896484375 2146.66601562 -765.470703125 c 1
 2119.8671875 -749.541015625 2097.07910156 -728.103515625 2076.19921875 -705.255859375 c 1
 2076.20019531 -705.255859375 l 1
2296.83007812 -422.275390625 m 1
 2473.03027344 -199.116210938 2556.85742188 95.5107421875 2509.35839844 377.725585938 c 1
 2505.33789062 589.815429688 2409.42675781 780.525390625 2340.16699219 976.391601562 c 1
 2210.08984375 1249.70703125 2021.1171875 920.515625 2006.33691406 758.15234375 c 1
 1905.09960938 524.66796875 1894.35058594 257.818359375 1924.87207031 8.001953125 c 1
 1989.81738281 -150.310546875 2051.54492188 -489.708007812 2262.93652344 -453.751953125 c 1
 2296.83007812 -422.275390625 l 1
980.392578125 -394.239257812 m 0
 1184.08984375 -287.541992188 1259.28222656 -49.1484375 1364.64648438 140.11328125 c 1
 1539.78613281 523.278320312 1565.91113281 964.887695312 1810.84960938 1318.37011719 c 1
 1896.30957031 1393.56347656 1837.26464844 1625.51367188 1716.91015625 1570.42285156 c 1
 1490.54003906 1489.0234375 1241.95996094 1432.62792969 1055.51660156 1277.265625 c 1
 770.49609375 1159.046875 535.135742188 919.694335938 453.884765625 617.940429688 c 1
 350.991210938 314.475585938 350.517578125 -38.82421875 505.271484375 -324.448242188 c 1
 610.538085938 -476.455078125 831.390625 -472.329101562 980.392578125 -394.239257812 c 0
3818.32910156 -411.098632812 m 1
 4019.70898438 -272.96875 4034.23046875 4.1123046875 4038.48242188 226.821289062 c 0
 4045.50097656 513.205078125 3929.20019531 788.127929688 3765.03710938 1017.47265625 c 1
 3635.71386719 1158.21191406 3444.39648438 1218.38769531 3302.05273438 1335.24511719 c 1
 3099.00878906 1438.44335938 2881.73632812 1534.57421875 2655.30761719 1565.10253906 c 1
 2463.89257812 1398.69726562 2740.91210938 1178.53320312 2772.42871094 993.1484375 c 1
 2922.96289062 597.953125 3001.60644531 170.973632812 3237.375 -187.868164062 c 1
 3338.04199219 -399.288085938 3600.90039062 -515.71875 3818.32910156 -411.09765625 c 1
 3818.32910156 -411.098632812 l 1
659.810546875 1238.34765625 m 0
 872.3359375 1360.79101562 1060.26367188 1524.63378906 1293.92089844 1609.34765625 c 1
 1458.046875 1698.58789062 1656.64355469 1715.15625 1805.20019531 1830.87792969 c 1
 1879.82714844 1894.78808594 1960.40527344 1978.40625 1877.51367188 2066.79492188 c 1
 1816.4609375 2259.56152344 1614.44628906 2366.89453125 1419.20898438 2324.39355469 c 0
 1213.29589844 2283.70214844 1004.94628906 2261.26074219 795.076171875 2281.16015625 c 1
 538.278320312 2325.27148438 452.629882812 2066.90429688 423.834960938 1864.34082031 c 1
 388.584960938 1654.80566406 354.927734375 1404.72070312 470.037109375 1217.0703125 c 1
 529.380859375 1181.0703125 603.975585938 1209.28710938 659.810546875 1238.34765625 c 0
3956.89746094 1237.79980469 m 1
 4091.90722656 1455.74023438 4033.15820312 1732.68652344 3977.23339844 1967.53222656 c 1
 3964.98828125 2186.4921875 3792.51269531 2326.18554688 3576.22558594 2281.87890625 c 1
 3364.96386719 2275.17871094 3156.21386719 2304.171875 2948.6328125 2334.76367188 c 1
 2723.12792969 2360.30175781 2477.078125 2150.76660156 2564.05273438 1914.88574219 c 1
 2670.49804688 1735.61425781 2906.13085938 1715.32421875 3078.97851562 1628.34472656 c 1
 3308.5390625 1545.06445312 3509.15625 1406.98535156 3708.7421875 1270.18652344 c 1
 3782.67382812 1232.05664062 3883.59960938 1155.81738281 3956.89746094 1237.79980469 c 1
2283.34082031 1512.12011719 m 1
 2507.25488281 1639.13378906 2167.23828125 1948.90039062 2105.16015625 1661.29980469 c 1
 2078.71972656 1569.79785156 2197.08886719 1446.90820312 2283.34082031 1512.12011719 c 1
2350.74316406 2134.33789062 m 1
 2417.79296875 2293.43554688 2419.36523438 2539.21679688 2246.37109375 2630.41992188 c 1
 2028.19433594 2656.51171875 2016.51074219 2313.86035156 2069.83300781 2163.63476562 c 1
 2092.51660156 2025.47167969 2301.47558594 2004.421875 2350.74316406 2134.33789062 c 1
EndSplineSet
Validated: 33
EndChar

StartChar: uniE321
Encoding: 58145 58145 32
Width: 4145
Flags: HW
LayerCount: 2
Fore
SplineSet
550.901367188 -738.916015625 m 1
 462.44140625 -547.31640625 639.943359375 -374.06640625 763.125 -249.120117188 c 1
 944.618164062 -158.315429688 894.23828125 180.17578125 678.21484375 36.6181640625 c 1
 527.708007812 -21.146484375 460.787109375 -208.452148438 363.587890625 -333.403320312 c 1
 134.892578125 -508.782226562 54.357421875 -160.2734375 177.424804688 -13.828125 c 1
 266.749023438 106.26171875 305.796875 285.533203125 363.989257812 430.528320312 c 1
 418.951171875 599.806640625 446.428710938 788.185546875 450.692382812 969.499023438 c 1
 449.591796875 1267.57910156 472.204101562 1571.26660156 415.08203125 1864.9765625 c 1
 370.8515625 2021.99023438 319.391601562 2189.7109375 223.828125 2329.49121094 c 1
 102.90234375 2440.65820312 63.50390625 2848.74804688 316.122070312 2641.39746094 c 1
 474.041992188 2532.82910156 607.940429688 2306.20410156 832.471679688 2385.19921875 c 1
 966.110351562 2542.53222656 712.620117188 2741.85351562 585.03515625 2837.65429688 c 1
 438.509765625 2915.58105469 350.440429688 3187.85546875 600.938476562 3148.61132812 c 1
 778.000976562 3140.89453125 925.903320312 3050.90429688 1070.23242188 2966.32324219 c 0
 1226.2265625 2878.25292969 1374.48828125 2786.87988281 1547.64453125 2750.15820312 c 1
 1923.79199219 2731.16210938 2312.67480469 2699.58398438 2678.82128906 2803.53808594 c 1
 2809.91113281 2856.45214844 2965.55273438 2891.23242188 3098.62597656 2965.21386719 c 1
 3263.98046875 3031.96582031 3383.83203125 3201.47167969 3563.984375 3229 c 1
 3720.35351562 3148.86035156 3534.578125 2919.50195312 3464.02441406 2810.18847656 c 1
 3333.09960938 2689.25683594 3205.34960938 2461.76757812 3285.40234375 2296.97363281 c 1
 3435.7578125 2261.20507812 3546.91699219 2411.94433594 3618.34960938 2514.96972656 c 1
 3643.2421875 2693.125 3902.62695312 2867.84472656 4014.9609375 2680.65332031 c 1
 4061.54785156 2486.91503906 3935.48730469 2333.32128906 3858.03710938 2167.62109375 c 1
 3764.65429688 2007.07324219 3728.46972656 1820.99804688 3696.9453125 1635.15332031 c 1
 3646.98242188 1275.71679688 3661.45996094 905.63671875 3727.19335938 549.302734375 c 1
 3778.87597656 377.530273438 3853.98925781 207.252929688 3943.71386719 58.259765625 c 1
 4075.44433594 -112.467773438 3957.16113281 -412.400390625 3731.55957031 -240.752929688 c 0
 3599.73046875 -138.350585938 3520.3984375 57.4326171875 3327.69726562 27.181640625 c 1
 3106.85546875 -26.697265625 3334.72070312 -278.633789062 3450.37988281 -336.7109375 c 1
 3576.37304688 -433.987304688 3772.72167969 -578.311523438 3670.94042969 -758.623046875 c 1
 3488.38085938 -821.237304688 3398.35351562 -627.930664062 3238.00195312 -588.168945312 c 1
 3058.31640625 -486.623046875 2855.87207031 -436.07421875 2660.18652344 -374.147460938 c 1
 2478.9296875 -337.13671875 2295.70703125 -298.9765625 2106.62011719 -305.8515625 c 1
 1863.75585938 -309.139648438 1612.22363281 -287.641601562 1376.45019531 -350.803710938 c 1
 1207.06933594 -388.389648438 1040.20605469 -463.170898438 889.048828125 -549.72265625 c 1
 769.23046875 -573.822265625 678.206054688 -828.803710938 550.901367188 -738.916015625 c 1
1472.37402344 317.514648438 m 1
 1733.24023438 430.944335938 2026.96386719 379.411132812 2302.80371094 386.540039062 c 1
 2418.53125 413.432617188 2693.97363281 260.290039062 2709.72167969 393.881835938 c 1
 2488.15527344 498.577148438 2623.41699219 836.982421875 2840.09863281 666.946289062 c 0
 2912.26367188 606.11328125 3107.72265625 449.6015625 3013.29101562 641.508789062 c 1
 2933.70019531 1021.74707031 2998.30664062 1408.1015625 3000.63085938 1791.40722656 c 1
 2958.70117188 1870.69921875 2625.16503906 1674.00683594 2682.1953125 1911.32128906 c 1
 2619.10351562 2038.93066406 2946.12695312 2264.63769531 2714.8046875 2253.66113281 c 0
 2269.73730469 2239.17285156 1824.13378906 2225.6015625 1379.24511719 2249.5234375 c 1
 1241.60644531 2221.70410156 1508.47558594 2073.09277344 1423.109375 1960.82910156 c 1
 1406.25878906 1739.58886719 1135.61035156 1844.43847656 1028.98925781 1877.71484375 c 1
 1077.48828125 1712.83105469 1052.11425781 1522.36523438 1101.59667969 1360.50195312 c 1
 1099.42382812 1121.1953125 1069.60839844 882.41796875 1071.09082031 643.357421875 c 1
 1165.13085938 611.796875 1453.56835938 715.482421875 1416.58496094 475.848632812 c 1
 1370.39453125 397.490234375 1300.8046875 224.59765625 1472.375 317.514648438 c 1
 1472.37402344 317.514648438 l 1
EndSplineSet
Validated: 33
EndChar

StartChar: uniE322
Encoding: 58146 58146 33
Width: 4187
Flags: HW
LayerCount: 2
Fore
SplineSet
2346.65625 -734.278320312 m 1
 2145.91699219 -644.522460938 2126.45898438 -366.026367188 2260.75097656 -212.467773438 c 1
 2210.84277344 12.7392578125 2151.45605469 235.393554688 2071.37695312 451.944335938 c 1
 1906.66601562 583.883789062 1782.01074219 352.51171875 1720.63574219 221.897460938 c 1
 1650.30566406 94.8427734375 1544.48632812 -41.4287109375 1562.7265625 -200.55859375 c 1
 1558.73730469 -288.63671875 1577.32519531 -383.72265625 1562.03710938 -468.006835938 c 1
 1478.44042969 -612.482421875 1311.49121094 -704.0078125 1144.21875 -647.153320312 c 1
 898.353515625 -572.803710938 843.7890625 -186.59375 1078.82421875 -64.927734375 c 1
 1254.88867188 -21.3056640625 1308.55761719 165.978515625 1386.17675781 293.358398438 c 1
 1441.89941406 419.079101562 1603.35839844 753.86328125 1325.27441406 680.999023438 c 1
 1163.47070312 620.98828125 983.260742188 589.43359375 838.728515625 477.1640625 c 1
 792.571289062 282.811523438 544.331054688 136.490234375 363.581054688 255.701171875 c 1
 135.858398438 359.62109375 126.344726562 709.153320312 340.998046875 830.556640625 c 1
 515.926757812 939.397460938 691.150390625 761.491210938 856.157226562 857.657226562 c 1
 1005.35742188 922.81640625 1145.1953125 966.296875 1279.85253906 1049.75097656 c 1
 1478.21972656 1243.65429688 1063.35546875 1303.99511719 925.71484375 1336.95410156 c 1
 715.344726562 1452.31152344 559.840820312 1214.63964844 348.254882812 1281.40917969 c 0
 155.438476562 1340.95507812 52.0078125 1593.80859375 170.030273438 1765.94335938 c 1
 276.422851562 1960.87304688 586.26171875 1973.49316406 711.21484375 1791.875 c 1
 805.415039062 1643.82324219 1030.97460938 1678.33300781 1188.0546875 1645.93457031 c 1
 1415.33789062 1572.25488281 1413.61328125 1796.18457031 1279.81347656 1913.59570312 c 1
 1172.93261719 2111.46191406 997.1796875 2214.15722656 792.974609375 2266.87597656 c 1
 581.640625 2397.74609375 633.415039062 2743.828125 858.745117188 2829.68164062 c 1
 1039.27441406 2928.5078125 1298.88476562 2783.26171875 1303.67089844 2574.19726562 c 1
 1282.31933594 2395.45996094 1410.34472656 2273.75292969 1521.16992188 2152.01269531 c 1
 1597.51953125 1987.875 1913.91992188 1862.46484375 1915.30078125 2136.33203125 c 1
 1926.65722656 2279.77832031 1926.87207031 2423.80175781 1932.22070312 2567.546875 c 1
 1826.41113281 2679.63476562 1717.95898438 2815.65332031 1762.90136719 2981.49511719 c 1
 1804.49902344 3208.25390625 2128.95800781 3316.69921875 2291.69628906 3143.81640625 c 1
 2450.27636719 3020.66601562 2438.7578125 2787.4140625 2298.79492188 2654.73632812 c 1
 2224.54003906 2603.94140625 2268.98242188 2506.06738281 2257.06542969 2430.546875 c 1
 2258.91601562 2276.30859375 2250.99511719 2121.00488281 2269.59960938 1967.78320312 c 1
 2448.54492188 1751.50683594 2639.85351562 2132.21289062 2780.30175781 2236.7265625 c 1
 2960.83203125 2384.99121094 2825.53417969 2700.93457031 3097.25 2786.75097656 c 1
 3281.875 2871.63574219 3535.58984375 2723.7265625 3535.06152344 2514.05371094 c 1
 3581.7109375 2280.15917969 3359.23046875 2148.18164062 3159.32714844 2143.83984375 c 1
 2997.44726562 2001.76367188 2860.81738281 1833.58105469 2736.07324219 1659.60546875 c 1
 2662.2734375 1407.62792969 3050.61230469 1496.28613281 3195.05273438 1454.34472656 c 1
 3419.24902344 1366.70019531 3539.78222656 1630.50976562 3750.23925781 1609.44921875 c 1
 3910.90722656 1621.49414062 4037.09082031 1475.71191406 4065.46972656 1332.39746094 c 1
 4093.75976562 1105.46679688 3846.12792969 878.579101562 3627.77441406 981.216796875 c 1
 3456.48242188 1144.26269531 3217.86035156 1141.12011719 2995.53515625 1122.25390625 c 1
 2818.12890625 1162.11425781 2645.01464844 990.84765625 2837.8515625 858.6015625 c 1
 2968.22070312 747.357421875 3109.7578125 636.561523438 3253.28125 549.106445312 c 1
 3432.22167969 549.3671875 3682.60839844 545.057617188 3729.24902344 325.337890625 c 1
 3779.63574219 142.0234375 3670.93066406 -85.9716796875 3466.67871094 -95.4853515625 c 1
 3232.90917969 -145.78125 3100.19921875 71.6533203125 3055.88769531 263.856445312 c 1
 2913.75976562 399.33203125 2743.75292969 537.661132812 2557.28320312 592.631835938 c 1
 2330.21972656 526.768554688 2526.93554688 224.440429688 2529.15917969 57.939453125 c 0
 2532.35742188 -164.3828125 2828.06933594 -191.073242188 2829.48535156 -416.268554688 c 1
 2854.11816406 -658.791015625 2561.36523438 -855.23046875 2346.65527344 -734.278320312 c 1
 2346.65625 -734.278320312 l 1
2135.07910156 887.0859375 m 1
 2331.171875 941.135742188 2443.37011719 1148.69824219 2378.95410156 1342.41015625 c 0
 2321.56054688 1503.72460938 2128.65136719 1630.69824219 1955.734375 1565.01660156 c 1
 1754.26464844 1515.80957031 1624.02441406 1258.82421875 1733.234375 1074.53222656 c 1
 1799.26074219 936.590820312 1984.20410156 833.439453125 2135.07910156 887.0859375 c 1
EndSplineSet
Validated: 33
EndChar

StartChar: uniE323
Encoding: 58147 58147 34
Width: 4895
Flags: HW
LayerCount: 2
Fore
SplineSet
726.186523438 -744.154296875 m 1
 705.073242188 -512.201171875 892.733398438 -300.810546875 1040.26953125 -135.966796875 c 1
 1385.06152344 187.268554688 1936.21972656 250.7734375 2179.54589844 687.16796875 c 1
 2299.11230469 948.977539062 2314.93554688 1251.17285156 2289.24902344 1534.18847656 c 1
 2204.45703125 1903.67480469 1887.61523438 2220.11230469 1502.02148438 2254.84960938 c 0
 1275.51660156 2277.34472656 1035.44628906 2239.12695312 826.89453125 2146.71972656 c 1
 370.255859375 1905.37988281 208.68359375 1200.49121094 593.36328125 825.63671875 c 0
 779.454101562 643.799804688 1070.34179688 495.21875 1322.90625 636.702148438 c 1
 1598.30859375 745.916015625 1836.73730469 1014.50878906 1804.45703125 1326.37402344 c 1
 1820.90917969 1532.05664062 1654.91992188 1713.91796875 1479.38476562 1797.2109375 c 1
 1259.90234375 1873.40136719 981.202148438 1788.94824219 849.709960938 1596.09863281 c 1
 778.759765625 1417.32617188 802.515625 1129.61621094 1037.03417969 1095.50878906 c 1
 1229.41699219 981.125976562 1503.50195312 1362.60644531 1201.50878906 1355.43554688 c 1
 1030.44140625 1211.73632812 827.838867188 1395.95898438 1040.76171875 1529.59277344 c 1
 1245.68457031 1748.34765625 1640.12890625 1499.30664062 1565.80957031 1224.19140625 c 1
 1502.62207031 863.32421875 1011.48046875 733.108398438 751.615234375 967.760742188 c 1
 541.590820312 1167.859375 484.733398438 1556.39355469 707.91796875 1769.09667969 c 1
 847.841796875 1951.96484375 1060.50390625 2067.49707031 1293.69628906 2057.47363281 c 1
 1659.97363281 2115.16113281 1967.55566406 1776.32128906 2035.41796875 1441.52539062 c 0
 2093.74023438 1143.35058594 1991.86230469 823.078125 1763.45800781 620.7734375 c 1
 1621.70605469 465.331054688 1435.53515625 345.950195312 1221.93261719 335.790039062 c 1
 993.115234375 294.379882812 755.451171875 332.889648438 570.135742188 480.01171875 c 1
 119.059570312 785.370117188 -12.1572265625 1443.20605469 264.047851562 1907.66308594 c 1
 449.665039062 2253.65429688 813.1015625 2538.58300781 1222.27246094 2505.83496094 c 1
 1657.44628906 2513.14453125 2078.5078125 2375.66308594 2509.9921875 2355.11523438 c 1
 2856.69921875 2371.69726562 3189.23632812 2492.84472656 3471.96484375 2692.8671875 c 1
 3706.47070312 2842.26953125 3869.49121094 3080.76660156 4103.70800781 3229 c 1
 4286.49804688 3099.18457031 4028.609375 2832.06152344 3936.8828125 2689.09863281 c 1
 3622.71191406 2286.1171875 3013.69921875 2269.96582031 2733.20703125 1826.50878906 c 0
 2528.02734375 1509.36523438 2531.3203125 1093.65234375 2642.45996094 743.965820312 c 1
 2757.20703125 495.015625 2978.77539062 289.174804688 3252.1796875 233.893554688 c 1
 3503.55273438 177.036132812 3791.42578125 151.83984375 4019.93652344 295.012695312 c 1
 4417.25488281 467.981445312 4616.68652344 968.256835938 4468.69042969 1369.84667969 c 1
 4340.73828125 1623.49902344 4100.43554688 1879.87988281 3791.47851562 1855.43359375 c 1
 3438.71875 1872.90722656 3116.99902344 1585.34375 3055.171875 1246.33105469 c 1
 3023.19042969 1031.11132812 3108.81152344 813.935546875 3303.671875 703.955078125 c 1
 3584.421875 513.419921875 4070.8671875 700.041015625 4093.76464844 1054.58984375 c 1
 4120.20019531 1296.29003906 3810.89648438 1457.11621094 3622.421875 1311.30566406 c 0
 3424.82324219 1158.76660156 3715.94726562 1013.10351562 3845.58984375 1152.90234375 c 1
 4105.84765625 1037.61914062 3688.89355469 744.099609375 3517.69824219 863.400390625 c 1
 3247.5703125 936.134765625 3223.05175781 1329.12988281 3439.55175781 1477.01171875 c 1
 3642.81835938 1628.36425781 3974.17285156 1664.28808594 4160.12402344 1465.68261719 c 1
 4464.07714844 1169.12207031 4306.66113281 594.514648438 3910.71191406 464.298828125 c 1
 3639.68847656 321.35546875 3289.1953125 365.012695312 3069.62890625 581.263671875 c 1
 2818.22167969 820.88671875 2733.52441406 1229.33886719 2895.24121094 1541.99511719 c 1
 3053.70605469 1930.59667969 3496.61621094 2161.37402344 3905.07421875 2128.13769531 c 1
 4202.43652344 2096.42871094 4468.43359375 1914.0234375 4615.15332031 1654.984375 c 1
 4787.328125 1386.88769531 4816.79296875 1040.046875 4721.08007812 740.55859375 c 1
 4535.18066406 277.891601562 4070.04589844 -114.860351562 3550.06835938 -66.8232421875 c 1
 3207.91308594 -59.8564453125 2877.9765625 37.0673828125 2544.66503906 100.103515625 c 1
 2121.63378906 137.046875 1693.74804688 0.853515625 1368.14257812 -271.419921875 c 1
 1164.34082031 -420.09375 995.724609375 -611.318359375 795.876953125 -763.561523438 c 0
 772.924804688 -778.27734375 738.831054688 -770.827148438 726.186523438 -744.154296875 c 1
EndSplineSet
Validated: 33
EndChar

StartChar: uniE324
Encoding: 58148 58148 35
Width: 4240
Flags: HW
LayerCount: 2
Fore
SplineSet
720 3229 m 1
 3520 3229 l 1
 3520 2629 l 1
 2380 2629 l 1
 2380 2077 l 1
 4120 2077 l 1
 4120 1477 l 1
 4120 277 l 1
 3560 277 l 1
 3560 1477 l 1
 3232 1477 l 1
 3232 -171 l 1
 3920 -171 l 1
 3920 -771 l 1
 320 -771 l 1
 320 -171 l 1
 1010 -171 l 1
 1010 1477 l 1
 680 1477 l 1
 680 277 l 1
 120 277 l 1
 120 1477 l 1
 120 2077 l 1
 1860 2077 l 1
 1860 2629 l 1
 720 2629 l 1
 720 3229 l 1
1530 1477 m 1
 1530 -171 l 1
 2712 -171 l 1
 2712 1477 l 1
 2380 1477 l 1
 2380 229 l 1
 1860 229 l 1
 1860 1477 l 1
 1530 1477 l 1
EndSplineSet
EndChar

StartChar: uniE325
Encoding: 58149 58149 36
Width: 3473
Flags: HW
LayerCount: 2
Fore
SplineSet
1557.64648438 -405.25 m 1
 1504.01855469 -255.208984375 1381.71484375 108.7578125 1250.4296875 -156.317382812 c 1
 1081.06835938 -381.305664062 817.563476562 -489.793945312 586.163085938 -375.721679688 c 1
 356.969726562 -284.348632812 165.5703125 -27.857421875 136.672851562 291.83203125 c 1
 96.5283203125 588.2578125 120.247070312 940.239257812 304.00390625 1148.70703125 c 1
 367.90625 1200.28125 351.20703125 1256.50097656 301.963867188 1314.59667969 c 1
 107.990234375 1586.55371094 94.8779296875 2001.74023438 165.875 2345.296875 c 0
 246.165039062 2721.31542969 549.165039062 2982.83007812 841.115234375 2968.734375 c 1
 1070.54492188 2917.55957031 1211.35253906 2649.46972656 1357.74707031 2436.56738281 c 1
 1428.81445312 2711.00585938 1484.00390625 3006.72851562 1632.38574219 3228.96191406 c 1
 1775.375 3232.56152344 1839.57324219 2979.59960938 1908.19140625 2840.46875 c 1
 1951.75683594 2739.97167969 2028.85742188 2428.0234375 2115.55371094 2543.98632812 c 1
 2165.12109375 2731.11621094 2353.07324219 2782.49707031 2478.62109375 2863.44042969 c 0
 2736.13574219 3021.390625 3053.02636719 2853.25390625 3193.00097656 2540.99023438 c 1
 3360.53710938 2207.96679688 3334.25097656 1725.6953125 3108.828125 1448.66015625 c 1
 3069.34863281 1390.59277344 3029.86523438 1332.52539062 2990.38574219 1274.45605469 c 1
 3107.609375 1112.71289062 3264.25195312 985.502929688 3329.86230469 772.2734375 c 1
 3362.25097656 545.599609375 3368.87890625 296.8984375 3305.19238281 78.1826171875 c 1
 3160.015625 -337.02734375 2750.2421875 -527.697265625 2436.52636719 -333.416992188 c 1
 2281.90332031 -261.568359375 2191.50976562 -66.982421875 2050.76074219 31.0869140625 c 1
 1953.75 -115.802734375 1941.48730469 -330.828125 1854.06445312 -489.935546875 c 1
 1809.91796875 -590.603515625 1751.23144531 -678.06640625 1698.66210938 -771 c 1
 1557.63378906 -405.25 l 1
 1557.64648438 -405.25 l 1
983.309570312 266.171875 m 1
 1175.78515625 508.439453125 1200.57324219 890.162109375 1204.53222656 1221.2265625 c 1
 1194.29394531 1575.74707031 1154.15527344 1976.53710938 949.240234375 2233.95703125 c 0
 826.91015625 2392.28125 593.392578125 2373.8671875 519.21484375 2153.35742188 c 1
 422.934570312 1949.48339844 512.302734375 1624.24023438 707.172851562 1609.56054688 c 1
 816.193359375 1546.84863281 944.228515625 1831.64257812 984.078125 1753.20605469 c 1
 967.830078125 1536.79980469 829.385742188 1369.21777344 816.84765625 1160.84960938 c 1
 882.963867188 1012.45214844 944.37890625 849.618164062 931.724609375 670.779296875 c 1
 923.28125 631.10546875 946.291015625 455.840820312 914.080078125 518.659179688 c 0
 845.0859375 663.4765625 750.759765625 823.657226562 604.376953125 804.19921875 c 1
 438.485351562 804.245117188 348.176757812 538.673828125 432.689453125 362.994140625 c 1
 503.922851562 157.045898438 705.567382812 61.4384765625 857.423828125 176.954101562 c 1
 901.34375 201.094726562 945.625 227.31640625 983.309570312 266.171875 c 1
1841.51757812 484.671875 m 1
 1920.578125 940.705078125 1918.19824219 1417.37402344 1837.97265625 1872.91113281 c 0
 1803.24316406 2058.77148438 1782.87988281 2258.95800781 1702.52539062 2421.78320312 c 1
 1594.50292969 2355.61328125 1590.14160156 2094.32519531 1546.33398438 1945.68261719 c 1
 1442.00195312 1478.19921875 1494.26367188 984.150390625 1577.8359375 519.107421875 c 1
 1608.99511719 409.747070312 1645.65429688 49.79296875 1757.10253906 171.249023438 c 1
 1796.04980469 269.928710938 1820.0703125 377.588867188 1841.5390625 484.671875 c 1
 1841.51757812 484.671875 l 1
2891.69042969 283.186523438 m 1
 3031.40234375 419.665039062 2966.23828125 664.444335938 2831.8046875 758.8671875 c 1
 2722.36523438 884.350585938 2605.41113281 726.063476562 2550.15136719 601.627929688 c 0
 2512.66503906 508.373046875 2490.34667969 501.484375 2489.09082031 614.415039062 c 1
 2451.51269531 804.377929688 2508.86230469 990.365234375 2527.82324219 1175.87695312 c 1
 2513.921875 1377.47363281 2366.91503906 1526.70410156 2385.25292969 1742.28710938 c 0
 2389.76464844 1800.75292969 2366.56054688 1951.89257812 2421.61621094 1841.6953125 c 1
 2498.89257812 1748.30566406 2560.640625 1588.359375 2677.76171875 1595.55371094 c 1
 2861.27246094 1683.59960938 2939.76171875 2055.34667969 2783.00683594 2228.36328125 c 1
 2627.81542969 2338.50097656 2401.61914062 2299.8046875 2286.23925781 2118.23632812 c 1
 2157.3984375 1827.55664062 2174.54882812 1470.265625 2195.47460938 1147.00097656 c 1
 2230.79101562 844.7265625 2270.83398438 498.870117188 2457.625 288.952148438 c 1
 2578.97363281 158.830078125 2774.47167969 125.5546875 2891.69042969 283.184570312 c 1
 2891.69042969 283.186523438 l 1
EndSplineSet
Validated: 33
EndChar

StartChar: uniE326
Encoding: 58150 58150 37
Width: 4250
Flags: HW
LayerCount: 2
Fore
SplineSet
2881.60253906 -748.879882812 m 1
 2664.6484375 -725.727539062 2472.8203125 -616.17578125 2312.37304688 -472.454101562 c 1
 2212.14453125 -329.311523438 2063.56835938 -305.63671875 1963.44628906 -463.848632812 c 1
 1643.0390625 -779.693359375 1129.13574219 -824.678710938 728.909179688 -648.430664062 c 0
 559.706054688 -570.265625 420.619140625 -439.581054688 321.763671875 -288.071289062 c 1
 193.763671875 -143.81640625 165.548828125 66.62109375 124.383789062 251.08203125 c 1
 99.7255859375 441.466796875 185.41796875 618.952148438 223.923828125 795.162109375 c 1
 307.458984375 939.185546875 429.15234375 1073.90234375 536.61328125 1204.03710938 c 1
 522.408203125 1404.85644531 280.741210938 1499.93164062 231.4765625 1697.33789062 c 1
 102.399414062 1965.23828125 91.01171875 2281.97851562 211.565429688 2555.21484375 c 1
 321.241210938 2828.02929688 548.965820312 3032.62011719 809.918945312 3158.84277344 c 1
 997.469726562 3255.34277344 1219.36230469 3204.44042969 1421.52929688 3210.41992188 c 1
 1612.17382812 3197.72363281 1781.37402344 3084.36425781 1927.68652344 2969.41503906 c 1
 2031.59960938 2825.38769531 2202.15429688 2765.99902344 2307.91699219 2943.89453125 c 1
 2604.03417969 3226.12207031 3063.04394531 3294.83203125 3443.3203125 3167.68457031 c 1
 3666.32324219 3076.47363281 3861.40234375 2907.32714844 3981.59375 2699.95117188 c 1
 4100.14257812 2535.51367188 4133.60351562 2325.39160156 4123.71875 2121.05078125 c 1
 4143.53613281 1917.20117188 4069.64550781 1730.73730469 3969.08886719 1564.68457031 c 1
 3880.74707031 1405.17871094 3563.73730469 1251.06542969 3823.18554688 1087.375 c 1
 3993.5390625 888.58984375 4153.77441406 645.666992188 4127.26367188 371.236328125 c 1
 4138.23730469 180.935546875 4126.9921875 -17.994140625 4009.86621094 -177.469726562 c 1
 3855.56445312 -474.77734375 3564.15625 -686.015625 3234.859375 -744.653320312 c 1
 3119.04882812 -779.776367188 2998.58886719 -778.348632812 2881.60253906 -748.87890625 c 1
 2881.60253906 -748.879882812 l 1
1489.20996094 -472.10546875 m 1
 1659.72949219 -408.66796875 1891.23242188 -288.098632812 1900.47265625 -89.51953125 c 1
 1810.49707031 121.950195312 1577.64257812 204.288085938 1432.90332031 -2.2109375 c 1
 1289.62304688 -116.069335938 1093.16113281 -89.37109375 958.213867188 23.7431640625 c 1
 784.734375 152.844726562 761.67578125 443.807617188 934.788085938 584.60546875 c 1
 1248.82324219 948.194335938 1618.67675781 1261.71972656 1920.8515625 1634.82519531 c 1
 1842.29882812 1763.65722656 1668.77929688 2045.02539062 1532.53027344 1819.84179688 c 1
 1183.30175781 1485.36230469 835.584960938 1147.79199219 513.103515625 787.263671875 c 1
 391.133789062 621.891601562 346.734375 402.758789062 374.284179688 198.147460938 c 1
 450.403320312 -244.088867188 900.633789062 -580.91015625 1346.06835938 -516.4296875 c 0
 1395.49511719 -508.291992188 1444.04980469 -493.922851562 1489.20996094 -472.10546875 c 1
3333.0859375 -468.0390625 m 1
 3730.42675781 -335.381835938 3982.59375 119.41015625 3869.20800781 525.450195312 c 0
 3813.00097656 722.513671875 3698.20507812 928.490234375 3509.17871094 1021.87695312 c 1
 3380.515625 976.263671875 3126.23632812 776.178710938 3307.39746094 640.442382812 c 1
 3464.18652344 511.641601562 3458.22949219 275.51171875 3385.61816406 104.392578125 c 1
 3259.84179688 -80.5869140625 2970.27636719 -143.955078125 2798.01757812 15.291015625 c 1
 2663.17285156 126.696289062 2520.60839844 241.7109375 2430.2109375 391.934570312 c 1
 2277.67871094 496.306640625 2168.97460938 651.671875 2017.54785156 770.861328125 c 1
 1884.1328125 900.696289062 1701.98828125 1155.64648438 1562.83984375 889.135742188 c 1
 1363.15429688 739.803710938 1621.44726562 586.345703125 1717.49121094 464.000976562 c 1
 2017.45898438 166.4140625 2303.76953125 -149.256835938 2637.18066406 -410.196289062 c 1
 2839.640625 -545.235351562 3109.77832031 -553.759765625 3333.0859375 -468.0390625 c 1
1366.03613281 249.797851562 m 1
 1566.71289062 348.2265625 1243.69921875 695.66796875 1140.85839844 468.981445312 c 1
 922.038085938 309.815429688 1207.54003906 37.6689453125 1366.03710938 249.797851562 c 1
 1366.03613281 249.797851562 l 1
3163.08789062 217.129882812 m 1
 3278.09765625 337.22265625 3058.9375 668.01953125 2931.52050781 495.336914062 c 1
 2708.72070312 369.900390625 2946.63671875 96.310546875 3130.51855469 186.873046875 c 1
 3163.08789062 217.129882812 l 1
2856.41210938 767.125 m 0
 2984.46679688 906.4296875 3140.01074219 1002.74023438 3252.00585938 1155 c 1
 3450.27734375 1368.14648438 3697.80859375 1546.578125 3831.00097656 1811.41992188 c 1
 3931.2109375 2048.15917969 3912.16699219 2322.70019531 3795.05078125 2550.10839844 c 0
 3715.17089844 2702.88964844 3596.18359375 2814.76171875 3438.51367188 2901.58203125 c 0
 3251.27050781 3002.58203125 3035.3515625 3011.54980469 2829.49414062 2962.45214844 c 1
 2638.43359375 2908.45605469 2430.42578125 2791.50585938 2351.79882812 2602.78417969 c 1
 2394.58398438 2493.68164062 2555.95507812 2286.37792969 2712.29199219 2389.45898438 c 1
 2831.421875 2522.22363281 3042.63867188 2574.29199219 3209.90625 2513.82226562 c 1
 3374.06445312 2439.87207031 3475.828125 2258.86425781 3437.57324219 2080.12207031 c 0
 3397.58300781 1876.35839844 3200.10253906 1756.08691406 3073.75292969 1605.55566406 c 1
 2826.51953125 1351.84570312 2559.79003906 1113.68554688 2338.57128906 836.802734375 c 1
 2413.50585938 705.358398438 2596.43261719 446.016601562 2736.29394531 650.559570312 c 1
 2777.58886719 688.091796875 2817.515625 727.120117188 2856.41210938 767.125 c 0
2250.40429688 1110.76464844 m 0
 2450.78417969 1288.57421875 2067.58300781 1557.40820312 1969.32421875 1293.296875 c 1
 1865.45019531 1222.60058594 2005.93945312 1146.20019531 2054.12402344 1088.66308594 c 1
 2115.07128906 1042.91015625 2196.78613281 1064.875 2250.40429688 1110.76464844 c 0
925.77734375 1575.68359375 m 0
 1042.49902344 1653.3515625 1104.34863281 1776.3828125 938.780273438 1840.26757812 c 1
 818.619140625 1988.66503906 737.7265625 2241.31445312 910.950195312 2381.06640625 c 1
 977.559570312 2567.70507812 1256.421875 2548.46191406 1413.68359375 2490.96875 c 0
 1589.48828125 2429.76660156 1650.14746094 2240.49804688 1799.52441406 2144.92285156 c 1
 2053.89160156 1923.35058594 2243.2421875 1619.99609375 2545.99707031 1458.54785156 c 1
 2656.03320312 1494.74511719 2738.75097656 1621.21972656 2833.58886719 1706.62695312 c 1
 2856.06054688 1753.359375 2745.80859375 1807.00683594 2714.56738281 1856.53710938 c 1
 2371.77050781 2192.13574219 2045.58691406 2546.18261719 1679.04003906 2856.25292969 c 1
 1503.5234375 2969.7890625 1289.16015625 3019.890625 1078.74707031 2975.80078125 c 1
 606.534179688 2911.05273438 242.756835938 2376.69628906 402.890625 1915.71875 c 1
 456.552734375 1732.63574219 584.064453125 1575.51171875 730.139648438 1456.74902344 c 1
 804.125976562 1440.16308594 870.946289062 1537.1640625 925.77734375 1575.68359375 c 0
1378.27441406 2027.24121094 m 1
 1570.30859375 2178.52929688 1187.19824219 2413.17578125 1082.65234375 2222.61914062 c 1
 973.536132812 2054.875 1259.53710938 1840.45800781 1378.27441406 2027.24121094 c 1
3158.04296875 2038.48144531 m 1
 3320.4921875 2252.49023438 2956.40820312 2417.24511719 2859.58203125 2182.47070312 c 0
 2780.79980469 1992.37109375 3071.98925781 1842.89648438 3158.04199219 2038.48144531 c 1
 3158.04296875 2038.48144531 l 1
EndSplineSet
Validated: 33
EndChar

StartChar: uniE327
Encoding: 58151 58151 38
Width: 4240
Flags: HW
LayerCount: 2
Fore
SplineSet
120 3229 m 1
 1453.33300781 3229 2786.66699219 3229 4120 3229 c 1
 4120 1895.66699219 4120 562.333007812 4120 -771 c 1
 2786.66699219 -771 1453.33300781 -771 120 -771 c 1
 120 562.333007812 120 1895.66699219 120 3229 c 1
360 2989 m 1
 360 2893.66699219 360 2798.33300781 360 2703 c 1
 455.333007812 2703 550.666992188 2703 646 2703 c 1
 646 2798.33300781 646 2893.66699219 646 2989 c 1
 550.666992188 2989 455.333007812 2989 360 2989 c 1
1014 2989 m 1
 1014 2893.66699219 1014 2798.33300781 1014 2703 c 1
 1124.66699219 2703 1235.33300781 2703 1346 2703 c 1
 1346 2798.33300781 1346 2893.66699219 1346 2989 c 1
 1235.33300781 2989 1124.66699219 2989 1014 2989 c 1
1714 2989 m 1
 1714 2893.66699219 1714 2798.33300781 1714 2703 c 1
 1809.33300781 2703 1904.66699219 2703 2000 2703 c 1
 2000 2798.33300781 2000 2893.66699219 2000 2989 c 1
 1904.66699219 2989 1809.33300781 2989 1714 2989 c 1
2240 2989 m 1
 2240 2442.33300781 2240 1895.66699219 2240 1349 c 1
 2786.66699219 1349 3333.33300781 1349 3880 1349 c 1
 3880.00976562 1895.66699219 3879.98828125 2442.33300781 3880 2989 c 1
 3333.33300781 2989 2786.66699219 2989 2240 2989 c 1
360 2335 m 1
 360 2224.33300781 360 2113.66699219 360 2003 c 1
 455.333007812 2003 550.666992188 2003 646 2003 c 1
 646 2113.66699219 646 2224.33300781 646 2335 c 1
 550.666992188 2335 455.333007812 2335 360 2335 c 1
1014 2335 m 1
 1014 2224.33300781 1014 2113.66699219 1014 2003 c 1
 1124.66699219 2003 1235.33300781 2003 1346 2003 c 1
 1346 2113.66699219 1346 2224.33300781 1346 2335 c 1
 1235.33300781 2335 1124.66699219 2335 1014 2335 c 1
1714 2335 m 1
 1714 2224.33300781 1714 2113.66699219 1714 2003 c 1
 1809.33300781 2003 1904.66699219 2003 2000 2003 c 1
 2000 2113.66699219 2000 2224.33300781 2000 2335 c 1
 1904.66699219 2335 1809.33300781 2335 1714 2335 c 1
360 1635 m 1
 360 1539.66699219 360 1444.33300781 360 1349 c 1
 455.333007812 1349 550.666992188 1349 646 1349 c 1
 646 1444.33300781 646 1539.66699219 646 1635 c 1
 550.666992188 1635 455.333007812 1635 360 1635 c 1
1014 1635 m 1
 1014 1539.66699219 1014 1444.33300781 1014 1349 c 1
 1124.66699219 1349 1235.33300781 1349 1346 1349 c 1
 1346 1444.33300781 1346 1539.66699219 1346 1635 c 1
 1235.33300781 1635 1124.66699219 1635 1014 1635 c 1
1714 1635 m 1
 1714 1539.66699219 1714 1444.33300781 1714 1349 c 1
 1809.33300781 1349 1904.66699219 1349 2000 1349 c 1
 2000 1444.33300781 2000 1539.66699219 2000 1635 c 1
 1904.66699219 1635 1809.33300781 1635 1714 1635 c 1
360 1109 m 1
 360 1109.00195312 l 1
 360 562.3359375 360 15.6689453125 360 -530.998046875 c 1
 906.666992188 -530.998046875 1453.33300781 -531.0078125 2000 -531.0078125 c 1
 1996.10351562 15.658203125 2003.89453125 562.333984375 2000 1109 c 1
 1453.33300781 1109 906.666992188 1109 360 1109 c 1
2240 1109 m 1
 2240 1013.66699219 2240 918.333007812 2240 823 c 1
 2335.33300781 823 2430.66699219 823 2526 823 c 1
 2526 918.333007812 2526 1013.66699219 2526 1109 c 1
 2430.66699219 1109 2335.33300781 1109 2240 1109 c 1
2894 1109 m 1
 2894 1013.66699219 2894 918.333007812 2894 823 c 1
 3004.66699219 823 3115.33300781 823 3226 823 c 1
 3226 918.333007812 3226 1013.66699219 3226 1109 c 1
 3115.33300781 1109 3004.66699219 1109 2894 1109 c 1
3594 1109 m 1
 3594 1013.66699219 3594 918.333007812 3594 823 c 1
 3689.33300781 823 3784.66699219 823 3880 823 c 1
 3880 918.333007812 3880 1013.66699219 3880 1109 c 1
 3784.66699219 1109 3689.33300781 1109 3594 1109 c 1
2240 455 m 1
 2240 344.333007812 2240 233.666992188 2240 123 c 1
 2335.33300781 123 2430.66699219 123 2526 123 c 1
 2526 233.666992188 2526 344.333007812 2526 455 c 1
 2430.66699219 455 2335.33300781 455 2240 455 c 1
2894 455 m 1
 2894 344.333007812 2894 233.666992188 2894 123 c 1
 3004.66699219 123 3115.33300781 123 3226 123 c 1
 3226 233.666992188 3226 344.333007812 3226 455 c 1
 3115.33300781 455 3004.66699219 455 2894 455 c 1
3594 455 m 1
 3594 344.333007812 3594 233.666992188 3594 123 c 1
 3689.33300781 123 3784.66699219 123 3880 123 c 1
 3880 233.666992188 3880 344.333007812 3880 455 c 1
 3784.66699219 455 3689.33300781 455 3594 455 c 1
2240 -245 m 1
 2240 -340.333007812 2240 -435.666992188 2240 -531 c 1
 2335.33300781 -531 2430.66699219 -531 2526 -531 c 1
 2526 -435.666992188 2526 -340.333007812 2526 -245 c 1
 2430.66699219 -245 2335.33300781 -245 2240 -245 c 1
2894 -245 m 1
 2894 -340.333007812 2894 -435.666992188 2894 -531 c 1
 3004.66699219 -531 3115.33300781 -531 3226 -531 c 1
 3226 -435.666992188 3226 -340.333007812 3226 -245 c 1
 3115.33300781 -245 3004.66699219 -245 2894 -245 c 1
3594 -245 m 1
 3594 -340.333007812 3594 -435.666992188 3594 -531 c 1
 3689.33300781 -531 3784.66699219 -531 3880 -531 c 1
 3880 -435.666992188 3880 -340.333007812 3880 -245 c 1
 3784.66699219 -245 3689.33300781 -245 3594 -245 c 1
EndSplineSet
Validated: 37
EndChar

StartChar: uniE328
Encoding: 58152 58152 39
Width: 6787
Flags: HW
LayerCount: 2
Fore
SplineSet
684.559570312 -733.719726562 m 1
 420.676757812 -759.9765625 46.630859375 -505.278320312 297.439453125 -239.693359375 c 1
 598.883789062 -37.6328125 984.807617188 -118.065429688 1326.87011719 -103.860351562 c 0
 1665.38183594 -91.240234375 2019.23632812 -153.331054688 2346.96972656 -49.2255859375 c 1
 2664.71679688 145.388671875 2245.71777344 288.067382812 2053.18945312 176.090820312 c 1
 1625.74511719 112.28125 1188.19335938 133.610351562 758.54296875 165.596679688 c 1
 522.071289062 203.422851562 35.619140625 262.880859375 132.623046875 597.173828125 c 1
 334.653320312 858.71484375 706.918945312 768.484375 990.706054688 758.68359375 c 1
 1382.55566406 723.073242188 1843.19140625 730.21484375 2142.53515625 1022.02929688 c 1
 2428.38085938 1381.6640625 2454.00878906 1920.31347656 2255.04296875 2327.17480469 c 0
 2084.76074219 2684.36816406 1644.79882812 2793.09765625 1284.60351562 2709.25488281 c 1
 911.893554688 2645.95214844 513.494140625 2371.38867188 519.272460938 1955.83496094 c 1
 466.219726562 1574.39941406 838.192382812 1249.29101562 1207.29589844 1299.1796875 c 1
 1479.30273438 1315.63964844 1806.24609375 1497.05664062 1783.90234375 1809.51757812 c 1
 1788.65625 2086.44824219 1376.23925781 2347.55566406 1176.52734375 2097.62988281 c 1
 1033.984375 1882.15332031 1704.671875 1799.28027344 1302.68359375 1614.30957031 c 1
 1027.25585938 1529.98242188 729.155273438 1830.13671875 842.612304688 2106.12011719 c 0
 1009.04492188 2507.80175781 1639.53125 2647.21484375 1918.98046875 2283.75976562 c 1
 2151.46582031 2041.95605469 2216.19238281 1631.74804688 1982.45996094 1368.41015625 c 1
 1625.81542969 925.8203125 870.703125 774.48828125 443.360351562 1201.15527344 c 0
 130.23046875 1508.26367188 105.108398438 1994.22558594 228.217773438 2391.80957031 c 1
 380.41015625 2823.79296875 844.662109375 3022.22460938 1266.79882812 3079.47070312 c 1
 1843.8515625 3168.74121094 2430.39941406 3101.97363281 3011.50292969 3117.5390625 c 1
 3850.74804688 3107.87890625 4689.70019531 3132.09960938 5526.72363281 3194.1171875 c 1
 5814.72363281 3202.16894531 6105.68164062 3253.09960938 6392.30371094 3215.03027344 c 1
 6703.87402344 3100.96972656 6614.64355469 2630.10742188 6289.38183594 2605.234375 c 1
 5766.29199219 2471.53808594 5218.57617188 2523.00097656 4683.88378906 2501.3984375 c 1
 4524.50195312 2537.14648438 3994.43847656 2467.74023438 4291.75683594 2262.26757812 c 1
 4549.24707031 2224.98828125 4806.37695312 2317.81933594 5065.69335938 2318.13476562 c 1
 5533.12695312 2344.73828125 6010.19921875 2416.9296875 6473.453125 2324.37011719 c 0
 6854.0078125 2249.57226562 6600.49511719 1876.95410156 6336.83789062 1854.15039062 c 1
 5992.78515625 1741.62792969 5622.53808594 1811.76855469 5267.28320312 1780.3203125 c 1
 4863.36621094 1797.59179688 4413.42871094 1606.46289062 4275.05078125 1199.59570312 c 1
 4143.04199219 921.475585938 4165.88476562 602.866210938 4192.30175781 305.498046875 c 1
 4279.10351562 -132.26171875 4738.35351562 -389.888671875 5162.04199219 -354.643554688 c 1
 5651.4765625 -358.717773438 6132.32519531 85.1064453125 6059.63671875 593.49609375 c 1
 6029.30761719 1033.57226562 5510.69238281 1243.80273438 5124.31640625 1151.64355469 c 1
 4809.08984375 1107.83398438 4566.63964844 731.215820312 4732.88671875 440.767578125 c 1
 4842.59179688 223.8828125 5159.89941406 103.693359375 5364.0390625 255.51171875 c 1
 5598.38867188 560.983398438 4821.8515625 569.55078125 5139.12109375 869.223632812 c 1
 5395.85644531 971.631835938 5737.26464844 767.973632812 5758.42089844 486.90234375 c 1
 5827.65625 132.647460938 5451.78613281 -106.454101562 5137.86914062 -99.5146484375 c 1
 4804.63085938 -122.442382812 4415.47558594 72.04296875 4383.59179688 438.166015625 c 1
 4308.84179688 861.21875 4508.79003906 1360.74902344 4945.81835938 1492.86132812 c 1
 5455.60644531 1658.64355469 6096.15332031 1481.36328125 6388.49804688 1017.28515625 c 1
 6581.86328125 616.309570312 6509.14160156 117.727539062 6290.68359375 -258.759765625 c 1
 6012.92773438 -691.970703125 5446.40917969 -749.018554688 4978.03710938 -712.540039062 c 1
 4209.57519531 -664.247070312 3431.84082031 -449.836914062 2665.95117188 -640.421875 c 0
 2229.73144531 -748.091796875 1781.36425781 -784.176757812 1332.98046875 -766.865234375 c 1
 1116.61328125 -764.704101562 898.740234375 -769.728515625 684.559570312 -733.720703125 c 1
 684.559570312 -733.719726562 l 1
EndSplineSet
Validated: 33
EndChar

StartChar: uniE329
Encoding: 58153 58153 40
Width: 4239
Flags: HW
LayerCount: 2
Fore
SplineSet
2048.45507812 -758.793945312 m 1
 1843.84179688 -633.640625 1938.21972656 -369.068359375 1985.38671875 -184.103515625 c 1
 2029.30273438 -62.998046875 2059.95019531 195.99609375 2129.49121094 227.997070312 c 1
 2198.12402344 -15.0439453125 2297.80566406 -254.739257812 2316.90429688 -507.965820312 c 0
 2325.00097656 -652.875976562 2208.81542969 -817.534179688 2048.45507812 -758.794921875 c 1
 2048.45507812 -758.793945312 l 1
1428.97265625 -624.77734375 m 1
 1303.61523438 -462.131835938 1424.96777344 -251.69921875 1527.63574219 -109.861328125 c 1
 1623.06347656 31.6279296875 1721.375 171.141601562 1818.34765625 311.571289062 c 1
 1806.29296875 52.5302734375 1822.62109375 -209.633789062 1780.34472656 -465.848632812 c 1
 1741.70800781 -619.38671875 1571.13964844 -755.333984375 1428.97265625 -624.77734375 c 1
2567.14257812 -643.245117188 m 1
 2383.16894531 -479.947265625 2441.21582031 -213.5859375 2420.41015625 4.7333984375 c 1
 2417.20507812 130.166992188 2387.56640625 421.47265625 2513.34570312 182.802734375 c 1
 2633.68066406 -11.13671875 2780.2265625 -196.366210938 2859.86621094 -410.99609375 c 1
 2908.15625 -584.873046875 2729.96972656 -751.143554688 2567.14257812 -643.24609375 c 1
 2567.14257812 -643.245117188 l 1
959.889648438 -396.025390625 m 1
 780.775390625 -278.319335938 901.505859375 -20.2314453125 1051.76074219 66.6650390625 c 1
 1213.06445312 194.075195312 1371.54785156 327.090820312 1544.24511719 438.578125 c 1
 1461.78808594 194.251953125 1385.93652344 -56.845703125 1266.03125 -285.390625 c 1
 1201.03417969 -377.947265625 1071.31054688 -456.346679688 959.889648438 -396.026367188 c 1
 959.889648438 -396.025390625 l 1
3085.56542969 -391.094726562 m 1
 2901.65527344 -275.653320312 2869.55664062 -35.970703125 2789.9609375 150.112304688 c 1
 2766.24414062 249.43359375 2612.57714844 546.00390625 2799.76953125 365.5078125 c 1
 2990.20996094 200.326171875 3239.69335938 81.013671875 3356.48730469 -152.47265625 c 0
 3431.76269531 -310.413085938 3237.8203125 -501.653320312 3085.56542969 -391.09375 c 1
 3085.56542969 -391.094726562 l 1
3491.625 -0.798828125 m 1
 3298.94140625 70.193359375 3215.57519531 279.469726562 3084.36523438 422.731445312 c 1
 3030.79882812 504.2734375 2822.13085938 720.944335938 3042.40234375 613.618164062 c 1
 3242.23828125 537.866210938 3455.07226562 486.071289062 3640.38574219 378.345703125 c 1
 3803.99902344 290.669921875 3810.62011719 -9.3916015625 3591.87109375 -19.0595703125 c 0
 3557.61132812 -19.9990234375 3523.7578125 -12 3491.625 -0.7998046875 c 1
 3491.625 -0.798828125 l 1
511.83203125 42.9228515625 m 1
 362.205078125 248.793945312 640.211914062 448.380859375 829.26953125 485.815429688 c 1
 978.998046875 527.302734375 1213.3828125 652.375 1310.91601562 630.186523438 c 1
 1154.04101562 420.18359375 997.290039062 202.142578125 800.60546875 28.3984375 c 1
 713.825195312 -23.244140625 588.264648438 -33.09375 511.83203125 42.9228515625 c 1
1879.0078125 313.286132812 m 0
 1375.46777344 438.194335938 1045.41113281 1021.30371094 1220.08105469 1515.171875 c 1
 1344.63671875 1931.69824219 1780.32128906 2225.70507812 2214.34765625 2166.78222656 c 1
 2603.46582031 2147.33105469 2937.37597656 1831.66210938 3041.23828125 1465.55175781 c 1
 3054.39746094 1232.75097656 3087.68261719 974.989257812 2949.07714844 770.442382812 c 1
 2773.32519531 470.505859375 2442.09667969 264.299804688 2089.1640625 282.704101562 c 0
 2018.24121094 284.66015625 1947.52929688 294.844726562 1879.0078125 313.286132812 c 0
2431.78027344 613.4453125 m 0
 2802.87402344 777.297851562 2933.43261719 1292.43652344 2690.45410156 1615.56835938 c 1
 2541.24609375 1846.42285156 2255.02441406 1969.52832031 1985.89355469 1905.34960938 c 1
 1627.45117188 1850.71777344 1372.484375 1475.44433594 1438.34375 1121.26464844 c 1
 1486.89160156 753.631835938 1889.41796875 453.0390625 2256.45214844 554.655273438 c 0
 2316.80273438 567.657226562 2376.23242188 586.27734375 2431.78027344 613.4453125 c 0
1975.83203125 998.891601562 m 1
 1753.17871094 1122.41992188 1867.93359375 1521.48730469 2126.34960938 1499.62890625 c 1
 2321.8671875 1494.34277344 2480.71191406 1247.02441406 2344.06738281 1083.15136719 c 1
 2267.96289062 949.252929688 2104.42382812 943.526367188 1975.83203125 998.891601562 c 1
307.434570312 511.05078125 m 1
 104.509765625 623.616210938 270.370117188 895.4296875 459.259765625 906.118164062 c 1
 698.310546875 925.053710938 940.76953125 942.299804688 1179.68847656 923.438476562 c 1
 966.778320312 778.239257812 764.045898438 608.6484375 527.286132812 504.635742188 c 1
 455.795898438 490.381835938 376.956054688 485.861328125 307.43359375 511.048828125 c 1
 307.434570312 511.05078125 l 1
3666.76660156 510.774414062 m 1
 3457.91992188 637.233398438 3254.03125 774.403320312 3061.72851562 924.779296875 c 1
 3323.44921875 926.598632812 3591.49511719 937.276367188 3848.5859375 882.416992188 c 0
 4066.55957031 831.990234375 4094.41210938 481.853515625 3829.98828125 489.567382812 c 1
 3775.00976562 485.454101562 3718.44433594 490.62109375 3666.76660156 510.774414062 c 1
234.705078125 1063.93945312 m 1
 -1.6943359375 1161.56347656 167.834960938 1465.95410156 378.5234375 1441.1015625 c 1
 623.166015625 1403.98925781 860.39453125 1322.47363281 1097.14160156 1251.2109375 c 1
 1111.40820312 1180.46875 846.196289062 1154.86132812 747.8984375 1112.14941406 c 1
 582.010742188 1079.95996094 400.852539062 985.319335938 234.705078125 1063.93945312 c 1
3419.82714844 1126.30859375 m 1
 3327.7578125 1162.5859375 2978.02441406 1231.63085938 3238.57421875 1278.6484375 c 1
 3439.0859375 1334.6015625 3636.734375 1410.85839844 3843.66601562 1437.34082031 c 0
 4015.88574219 1458.04003906 4221.96484375 1259.83203125 4062.18066406 1108.15136719 c 0
 3901.38378906 957.12890625 3652.16601562 1065.62109375 3466.88671875 1112.03613281 c 1
 3443.87597656 1118.98925781 l 1
 3419.82714844 1126.30957031 l 1
 3419.82714844 1126.30859375 l 1
629.629882812 1548.28027344 m 1
 432.522460938 1521.00292969 108.154296875 1669.6953125 250.459960938 1905.19042969 c 1
 411.009765625 2078.38574219 636.150390625 1914.69824219 787.541992188 1815.14160156 c 1
 886.448242188 1727.82617188 1154.95605469 1611.57226562 1146.7109375 1534.73632812 c 1
 974.451171875 1525.3828125 801.590820312 1537.828125 629.630859375 1548.27929688 c 1
 629.629882812 1548.28027344 l 1
3290.33203125 1704.10351562 m 0
 3453.31738281 1808.04589844 3609.24414062 1942.88476562 3801.70214844 1984.70117188 c 1
 4015.84765625 2012.52539062 4121.69140625 1702.94921875 3914.98730469 1612.87890625 c 1
 3705.81347656 1515.07519531 3465.58007812 1546.42480469 3240.36425781 1529.79589844 c 1
 3030.49707031 1522.81640625 l 1
 3290.33203125 1704.10351562 l 0
972.693359375 1925.06054688 m 1
 800.623046875 2001.68066406 571.849609375 2044.48144531 483.487304688 2230.16113281 c 1
 390.237304688 2439.89648438 706.676757812 2567.95898438 837.279296875 2411.75585938 c 1
 1028.6171875 2235.90722656 1174.47265625 2016.28320312 1326.81640625 1807.41894531 c 1
 1222.50585938 1821.54882812 1085.6640625 1889.4140625 972.693359375 1925.06054688 c 1
2916.16992188 1812.13183594 m 1
 3059.17675781 2021.99707031 3218.74023438 2224.47851562 3397.36230469 2405.16601562 c 1
 3561.93066406 2602.08105469 3911.00488281 2377.96386719 3717.68847656 2165.82617188 c 1
 3573.34472656 1991.78417969 3331.83300781 1963.57128906 3133.890625 1878.75195312 c 1
 3061.68066406 1855.91796875 2990.85351562 1825.55859375 2916.16992188 1812.13183594 c 1
1419.04003906 2114.49707031 m 1
 1236.60742188 2264.9296875 1013.22851562 2386.26660156 893.630859375 2596.61132812 c 1
 764.244140625 2853.08691406 1145.31835938 2984.68066406 1264.97753906 2755.09667969 c 0
 1382.38183594 2538.02734375 1453.38085938 2297.48144531 1533.46191406 2064.37011719 c 1
 1572.58300781 1978.7734375 1429.74414062 2116.75292969 1419.0390625 2114.49707031 c 1
 1419.04003906 2114.49707031 l 1
2783.79003906 2291.50683594 m 1
 2871.875 2491.2890625 2899.3671875 2758.75976562 3118.01367188 2863.58886719 c 1
 3379.09667969 2974.58203125 3450.51660156 2561.9921875 3245.85742188 2454.33398438 c 1
 3068.52148438 2305.51367188 2890.66503906 2155.31445312 2698.23339844 2026.47558594 c 1
 2720.07128906 2116.62792969 2754.47753906 2203.56152344 2783.79101562 2291.50585938 c 1
 2783.79003906 2291.50683594 l 1
1622.91308594 2437.01367188 m 1
 1517.23339844 2615.20019531 1327.98828125 2794.38574219 1389.71582031 3020.58203125 c 1
 1494.31835938 3274.78515625 1808.07128906 3076.65039062 1796.31640625 2862.87109375 c 1
 1813.45410156 2633.32128906 1823.78027344 2401.87304688 1813.33984375 2171.94824219 c 1
 1743.21875 2255 1685.09667969 2347.984375 1622.91308594 2437.01367188 c 1
2424.75 2518.80371094 m 1
 2445.71386719 2721.26464844 2400.6796875 2990.02636719 2597.43847656 3119.11425781 c 1
 2827.33007812 3242.22558594 2955.87011719 2881.78417969 2804.12988281 2733.72851562 c 1
 2689.27246094 2546.10253906 2578.58984375 2351.93554688 2434.16015625 2185.78613281 c 1
 2400.10351562 2283.1328125 2427.87597656 2410.765625 2424.74902344 2518.8046875 c 1
 2424.75 2518.80371094 l 1
2020.50976562 2519.94042969 m 1
 1975.04003906 2715.08984375 1874.03417969 2931.48535156 1959.46777344 3128.51367188 c 1
 2071.99609375 3342.22851562 2342.45507812 3178.45117188 2329.67773438 2977.42578125 c 1
 2294.01757812 2719.87011719 2204.79980469 2470.45703125 2122.97363281 2224.11328125 c 1
 2076.83398438 2317.44726562 2052.91308594 2421.19335938 2020.50878906 2519.94042969 c 1
 2020.50976562 2519.94042969 l 1
EndSplineSet
Validated: 37
EndChar

StartChar: uniE32A
Encoding: 58154 58154 41
Width: 3739
Flags: HW
LayerCount: 2
Fore
SplineSet
1570.77246094 -278.806640625 m 1
 1285.53710938 219.258789062 l 1
 120 231.06640625 l 1
 306.00390625 556.072265625 504.752929688 875.319335938 678.2421875 1206.27441406 c 1
 621.227539062 1411.80566406 483.938476562 1586.73046875 386.59375 1775.42089844 c 1
 300.616210938 1926.02832031 212.940429688 2075.71777344 129.76171875 2227.890625 c 1
 512.08984375 2249.65527344 896.171875 2235.08691406 1279.28710938 2237.1953125 c 1
 1471.1640625 2568.01171875 1659.41699219 2900.984375 1856.04980469 3229 c 1
 1993.05371094 3109.71777344 2065.45019531 2909.42675781 2169.390625 2754.68066406 c 1
 2460.50878906 2249.5859375 l 1
 2846.75683594 2245.88183594 3234.12890625 2259.92675781 3619.43359375 2235.07421875 c 1
 3441.36621094 1895.03222656 3230.94433594 1572.27441406 3058.6796875 1229.23535156 c 1
 3232.65527344 889.955078125 3439.53125 568.415039062 3619.44140625 232.266601562 c 1
 3232.82324219 208.5234375 2844.57714844 215.775390625 2457.18847656 208.883789062 c 1
 2264.45996094 -118.346679688 2085.5546875 -454.598632812 1875.61035156 -771 c 1
 1759.24023438 -617.756835938 1669.69628906 -443.922851562 1570.7734375 -278.806640625 c 1
 1570.77246094 -278.806640625 l 1
2164.11230469 -107.59375 m 1
 2402.71777344 307.919921875 l 1
 3464.2578125 319.791992188 l 1
 3288.05371094 623.608398438 3112.58984375 927.856445312 2935.36328125 1231.07617188 c 1
 3459.55664062 2138.67871094 l 1
 3108.06445312 2142.63378906 2756.57128906 2146.58886719 2405.07910156 2150.54589844 c 1
 2229.60742188 2447.11035156 2073.109375 2756.21972656 1872.703125 3036.96875 c 1
 1772.04589844 2929.39648438 1696.35058594 2750.97070312 1608.04003906 2614.28027344 c 1
 1520.62207031 2463.15039062 1433.23730469 2311.99902344 1345.83105469 2160.86035156 c 1
 994.6328125 2154.52148438 642.911132812 2159.54882812 292.208007812 2139.61425781 c 1
 453.762695312 1840.49414062 632.88671875 1551.12988281 794.188476562 1251.87011719 c 1
 658.112304688 926.814453125 452.146484375 635.169921875 292.208007812 321.337890625 c 1
 642.74609375 299.506835938 994.657226562 311.451171875 1345.83105469 308.017578125 c 1
 1519.48339844 12.9326171875 1678.40332031 -291.565429688 1865.39257812 -578.208984375 c 1
 1974.015625 -498.971679688 2037.90136719 -297.900390625 2127.58789062 -171.124023438 c 0
 2139.77441406 -149.954101562 2151.94921875 -128.776367188 2164.11328125 -107.59375 c 1
 2164.11230469 -107.59375 l 1
1667.46386719 198.307617188 m 1
 1478.92089844 530.078125 l 1
 1225.0234375 533.438476562 970.307617188 521.35546875 717.134765625 543.52734375 c 1
 718.01953125 700.634765625 907.162109375 907.765625 985.24609375 1081.66699219 c 1
 1158.54882812 1254.40039062 929.07421875 1429.33398438 860.811523438 1599.88671875 c 0
 815.536132812 1718.45703125 572.594726562 1965.25195312 835.127929688 1924.30078125 c 1
 1049.65136719 1931.20703125 1264.32128906 1928.22167969 1478.92089844 1929.5078125 c 1
 1872.61132812 2619.16503906 l 1
 2007.10644531 2389.90234375 2141.30078125 2160.43554688 2270.18359375 1927.95507812 c 1
 2535.04296875 1924.9453125 2800.734375 1936.30664062 3064.90136719 1916.49707031 c 1
 2959.52148438 1694.16894531 2801.10351562 1497.87304688 2713.16308594 1268.02734375 c 1
 2716.82910156 1054.45898438 2899.375 892.284179688 2980.28125 701.891601562 c 1
 3059.88671875 596.921875 3085.90917969 502.540039062 2919.9765625 533.631835938 c 1
 2703.51855469 528.504882812 2486.98242188 531.198242188 2270.48339844 530.516601562 c 1
 2138.09960938 308.4765625 2018.91699219 77.6201171875 1870.58300781 -134.196289062 c 1
 1793.7265625 -29.5283203125 1733.5 86.6865234375 1667.46289062 198.307617188 c 1
 1667.46386719 198.307617188 l 1
2098.27539062 425.154296875 m 2
 2224.58984375 641.423828125 l 1
 2905.88378906 641.423828125 l 1
 2795.33007812 837.499023438 2672.47265625 1027.41796875 2577.24902344 1231.54394531 c 1
 2672.48828125 1438.14355469 2796.75195312 1629.93554688 2908.08886719 1828.13671875 c 1
 2210.91113281 1840.703125 l 1
 2097.04492188 2027.609375 2005.62597656 2231.95605469 1864.93066406 2399.64648438 c 1
 1750.12304688 2220.25097656 1646.90625 2033.73535156 1538.70117188 1850.31933594 c 1
 1308.08105469 1843.12890625 1076.14746094 1850.90917969 846.74609375 1825.77148438 c 1
 949.981445312 1623.95898438 1073.59179688 1433.24609375 1179.46972656 1232.83789062 c 1
 1073.98925781 1036.67089844 958.993164062 845.767578125 848.284179688 652.514648438 c 1
 1525.23535156 640.344726562 l 1
 1872.90429688 39.5107421875 l 1
 1948.08398438 168.025390625 2023.18066406 296.58984375 2098.27539062 425.154296875 c 2
1757.91992188 686.143554688 m 1
 1659.83398438 863.240234375 l 1
 1522.15429688 867.922851562 1380.7265625 850.442382812 1246.01367188 880.486328125 c 1
 1305.78125 999.950195312 1380.31445312 1112.93847656 1443.72167969 1231.26855469 c 1
 1377.54882812 1349.57519531 1306.72753906 1465.46679688 1246.01367188 1586.69238281 c 1
 1381.97070312 1601.75 1519.65625 1592.93164062 1656.37402344 1595.3359375 c 1
 1727.21386719 1714.02539062 1784.39355469 1842.83007812 1872.046875 1950.08105469 c 1
 1961.34082031 1843 2020.25878906 1713.96777344 2092.79589844 1595.23046875 c 1
 2511.25976562 1595.23046875 l 1
 2448.74609375 1477.36035156 2360.14355469 1370.21972656 2324.81542969 1240.5078125 c 1
 2346.70117188 1104.54980469 2448.84960938 996.608398438 2508.61425781 874.330078125 c 1
 2089.18066406 861.635742188 l 1
 2017.28417969 743.5859375 1958.11621094 616.061523438 1870.70117188 508.690429688 c 1
 1823.87109375 560.6796875 1793.90136719 626.609375 1757.91992188 686.142578125 c 1
 1757.91992188 686.143554688 l 1
2190.05566406 951.965820312 m 1
 2230.71972656 966.014648438 2374.18261719 921.159179688 2337.56835938 979.489257812 c 2
 2192.29785156 1227.35351562 l 1
 2239.75488281 1315.83789062 2293.30761719 1401.47265625 2332.91015625 1493.84375 c 1
 2234.44042969 1515.61230469 2131.28515625 1503.2421875 2030.68261719 1506.50390625 c 1
 1977.78027344 1591.24902344 1941.1640625 1690.93164062 1868.65136719 1759.92382812 c 1
 1814.08203125 1682.38867188 1769.02832031 1598.68652344 1720.03808594 1517.59570312 c 1
 1401.28515625 1495.4140625 l 1
 1557.03710938 1237.30371094 l 1
 1397.46679688 951.965820312 l 1
 1722.91699219 951.439453125 l 1
 1872.84375 678.55078125 l 1
 2026.4140625 951.96484375 l 1
 2190.05566406 951.96484375 l 1
 2190.05566406 951.965820312 l 1
EndSplineSet
Validated: 33
EndChar

